<?xml version="1.0" standalone="no"?>
<!DOCTYPE svg PUBLIC "-//W3C//DTD SVG 1.1//EN" "http://www.w3.org/Graphics/SVG/1.1/DTD/svg11.dtd">
<svg xmlns="http://www.w3.org/2000/svg">
<defs >
<font id="RadioCanada" horiz-adv-x="577" ><font-face
    font-family="Radio Canada"
    units-per-em="1000"
    panose-1="0 0 0 0 0 0 0 0 0 0"
    ascent="945"
    descent="-255"
    alphabetic="0" />
<glyph unicode=" " horiz-adv-x="250" />
<glyph unicode="!" horiz-adv-x="358" d="M85 80Q85 120 111 146T179 172Q220 172 246 146T273 80Q273 41 247 15T179 -12Q138 -12 112 14T85 80ZM122 260L96 525V690H262V525L236 260H122Z" />
<glyph unicode="&quot;" horiz-adv-x="492" d="M50 720H222L187 375H85L50 720ZM270 720H442L407 375H305L270 720Z" />
<glyph unicode="#" horiz-adv-x="807" d="M55 150V284H689V150H55ZM111 0L279 690H421L253 0H111ZM118 406V540H752V406H118ZM386 0L554 690H696L528 0H386Z" />
<glyph unicode="$" horiz-adv-x="600" d="M290 -12Q243 -12 196 -2T104 28T16 74L92 203Q136 167 194 145T307 122Q340 122 362 130T397 152T409 184Q409 198 399 213T361 245T280 279Q198 306 148 340T74 414T51 500Q51 555 80 601T168 674T311 702Q379 702 446
681T560 627L489 500Q448 529 399 549T298 570Q256 570 234 553T212 513Q212 498 223 484T262 455T337 424Q422 396 474 362T550 287T574 195Q574 140 543 93T449 17T290 -12ZM241 -100V790H381V-100H241Z" />
<glyph unicode="%" horiz-adv-x="992" d="M70 518Q70 574 93 615T158 679T249 702Q300 702 340 680T404 616T428 518Q428 462 405 421T341 357T249 334Q199 334 158 356T94 420T70 518ZM175 518Q175 475 196 452T249 429Q280 429 301 452T323 518Q323 561 302
584T249 607Q218 607 197 584T175 518ZM201 0L651 690H791L341 0H201ZM564 172Q564 228 587 269T652 333T743 356Q794 356 834 334T898 270T922 172Q922 116 899 75T835 11T743 -12Q693 -12 652 10T588 74T564 172ZM669 172Q669 129 690 106T743 83Q774 83 795
106T817 172Q817 215 796 238T743 261Q712 261 691 238T669 172Z" />
<glyph unicode="&amp;" horiz-adv-x="660" d="M40 170Q40 234 77 284T190 375L300 435Q335 454 355 474T375 525Q375 551 360 570T315 590Q287 590 271 571T255 525Q255 495 277 472T330 410L670 0H480L200 340Q163 385 137 427T110 525Q110 578 136 617T208 679T315
702Q375 702 419 680T488 619T513 530Q513 490 499 459T454 400T375 345L270 285Q230 262 213 237T195 185Q195 155 215 137T270 118Q320 118 362 149T437 232T490 350L620 300Q594 240 560 184T480 84T378 14T250 -12Q190 -12 143 10T68 74T40 170Z" />
<glyph unicode="&apos;" horiz-adv-x="272" d="M50 720H222L187 375H85L50 720Z" />
<glyph unicode="(" horiz-adv-x="300" d="M65 268Q65 381 90 473T163 642T278 791L350 730Q302 662 270 591T221 440T205 268Q205 176 221 96T269 -55T350 -195L278 -256Q211 -185 163 -107T90 63T65 268Z" />
<glyph unicode=")" horiz-adv-x="300" d="M-50 -195Q-2 -127 30 -56T79 96T95 268Q95 361 79 440T31 590T-50 730L22 791Q90 720 137 643T210 473T235 268Q235 155 210 63T138 -107T22 -256L-50 -195Z" />
<glyph unicode="*" horiz-adv-x="619" d="M55 485L99 620L260 546L239 720H380L360 546L521 620L564 485L392 450L511 322L396 238L310 393L223 238L109 322L228 450L55 485Z" />
<glyph unicode="+" horiz-adv-x="600" d="M62 223V357H538V223H62ZM230 55V525H370V55H230Z" />
<glyph unicode="," horiz-adv-x="278" d="M60 -185L106 -7Q81 1 63 23T45 80Q45 120 71 146T139 172Q180 172 206 146T233 77Q233 46 225 19T201 -49L148 -185H60Z" />
<glyph unicode="-" horiz-adv-x="396" d="M55 217V338H341V217H55Z" />
<glyph unicode="." horiz-adv-x="278" d="M45 80Q45 120 71 146T139 172Q180 172 206 146T233 80Q233 41 207 15T139 -12Q98 -12 72 14T45 80Z" />
<glyph unicode="/" horiz-adv-x="394" d="M0 -30L247 720H394L147 -30H0Z" />
<glyph unicode="0" horiz-adv-x="600" d="M25 345Q25 464 62 543T162 662T300 702Q375 702 437 662T537 543T575 345Q575 227 538 148T438 28T300 -12Q225 -12 163 28T63 147T25 345ZM189 345Q189 269 203 222T243 153T300 131Q332 131 357 153T396 222T411 345Q411
421 397 468T357 537T300 559Q269 559 244 537T204 468T189 345Z" />
<glyph unicode="1" horiz-adv-x="600" d="M88 0V120H534V0H88ZM76 603L288 690L322 567L124 486L76 603ZM235 0V637L288 690H395V0H235Z" />
<glyph unicode="2" horiz-adv-x="600" d="M37 595Q71 626 111 650T197 688T294 702Q362 702 416 675T501 600T532 493Q532 446 516 404T463 318T369 222L117 0L48 105L272 324Q306 357 327 383T358 431T368 473Q368 496 358 514T327 544T276 555Q249 555 223 546T173
519T124 479L37 595ZM48 0V105L134 140H542V0H48Z" />
<glyph unicode="3" horiz-adv-x="600" d="M28 84L111 198Q142 165 180 147T264 128Q320 128 354 150T388 215Q388 240 375 260T333 292T260 304H171V390L224 421H293Q366 421 423 398T514 329T547 215Q547 141 511 90T414 14T283 -12Q204 -12 141 13T28 84ZM55
550V690H522V585L473 550H55ZM171 390L463 690L522 585L326 390H171Z" />
<glyph unicode="4" horiz-adv-x="600" d="M20 221L275 690H410L99 116L20 221ZM20 116V221L66 256H580V116H20ZM328 0V690H488V0H328Z" />
<glyph unicode="5" horiz-adv-x="600" d="M40 84L123 198Q154 165 192 147T276 128Q332 128 366 152T400 220Q400 259 369 287T276 315Q239 315 207 301T145 262V360Q175 394 221 414T320 435Q390 435 444 408T528 332T559 215Q559 141 523 90T426 14T295 -12Q216
-12 153 13T40 84ZM78 307L100 690H234L214 336L145 262L78 307ZM100 690H512V550H163L100 690Z" />
<glyph unicode="6" horiz-adv-x="600" d="M37 320Q37 415 63 486T134 606T237 678T358 702Q407 702 452 691T535 653L466 529Q440 551 414 560T361 569Q321 569 283 544T220 465T195 320Q195 251 211 208T255 144T315 123Q343 123 364 136T398 172T411 222Q411
254 399 277T364 312T311 325Q290 325 268 318T224 298T186 270V364Q202 390 227 409T283 438T349 449Q411 449 460 421T537 343T565 225Q565 156 534 103T445 19T310 -12Q232 -12 170 27T73 140T37 320Z" />
<glyph unicode="7" horiz-adv-x="600" d="M40 540V690H529V585L480 540H40ZM126 0L414 690L529 585L302 0H126Z" />
<glyph unicode="8" horiz-adv-x="600" d="M39 173Q39 217 57 252T109 311T192 347L284 301Q254 294 233 278T200 241T188 197Q188 174 201 156T238 127T297 117Q333 117 356 127T391 152T403 186Q403 200 398 213T381 239T346 265T288 290Q203 319 154 351T84
424T63 512Q63 564 92 607T175 676T299 702Q369 702 422 679T504 614T534 522Q534 483 517 452T467 400T383 372L295 413Q325 421 346 435T378 468T389 506Q389 526 379 541T348 566T298 576Q269 576 250 566T222 541T213 509Q213 494 223 480T258 452T326 424Q415
396 466 359T539 277T561 184Q561 131 531 87T443 15T298 -12Q218 -12 160 11T71 76T39 173Z" />
<glyph unicode="9" horiz-adv-x="600" d="M35 465Q35 534 66 587T155 671T290 702Q369 702 430 663T527 550T563 370Q563 275 537 204T466 84T363 12T242 -12Q193 -12 148 0T65 37L134 161Q160 139 186 130T239 121Q269 121 298 135T352 178T390 255T405 370Q405
439 389 482T345 546T285 567Q257 567 236 554T202 518T189 468Q189 437 201 414T237 378T289 365Q321 365 355 381T414 420V326Q398 301 373 282T317 252T251 241Q189 241 140 269T63 347T35 465Z" />
<glyph unicode=":" horiz-adv-x="278" d="M45 80Q45 120 71 146T139 172Q180 172 206 146T233 80Q233 41 207 15T139 -12Q98 -12 72 14T45 80ZM45 445Q45 485 71 511T139 537Q180 537 206 511T233 445Q233 406 207 380T139 353Q98 353 72 379T45 445Z" />
<glyph unicode=";" horiz-adv-x="278" d="M60 -185L106 -7Q81 1 63 23T45 80Q45 120 71 146T139 172Q180 172 206 146T233 77Q233 46 225 19T201 -49L148 -185H60ZM45 445Q45 485 71 511T139 537Q180 537 206 511T233 445Q233 406 207 380T139 353Q98 353 72 379T45 445Z" />
<glyph unicode="&lt;" horiz-adv-x="600" d="M68 227V319H178L510 193V39L68 227ZM68 263V349L510 537V387L178 263H68Z" />
<glyph unicode="=" horiz-adv-x="600" d="M62 98V232H538V98H62ZM62 348V482H538V348H62Z" />
<glyph unicode="&gt;" horiz-adv-x="600" d="M90 39V189L422 313L532 312V227L90 39ZM90 383V537L532 349V256L422 257L90 383Z" />
<glyph unicode="?" horiz-adv-x="518" d="M153 80Q153 120 179 146T247 172Q288 172 314 146T341 80Q341 41 315 15T247 -12Q206 -12 180 14T153 80ZM10 595Q53 641 115 671T245 702Q310 702 359 678T435 612T463 513Q463 478 452 447T414 386T334 319Q326 314
320 307T312 291T308 272L306 245H187L182 300Q179 335 190 360T226 402Q256 423 272 440T293 471T299 497Q299 512 291 525T266 547T225 555Q190 555 160 539T98 484L10 595Z" />
<glyph unicode="@" horiz-adv-x="1006" d="M45 255Q45 356 79 438T176 579T325 670T516 702Q619 702 701 673T841 588T930 452T961 270Q961 207 948 156T908 67T839 9T740 -12Q695 -12 662 1T606 40T572 103L565 152V395L584 495H730L722 446Q718 424 717 408T715
370V165Q715 132 727 115T763 98Q782 98 798 113T825 167T836 270Q836 339 817 398T758 500T659 568T520 592Q434 592 369 567T259 497T193 390T170 254Q170 177 193 115T260 7T368 -62T512 -87Q566 -87 619 -78T711 -55L750 -166Q701 -181 644 -189T513 -197Q401
-197 314 -164T167 -71T76 73T45 255ZM248 259Q248 340 274 395T344 478T444 507Q496 507 534 480T595 401T617 273L565 268Q565 310 556 336T530 376T489 389Q450 389 424 358T398 267Q398 226 407 199T434 158T475 144Q494 144 512 150T548 169T580 199V103Q561
75 538 54T486 20T425 8Q378 8 338 38T273 125T248 259Z" />
<glyph unicode="A" horiz-adv-x="656" d="M0 0L251 690H335L343 534L166 0H0ZM169 136V263H495V136H169ZM309 534L313 690H405L656 0H486L309 534Z" />
<glyph unicode="B" horiz-adv-x="654" d="M85 0V690H245V0H85ZM159 0V134H352Q392 134 416 153T441 211Q441 249 417 268T352 288H159V388H367Q438 388 491 364T574 295T604 190Q604 130 573 88T488 23T367 0H159ZM159 328V412H332Q370 412 393 430T416 484Q416
519 393 537T332 556H159V690H342Q407 690 460 668T543 604T574 505Q574 447 544 408T461 348T342 328H159Z" />
<glyph unicode="C" horiz-adv-x="653" d="M45 345Q45 429 72 495T147 607T256 677T387 702Q452 702 506 685T613 632L526 504Q495 525 459 538T382 552Q334 552 295 529T232 460T208 345Q208 276 231 230T295 161T383 138Q424 138 459 153T526 193L618 69Q567
29 512 9T389 -12Q320 -12 258 12T148 83T73 195T45 345Z" />
<glyph unicode="D" horiz-adv-x="724" d="M85 0V690H245V0H85ZM159 0V140H332Q387 140 428 162T493 231T516 345Q516 414 493 459T429 527T332 550H159V690H347Q441 690 516 649T635 531T679 345Q679 237 635 160T516 41T347 0H159Z" />
<glyph unicode="E" horiz-adv-x="635" d="M85 0V690H245V0H85ZM159 0V140H575V0H159ZM159 282V414H523V282H159ZM159 550V690H570V550H159Z" />
<glyph unicode="F" horiz-adv-x="595" d="M85 0V690H245V0H85ZM159 247V387H515V247H159ZM159 550V690H555V550H159Z" />
<glyph unicode="G" horiz-adv-x="703" d="M45 345Q45 429 72 495T147 607T256 677T387 702Q452 702 509 686T623 637L547 501Q511 526 473 540T391 554Q340 554 299 531T233 461T208 345Q208 276 232 228T297 154T390 128Q411 128 437 133T489 149L643 81Q582
35 519 12T383 -12Q316 -12 255 12T147 83T73 195T45 345ZM359 249V382H575V249H359ZM489 70V382H643V81L489 70Z" />
<glyph unicode="H" horiz-adv-x="754" d="M85 0V690H245V0H85ZM159 278V418H595V278H159ZM509 0V690H669V0H509Z" />
<glyph unicode="I" horiz-adv-x="470" d="M65 0V120H405V0H65ZM65 570V690H405V570H65ZM155 0V690H315V0H155Z" />
<glyph unicode="J" horiz-adv-x="569" d="M15 74L111 186Q128 162 156 147T218 131Q273 131 303 165T334 265V690H494V245Q494 163 458 106T360 18T223 -12Q159 -12 107 11T15 74ZM170 570V690H440V570H170Z" />
<glyph unicode="K" horiz-adv-x="675" d="M85 0V690H245V0H85ZM189 128V331L463 690H662L364 336L343 311L189 128ZM295 292L398 408L675 0H481L295 292Z" />
<glyph unicode="L" horiz-adv-x="590" d="M85 0V690H245V0H85ZM159 0V140H555V0H159Z" />
<glyph unicode="M" horiz-adv-x="854" d="M85 0V690H238V0H85ZM157 690H304L435 335V141H374L157 690ZM419 141V335L550 690H697L480 141H419ZM616 0V690H769V0H616Z" />
<glyph unicode="N" horiz-adv-x="759" d="M85 0V690H229V0H85ZM141 690H290L629 0H480L141 690ZM530 0V690H674V0H530Z" />
<glyph unicode="O" horiz-adv-x="744" d="M45 345Q45 429 70 495T141 607T245 677T372 702Q440 702 499 678T603 607T673 495T699 345Q699 261 674 195T603 83T499 13T373 -12Q305 -12 246 12T141 83T71 195T45 345ZM208 345Q208 291 220 251T255 184T307 144T372
131Q407 131 437 144T489 184T523 251T536 345Q536 399 524 439T489 506T437 546T372 559Q337 559 307 546T255 506T221 439T208 345Z" />
<glyph unicode="P" horiz-adv-x="654" d="M85 0V690H245V0H85ZM159 190V330H322Q380 330 415 357T451 440Q451 496 416 523T322 550H159V690H337Q415 690 478 660T577 575T614 440Q614 362 578 306T478 220T337 190H159Z" />
<glyph unicode="Q" horiz-adv-x="744" d="M415 10L540 60Q555 15 589 -3T680 -22V-172Q571 -172 506 -128T415 10ZM45 346Q45 457 89 536T208 659T372 702Q462 702 536 659T654 537T699 346Q699 234 655 154T536 31T372 -12Q282 -12 208 31T90 154T45 346ZM208
345Q208 273 229 226T288 155T372 131Q419 131 456 154T514 225T536 345Q536 417 515 464T456 535T372 559Q325 559 288 536T230 465T208 345Z" />
<glyph unicode="R" horiz-adv-x="659" d="M85 0V690H245V0H85ZM159 240V370H332Q381 370 411 392T441 460Q441 506 411 528T332 550H159V690H347Q420 690 478 663T570 584T604 460Q604 391 570 342T478 267T347 240H159ZM296 290H455L624 0H447L296 290Z" />
<glyph unicode="S" horiz-adv-x="638" d="M35 74L111 207Q155 171 213 149T326 126Q359 126 381 134T416 155T428 184Q428 198 418 213T380 244T299 277Q217 304 167 338T93 414T70 500Q70 555 99 601T187 674T330 702Q398 702 465 681T579 627L508 500Q467 529
418 547T317 566Q275 566 253 550T231 513Q231 498 242 484T281 456T356 426Q441 398 493 364T569 288T593 195Q593 140 562 93T468 17T309 -12Q262 -12 215 -2T123 28T35 74Z" />
<glyph unicode="T" horiz-adv-x="586" d="M25 550V690H561V550H25ZM213 0V690H373V0H213Z" />
<glyph unicode="U" horiz-adv-x="724" d="M75 275V690H235V295Q235 238 252 202T298 149T364 131Q401 131 430 148T476 202T493 295V690H649V275Q649 183 611 119T508 22T362 -12Q282 -12 217 21T113 119T75 275Z" />
<glyph unicode="V" horiz-adv-x="656" d="M0 690H170L347 156L343 0H251L0 690ZM313 156L490 690H656L405 0H321L313 156Z" />
<glyph unicode="W" horiz-adv-x="956" d="M0 690H168L300 167V0H205L0 690ZM267 167L414 690H513V548L356 0H267V167ZM443 548V690H546L692 167V0H598L443 548ZM660 167L792 690H956L750 0H660V167Z" />
<glyph unicode="X" horiz-adv-x="624" d="M5 0L244 384L301 458L430 690H609L381 323L324 250L184 0H5ZM15 690H199L357 421L619 0H435L269 282L15 690Z" />
<glyph unicode="Y" horiz-adv-x="656" d="M0 690H184L347 397L343 260H261L0 690ZM248 0V290H408V0H248ZM313 397L476 690H656L395 260H321L313 397Z" />
<glyph unicode="Z" horiz-adv-x="646" d="M55 105L463 690L581 585L173 0L55 105ZM55 0V105L114 140H591V0H55ZM65 550V690H581V585L523 550H65Z" />
<glyph unicode="[" horiz-adv-x="320" d="M85 -295V830H225V-295H85ZM85 -295V-175H370V-295H85ZM85 710V830H370V710H85Z" />
<glyph unicode="\" horiz-adv-x="394" d="M0 720H147L394 -30H247L0 720Z" />
<glyph unicode="]" horiz-adv-x="320" d="M-50 -295V-175H235V-295H-50ZM-50 710V830H235V710H-50ZM95 -295V830H235V-295H95Z" />
<glyph unicode="^" horiz-adv-x="600" d="M62 248L250 690H335L336 580L212 248H62ZM279 690H372L560 248H406L280 580L279 690Z" />
<glyph unicode="_" horiz-adv-x="456" d="M0 -121V0H456V-121H0Z" />
<glyph unicode="`" horiz-adv-x="0" d="M-184 735H-13L76 585H-45L-184 735Z" />
<glyph unicode="a" horiz-adv-x="557" d="M35 138Q35 187 61 225T142 286T280 312L370 315V230L290 226Q245 224 219 214T182 188T170 155Q170 129 187 115T230 100Q265 100 296 117T352 163V78Q328 38 286 13T190 -12Q148 -12 113 7T57 59T35 138ZM52 493Q90
510 144 523T259 537Q327 537 378 513T458 442T487 326V125Q487 104 488 88T494 49L502 0H356L337 100V318Q337 362 313 387T236 412Q194 412 158 401T92 375L52 493Z" />
<glyph unicode="b" horiz-adv-x="610" d="M60 0L68 49Q72 71 73 87T75 125V715L225 735V100L206 0H60ZM173 222L225 227Q225 186 235 159T265 119T311 106Q359 106 390 144T422 253Q422 303 410 336T376 385T325 401Q295 401 264 387T210 346V442Q240 484 281
510T375 537Q428 537 473 503T545 408T572 261Q572 173 543 112T464 20T351 -12Q299 -12 259 15T196 94T173 222Z" />
<glyph unicode="c" horiz-adv-x="497" d="M38 252Q38 339 73 403T169 502T311 537Q357 537 396 525T468 495L414 376Q395 390 369 398T315 407Q280 407 252 391T207 342T190 257Q190 212 207 182T253 136T321 120Q347 120 373 128T418 149L472 30Q439 12 396 0T299
-12Q221 -12 162 20T71 112T38 252Z" />
<glyph unicode="d" horiz-adv-x="610" d="M38 264Q38 353 67 413T146 505T259 537Q311 537 351 508T414 427T437 303L386 298Q386 340 376 366T346 406T299 419Q251 419 220 381T188 272Q188 222 200 189T234 140T285 124Q315 124 346 139T400 182V83Q370 41 329
15T235 -12Q182 -12 137 22T65 118T38 264ZM404 0L385 100V715L535 735V125Q535 104 536 88T542 49L550 0H404Z" />
<glyph unicode="e" horiz-adv-x="564" d="M38 252Q38 338 71 402T162 501T295 537Q367 537 419 505T500 415T529 274Q529 257 528 242T524 218H145V313H416L385 272Q385 349 361 384T292 420Q261 420 237 404T198 353T184 262Q184 209 203 176T255 126T334 110Q364
110 396 118T454 140L495 28Q459 12 415 0T317 -12Q229 -12 167 21T71 113T38 252Z" />
<glyph unicode="f" horiz-adv-x="391" d="M15 410V525H391V410H15ZM105 0V523Q105 588 128 635T194 707T298 732Q322 732 351 727T406 713L390 600Q374 605 358 607T326 610Q289 610 272 589T255 525V0H105Z" />
<glyph unicode="g" horiz-adv-x="610" d="M38 279Q38 363 67 420T145 507T255 537Q309 537 350 510T414 431T437 303L385 298Q385 340 375 366T345 406T299 419Q251 419 220 385T188 287Q188 245 200 217T234 175T285 161Q315 161 346 172T400 205V113Q370 71
329 51T240 30Q182 30 137 60T65 146T38 279ZM70 -157L106 -33Q136 -48 173 -58T247 -68Q312 -68 348 -35T385 72V425L404 525H550L542 476Q538 454 537 438T535 400V74Q535 -11 499 -72T401 -165T258 -197Q200 -197 154 -185T70 -157Z" />
<glyph unicode="h" horiz-adv-x="634" d="M75 0V715L225 735V0H75ZM210 346V442Q241 484 283 510T380 537Q427 537 469 514T537 444T564 326V0H414V303Q414 353 389 376T325 399Q295 399 264 386T210 346Z" />
<glyph unicode="i" horiz-adv-x="300" d="M75 0V525H225V0H75ZM64 676Q64 711 88 736T150 762Q188 762 212 737T236 676Q236 641 212 616T150 590Q112 590 88 615T64 676Z" />
<glyph unicode="j" horiz-adv-x="300" d="M-61 -181L-45 -57Q-29 -61 -18 -63T6 -66Q38 -66 56 -48T75 16V525H225V8Q225 -95 174 -146T36 -197Q13 -197 -14 -193T-61 -181ZM64 676Q64 711 88 736T150 762Q188 762 212 737T236 676Q236 641 212 616T150 590Q112
590 88 615T64 676Z" />
<glyph unicode="k" horiz-adv-x="575" d="M75 0V715L225 735V0H75ZM169 101V273L376 525H562L169 101ZM243 269L338 361L575 0H404L243 269Z" />
<glyph unicode="l" horiz-adv-x="300" d="M75 0V715L225 735V0H75Z" />
<glyph unicode="m" horiz-adv-x="935" d="M60 525H206L225 425V0H75V400Q75 421 74 437T68 476L60 525ZM210 343V442Q239 484 281 510T375 537Q421 537 459 515T521 446T545 331V0H395V308Q395 355 374 377T318 399Q290 399 261 385T210 343ZM516 440Q536 468
562 490T621 524T690 537Q737 537 777 515T841 446T865 331V0H715V308Q715 355 694 377T638 399Q610 399 581 385T530 343L516 440Z" />
<glyph unicode="n" horiz-adv-x="634" d="M60 525H206L225 425V0H75V400Q75 421 74 437T68 476L60 525ZM210 343V442Q241 484 283 510T380 537Q427 537 469 514T537 444T564 326V0H414V303Q414 336 403 357T371 389T325 399Q295 399 264 385T210 343Z" />
<glyph unicode="o" horiz-adv-x="592" d="M38 262Q38 347 71 408T162 503T296 537Q372 537 430 504T521 409T554 262Q554 178 521 117T430 22T296 -12Q221 -12 163 21T71 116T38 262ZM190 262Q190 209 203 175T240 125T296 109Q328 109 352 125T389 175T402 262Q402
315 389 349T352 399T296 416Q264 416 240 400T203 349T190 262Z" />
<glyph unicode="p" horiz-adv-x="610" d="M60 525H206L225 425V-180L75 -200V400Q75 421 74 437T68 476L60 525ZM173 222L225 227Q225 186 235 159T265 119T311 106Q359 106 390 144T422 253Q422 303 410 336T376 385T325 401Q295 401 264 386T210 343V442Q240
484 281 510T375 537Q428 537 473 503T545 408T572 261Q572 173 543 112T464 20T351 -12Q299 -12 259 17T196 98T173 222Z" />
<glyph unicode="q" horiz-adv-x="610" d="M38 264Q38 353 67 413T146 505T259 537Q311 537 351 510T414 431T437 303L385 298Q385 340 375 366T345 406T299 419Q251 419 220 381T188 272Q188 222 200 189T234 140T285 124Q315 124 346 139T400 179V83Q370 41 329
15T235 -12Q182 -12 137 22T65 118T38 264ZM385 -200V425L404 525H550L542 476Q538 454 537 438T535 400V-180L385 -200Z" />
<glyph unicode="r" horiz-adv-x="409" d="M60 525H206L225 420V0H75V400Q75 421 74 437T68 476L60 525ZM210 328V422Q241 476 287 506T387 537V389Q328 389 289 376T210 328Z" />
<glyph unicode="s" horiz-adv-x="485" d="M25 35L76 154Q108 135 149 122T230 108Q268 108 282 118T296 144Q296 154 290 162T269 177T230 192Q128 227 87 269T46 372Q46 418 71 455T144 515T260 537Q309 537 355 525T439 495L390 380Q360 395 322 406T252 417Q222
417 207 408T192 384Q192 374 198 366T221 350T266 332Q333 309 374 284T433 227T452 153Q452 104 424 67T344 9T222 -12Q164 -12 114 1T25 35Z" />
<glyph unicode="t" horiz-adv-x="432" d="M15 410V525H394V410H15ZM105 182V641L255 661V201Q255 158 272 141T322 124Q336 124 352 127T386 137L402 8Q377 -1 348 -6T290 -12Q233 -12 192 9T128 74T105 182Z" />
<glyph unicode="u" horiz-adv-x="628" d="M70 199V525H220V222Q220 173 243 150T306 126Q336 126 365 140T418 182V83Q387 41 346 15T251 -12Q205 -12 164 11T96 82T70 199ZM422 0L403 100V525H553V125Q553 104 554 88T560 49L568 0H422Z" />
<glyph unicode="v" horiz-adv-x="530" d="M0 525H162L294 110V0H196L0 525ZM242 110L372 525H530L334 0H242V110Z" />
<glyph unicode="w" horiz-adv-x="820" d="M20 525H180L286 107V0H184L20 525ZM230 107L350 525H436V362L316 0H230V107ZM384 362V525H474L596 107V0H504L384 362ZM540 107L644 525H800L636 0H540V107Z" />
<glyph unicode="x" horiz-adv-x="534" d="M5 0L199 287L260 361L355 525H519L335 255L276 184L169 0H5ZM15 525H189L309 326L311 323L529 0H355L227 211L225 214L15 525Z" />
<glyph unicode="y" horiz-adv-x="530" d="M0 525H164L296 110L297 0H204L0 525ZM19 -181L35 -60Q49 -64 62 -66T88 -69Q112 -69 131 -61T167 -28T204 47L240 110L370 525H530L326 0Q301 -64 273 -108T205 -174T106 -197Q85 -197 62 -193T19 -181Z" />
<glyph unicode="z" horiz-adv-x="501" d="M35 85L344 525L456 440L147 0L35 85ZM35 0V85L94 115H466V0H35ZM45 410V525H456V440L398 410H45Z" />
<glyph unicode="{" horiz-adv-x="363" d="M60 221V315Q111 324 137 336T172 365T182 404Q182 432 170 456T143 505T115 556T103 616Q103 687 157 741T322 813L348 730Q306 716 284 698T252 660T243 617Q243 589 252 565T274 515T296 463T306 400Q306 352 274 316T181
268Q241 256 273 221T306 137Q306 103 297 75T275 21T253 -29T243 -82Q243 -104 252 -124T283 -162T348 -195L322 -278Q212 -261 158 -207T103 -81Q103 -48 115 -21T142 31T170 79T182 132Q182 154 173 171T137 200T60 221Z" />
<glyph unicode="|" horiz-adv-x="310" d="M85 -215V720H225V-215H85Z" />
<glyph unicode="}" horiz-adv-x="363" d="M15 -195Q57 -180 80 -163T111 -125T120 -82Q120 -54 111 -29T89 21T67 74T57 137Q57 185 89 220T182 268Q122 280 90 316T57 400Q57 435 66 462T88 515T110 564T120 617Q120 640 112 660T80 698T15 730L41 813Q151 796
205 742T260 616Q260 583 248 556T221 505T193 457T181 404Q181 382 190 365T226 336T303 315V221Q252 213 226 201T191 171T181 132Q181 104 193 80T220 31T248 -20T260 -81Q260 -152 206 -206T41 -278L15 -195Z" />
<glyph unicode="~" horiz-adv-x="600" d="M76 290Q80 386 118 430T213 475Q245 475 270 463T316 436T357 408T397 396Q416 396 431 412T454 470H524Q520 374 482 330T387 285Q355 285 330 297T283 324T243 352T203 364Q184 364 170 348T146 290H76Z" />
<glyph unicode="&#xa0;" horiz-adv-x="250" />
<glyph unicode="&#xa1;" horiz-adv-x="358" d="M96 -185V0L122 265H236L262 0V-185H96ZM85 445Q85 484 111 510T179 537Q220 537 246 511T273 445Q273 405 247 379T179 353Q138 353 112 379T85 445Z" />
<glyph unicode="&#xa2;" horiz-adv-x="600" d="M272 -100V695H412V-100H272ZM43 297Q43 378 81 440T193 537T371 572Q427 572 476 558T576 518L515 400Q486 422 450 432T367 442Q288 442 245 404T201 299Q201 232 244 194T368 155Q414 155 450 166T515 197L581
85Q532 54 482 39T373 23Q268 23 194 58T82 155T43 297Z" />
<glyph unicode="&#xa3;" horiz-adv-x="600" d="M66 0V140H574V0H66ZM66 75V140Q91 150 111 166T144 206T156 260Q156 290 151 314T137 361T124 410T118 469Q118 537 152 589T246 672T386 702Q448 702 499 684T590 627L513 504Q488 532 456 545T387 559Q335 559
306 535T276 469Q276 425 285 393T302 331T311 260Q311 209 278 167T190 100T66 75ZM56 278V388H466V278H56Z" />
<glyph unicode="&#xa4;" horiz-adv-x="600" d="M75 345Q75 421 104 474T183 556T300 585Q366 585 416 557T496 475T525 345Q525 269 496 216T417 134T300 105Q234 105 184 133T104 215T75 345ZM205 345Q205 309 216 283T249 244T300 230Q330 230 351 243T383 283T395
345Q395 382 384 407T351 446T300 460Q271 460 250 447T217 408T205 345ZM24 166L99 241L196 144L121 69L24 166ZM404 144L501 241L576 166L479 69L404 144ZM24 524L121 621L196 546L99 449L24 524ZM404 546L479 621L576 524L501 449L404 546Z" />
<glyph unicode="&#xa5;" horiz-adv-x="600" d="M-8 690H174L319 397L317 260H233L-8 690ZM220 0V290H380V0H220ZM285 397L430 690H608L367 260H291L285 397ZM57 81V191H547V81H57ZM57 251V361H547V251H57Z" />
<glyph unicode="&#xa6;" horiz-adv-x="310" d="M85 -215V150H225V-215H85ZM85 355V720H225V355H85Z" />
<glyph unicode="&#xa7;" horiz-adv-x="620" d="M30 -122L101 5Q129 -14 160 -29T224 -52T292 -61Q320 -61 339 -54T368 -34T378 -8Q378 6 370 17T337 40T266 65Q184 88 133 118T59 188T36 275Q36 339 74 385T180 448L283 365Q250 360 227 348T193 321T181 288Q181
272 190 257T226 226T310 195Q383 175 434 148T512 83T539 -5Q539 -55 510 -99T423 -170T279 -197Q234 -197 188 -187T102 -160T30 -122ZM81 510Q81 560 110 604T198 675T341 702Q409 702 476 681T590 627L519 500Q478 529 429 547T328 566Q286 566 264 550T242
513Q242 500 250 488T283 465T354 440Q437 418 487 387T561 317T584 230Q584 188 567 153T517 94T440 57L337 140Q387 148 413 170T439 217Q439 234 430 249T394 279T310 310Q237 330 186 357T108 422T81 510Z" />
<glyph unicode="&#xa8;" horiz-adv-x="0" d="M-181 650Q-181 684 -160 704T-104 725Q-69 725 -48 705T-27 650Q-27 616 -48 596T-104 575Q-138 575 -159 595T-181 650ZM27 650Q27 684 48 704T104 725Q139 725 160 705T181 650Q181 616 160 596T104 575Q70 575
49 595T27 650Z" />
<glyph unicode="&#xa9;" horiz-adv-x="810" d="M405 -10Q330 -10 266 17T153 92T77 205T50 345Q50 420 77 484T152 597T265 673T405 700Q480 700 544 673T657 598T733 485T760 345Q760 270 733 206T658 93T545 17T405 -10ZM405 60Q465 60 516 82T606 142T666 233T688
345Q688 405 667 457T607 547T517 608T405 630Q345 630 294 608T204 548T144 457T122 345Q122 285 143 233T203 143T293 82T405 60ZM220 345Q220 413 246 459T316 530T410 555Q450 555 482 541T542 500L475 419Q450 445 415 445Q384 445 362 418T340 345Q340 300
362 273T415 245Q434 245 450 252T478 273L547 191Q520 164 487 150T410 135Q360 135 317 159T247 231T220 345Z" />
<glyph unicode="&#xaa;" horiz-adv-x="440" d="M40 394Q40 429 59 460T124 511T245 534L295 536V464L249 460Q212 457 191 449T160 429T150 405Q150 386 162 376T195 365Q225 365 251 382T301 430V355Q278 321 242 300T161 278Q112 278 76 309T40 394ZM45 654Q75
672 117 687T205 702Q285 702 334 661T383 540V386Q383 370 384 356T388 325L395 290H285L268 354V530Q268 565 249 583T195 602Q167 602 138 591T85 566L45 654Z" />
<glyph unicode="&#xab;" horiz-adv-x="546" d="M30 239V310L150 298L289 88H127L30 239ZM30 241V312L127 463H289L150 253L30 241ZM277 239V310L397 298L536 88H374L277 239ZM277 241V312L374 463H536L397 253L277 241Z" />
<glyph unicode="&#xac;" horiz-adv-x="600" d="M62 223V357H538V223H62ZM398 55V357H538V55H398Z" />
<glyph unicode="&#xad;" horiz-adv-x="0" />
<glyph unicode="&#xae;" horiz-adv-x="810" d="M405 -10Q330 -10 266 17T153 92T77 205T50 345Q50 420 77 484T152 597T265 673T405 700Q480 700 544 673T657 598T733 485T760 345Q760 270 733 206T658 93T545 17T405 -10ZM405 60Q465 60 516 82T606 142T666 233T688
345Q688 405 667 457T607 547T517 608T405 630Q345 630 294 608T204 548T144 457T122 345Q122 285 143 233T203 143T293 82T405 60ZM248 138V552H358V138H248ZM300 274V362H400Q424 362 439 375T455 413Q455 437 440 449T400 462H300V552H409Q452 552 487 536T544
489T565 413Q565 368 544 337T488 290T409 274H300ZM376 312H482L578 138H456L376 312Z" />
<glyph unicode="&#xaf;" horiz-adv-x="0" d="M-170 585V697H170V585H-170Z" />
<glyph unicode="&#xb0;" horiz-adv-x="404" d="M30 532Q30 580 53 618T115 679T202 702Q251 702 289 680T351 619T374 532Q374 484 351 446T290 385T202 362Q154 362 115 384T53 445T30 532ZM130 532Q130 500 150 478T202 456Q234 456 254 478T274 532Q274 564
254 586T203 608Q171 608 151 586T130 532Z" />
<glyph unicode="&#xb1;" horiz-adv-x="600" d="M62 55V189H538V55H62ZM62 272V406H538V272H62ZM230 55V525H370V55H230Z" />
<glyph unicode="&#xb2;" horiz-adv-x="440" d="M65 290V360L117 380H365V290H65ZM65 360L185 480Q215 510 230 528T245 565Q245 584 232 595T195 607Q171 607 150 593T111 560L55 635Q89 665 127 683T211 702Q274 702 314 668T355 580Q355 538 330 503T255 420L120
290L65 360Z" />
<glyph unicode="&#xb3;" horiz-adv-x="440" d="M55 332L110 410Q129 391 151 380T200 368Q215 368 227 373T247 389T255 415Q255 438 240 449T191 460H130V515L170 535H211Q278 535 321 503T365 415Q365 370 343 340T284 294T205 278Q159 278 122 291T55 332ZM71
600V690H346V620L317 600H71ZM130 515L300 690L346 620L240 515H130Z" />
<glyph unicode="&#xb4;" horiz-adv-x="0" d="M-66 585L23 735H194L55 585H-66Z" />
<glyph unicode="&#xb5;" horiz-adv-x="628" d="M70 -185V525H220V222Q220 173 243 150T306 126Q336 126 365 140T418 182V83Q393 42 355 15T270 -12Q203 -12 172 41T140 200H180L220 -185H70ZM403 132V525H553V147Q553 131 559 125T576 118Q581 118 585 119T594
121V0Q581 -5 564 -8T530 -12Q484 -12 452 12T414 94L403 132Z" />
<glyph unicode="&#xb6;" horiz-adv-x="804" d="M45 430Q45 510 78 568T169 658T303 690H479V-215H339V171H303Q228 171 170 202T78 292T45 430ZM579 -215V690H719V-215H579Z" />
<glyph unicode="&#xb7;" horiz-adv-x="278" d="M45 283Q45 323 71 349T139 375Q180 375 206 349T233 283Q233 244 207 218T139 191Q98 191 72 217T45 283Z" />
<glyph unicode="&#xb8;" horiz-adv-x="600" d="M220 -228L234 -168Q280 -168 294 -157T308 -129Q308 -115 298 -106T262 -95L242 -93L264 15L338 9L327 -50Q371 -58 389 -78T408 -127Q408 -155 393 -178T345 -214T256 -228H220Z" />
<glyph unicode="&#xb9;" horiz-adv-x="440" d="M80 290V375H380V290H80ZM65 630L200 690L245 615L100 550L65 630ZM174 290V637L200 690H284V290H174Z" />
<glyph unicode="&#xba;" horiz-adv-x="480" d="M45 490Q45 560 71 607T142 678T240 702Q294 702 338 678T409 607T435 490Q435 420 409 373T339 302T240 278Q186 278 142 302T72 373T45 490ZM160 490Q160 433 183 406T240 378Q274 378 297 405T320 490Q320 547
297 574T240 602Q206 602 183 575T160 490Z" />
<glyph unicode="&#xbb;" horiz-adv-x="546" d="M10 88L149 298L269 310V239L172 88H10ZM10 463H172L269 312V241L149 253L10 463ZM257 88L396 298L516 310V239L419 88H257ZM257 463H419L516 312V241L396 253L257 463Z" />
<glyph unicode="&#xbc;" horiz-adv-x="900" d="M528 127L687 398H777L581 57L528 127ZM528 57V127L559 150H890V57H528ZM723 0V398H829V0H723ZM25 290V375H325V290H25ZM10 630L145 690L190 615L45 550L10 630ZM119 290V637L145 690H229V290H119ZM203 0L623 690H783L363
0H203Z" />
<glyph unicode="&#xbd;" horiz-adv-x="899" d="M281 290V375H581V290H281ZM266 630L401 690L446 615L301 550L266 630ZM375 290V637L401 690H485V290H375ZM175 0L595 690H755L335 0H175ZM589 0V70L641 90H889V0H589ZM589 70L709 190Q739 220 754 238T769 275Q769
294 756 305T719 317Q695 317 674 303T635 270L579 345Q613 375 651 393T735 412Q798 412 838 378T879 290Q879 248 854 213T779 130L644 0L589 70Z" />
<glyph unicode="&#xbe;" horiz-adv-x="808" d="M436 127L595 398H685L489 57L436 127ZM436 57V127L467 150H798V57H436ZM631 0V398H737V0H631ZM10 332L65 410Q84 391 106 380T155 368Q170 368 182 373T202 389T210 415Q210 438 195 449T146 460H85V515L125 535H166Q233
535 276 503T320 415Q320 370 298 340T239 294T160 278Q114 278 77 291T10 332ZM26 600V690H301V620L272 600H26ZM85 515L255 690L301 620L195 515H85ZM132 0L552 690H712L292 0H132Z" />
<glyph unicode="&#xbf;" horiz-adv-x="518" d="M55 -8Q55 27 66 58T105 120T184 186Q193 192 198 199T207 215T210 233L212 280H331L338 205Q341 170 329 145T292 103Q262 82 247 65T225 34T219 8Q219 -7 227 -20T252 -41T293 -50Q328 -50 358 -33T420 21L508
-90Q465 -136 403 -166T273 -197Q209 -197 160 -173T83 -107T55 -8ZM177 445Q177 484 203 510T271 537Q312 537 338 511T365 445Q365 405 339 379T271 353Q230 353 204 379T177 445Z" />
<glyph unicode="&#xc0;" horiz-adv-x="656" d="M0 0L251 690H335L343 534L166 0H0ZM169 136V263H495V136H169ZM309 534L313 690H405L656 0H486L309 534ZM143 900H314L403 750H282L143 900Z" />
<glyph unicode="&#xc1;" horiz-adv-x="656" d="M0 0L251 690H335L343 534L166 0H0ZM169 136V263H495V136H169ZM309 534L313 690H405L656 0H486L309 534ZM261 750L350 900H521L382 750H261Z" />
<glyph unicode="&#xc2;" horiz-adv-x="656" d="M0 0L251 690H335L343 534L166 0H0ZM169 136V263H495V136H169ZM309 534L313 690H405L656 0H486L309 534ZM152 750L254 900H398L273 750H152ZM256 900H400L502 750H381L256 900Z" />
<glyph unicode="&#xc3;" horiz-adv-x="656" d="M0 0L251 690H335L343 534L166 0H0ZM169 136V263H495V136H169ZM309 534L313 690H405L656 0H486L309 534ZM171 750Q174 817 200 853T270 890Q290 890 306 884T335 868T360 853T383 846Q394 846 402 854T413 885H483Q480
818 454 782T384 745Q364 745 348 751T319 767T294 782T271 789Q261 789 253 781T241 750H171Z" />
<glyph unicode="&#xc4;" horiz-adv-x="656" d="M0 0L251 690H335L343 534L166 0H0ZM169 136V263H495V136H169ZM309 534L313 690H405L656 0H486L309 534ZM146 815Q146 849 167 869T223 890Q258 890 279 870T300 815Q300 781 279 761T223 740Q189 740 168 760T146
815ZM354 815Q354 849 375 869T431 890Q466 890 487 870T508 815Q508 781 487 761T431 740Q397 740 376 760T354 815Z" />
<glyph unicode="&#xc5;" horiz-adv-x="656" d="M0 0L251 690H335L343 534L166 0H0ZM169 136V263H495V136H169ZM309 534L313 690H405L656 0H486L309 534ZM218 767Q218 813 249 844T327 876Q373 876 405 845T437 767Q437 720 405 688T327 655Q281 655 250 687T218
767ZM289 766Q289 747 299 735T327 723Q345 723 355 735T365 766Q365 785 355 796T327 808Q310 808 300 797T289 766Z" />
<glyph unicode="&#xc6;" horiz-adv-x="975" d="M0 0L275 690H360L390 590L170 0H0ZM169 136V263H495V136H169ZM425 0V690H585V0H425ZM499 0V140H915V0H499ZM499 282V414H863V282H499ZM330 550V690H910V550H330Z" />
<glyph unicode="&#xc7;" horiz-adv-x="653" d="M45 345Q45 429 72 495T147 607T256 677T387 702Q452 702 506 685T613 632L526 504Q495 525 459 538T382 552Q334 552 295 529T232 460T208 345Q208 276 231 230T295 161T383 138Q424 138 459 153T526 193L618 69Q567
29 512 9T389 -12Q320 -12 258 12T148 83T73 195T45 345ZM297 -228L311 -168Q357 -168 371 -157T385 -129Q385 -115 375 -106T339 -95L319 -93L341 15L415 9L404 -50Q448 -57 466 -78T485 -127Q485 -155 470 -178T422 -214T333 -228H297Z" />
<glyph unicode="&#xc8;" horiz-adv-x="635" d="M85 0V690H245V0H85ZM159 0V140H575V0H159ZM159 282V414H523V282H159ZM159 550V690H570V550H159ZM144 900H315L404 750H283L144 900Z" />
<glyph unicode="&#xc9;" horiz-adv-x="635" d="M85 0V690H245V0H85ZM159 0V140H575V0H159ZM159 282V414H523V282H159ZM159 550V690H570V550H159ZM262 750L351 900H522L383 750H262Z" />
<glyph unicode="&#xca;" horiz-adv-x="635" d="M85 0V690H245V0H85ZM159 0V140H575V0H159ZM159 282V414H523V282H159ZM159 550V690H570V550H159ZM153 750L255 900H399L274 750H153ZM257 900H401L503 750H382L257 900Z" />
<glyph unicode="&#xcb;" horiz-adv-x="635" d="M85 0V690H245V0H85ZM159 0V140H575V0H159ZM159 282V414H523V282H159ZM159 550V690H570V550H159ZM147 815Q147 849 168 869T224 890Q259 890 280 870T301 815Q301 781 280 761T224 740Q190 740 169 760T147 815ZM355
815Q355 849 376 869T432 890Q467 890 488 870T509 815Q509 781 488 761T432 740Q398 740 377 760T355 815Z" />
<glyph unicode="&#xcc;" horiz-adv-x="470" d="M65 0V120H405V0H65ZM65 570V690H405V570H65ZM155 0V690H315V0H155ZM51 900H222L311 750H190L51 900Z" />
<glyph unicode="&#xcd;" horiz-adv-x="470" d="M65 0V120H405V0H65ZM65 570V690H405V570H65ZM155 0V690H315V0H155ZM169 750L258 900H429L290 750H169Z" />
<glyph unicode="&#xce;" horiz-adv-x="470" d="M65 0V120H405V0H65ZM65 570V690H405V570H65ZM155 0V690H315V0H155ZM60 750L162 900H306L181 750H60ZM164 900H308L410 750H289L164 900Z" />
<glyph unicode="&#xcf;" horiz-adv-x="470" d="M65 0V120H405V0H65ZM65 570V690H405V570H65ZM155 0V690H315V0H155ZM54 815Q54 849 75 869T131 890Q166 890 187 870T208 815Q208 781 187 761T131 740Q97 740 76 760T54 815ZM262 815Q262 849 283 869T339 890Q374
890 395 870T416 815Q416 781 395 761T339 740Q305 740 284 760T262 815Z" />
<glyph unicode="&#xd0;" horiz-adv-x="729" d="M35 273V407H381V273H35ZM90 0V690H250V0H90ZM164 0V140H337Q392 140 433 162T498 231T521 345Q521 414 498 459T434 527T337 550H164V690H352Q446 690 521 649T640 531T684 345Q684 237 640 160T521 41T352 0H164Z" />
<glyph unicode="&#xd1;" horiz-adv-x="759" d="M85 0V690H229V0H85ZM141 690H290L629 0H480L141 690ZM530 0V690H674V0H530ZM241 750Q244 817 270 853T340 890Q360 890 376 884T405 868T430 853T453 846Q464 846 472 854T483 885H553Q550 818 524 782T454 745Q434
745 418 751T389 767T364 782T341 789Q331 789 323 781T311 750H241Z" />
<glyph unicode="&#xd2;" horiz-adv-x="744" d="M45 345Q45 429 70 495T141 607T245 677T372 702Q440 702 499 678T603 607T673 495T699 345Q699 261 674 195T603 83T499 13T373 -12Q305 -12 246 12T141 83T71 195T45 345ZM208 345Q208 291 220 251T255 184T307
144T372 131Q407 131 437 144T489 184T523 251T536 345Q536 399 524 439T489 506T437 546T372 559Q337 559 307 546T255 506T221 439T208 345ZM188 900H359L448 750H327L188 900Z" />
<glyph unicode="&#xd3;" horiz-adv-x="744" d="M45 345Q45 429 70 495T141 607T245 677T372 702Q440 702 499 678T603 607T673 495T699 345Q699 261 674 195T603 83T499 13T373 -12Q305 -12 246 12T141 83T71 195T45 345ZM208 345Q208 291 220 251T255 184T307
144T372 131Q407 131 437 144T489 184T523 251T536 345Q536 399 524 439T489 506T437 546T372 559Q337 559 307 546T255 506T221 439T208 345ZM306 750L395 900H566L427 750H306Z" />
<glyph unicode="&#xd4;" horiz-adv-x="744" d="M45 345Q45 429 70 495T141 607T245 677T372 702Q440 702 499 678T603 607T673 495T699 345Q699 261 674 195T603 83T499 13T373 -12Q305 -12 246 12T141 83T71 195T45 345ZM208 345Q208 291 220 251T255 184T307
144T372 131Q407 131 437 144T489 184T523 251T536 345Q536 399 524 439T489 506T437 546T372 559Q337 559 307 546T255 506T221 439T208 345ZM197 750L299 900H443L318 750H197ZM301 900H445L547 750H426L301 900Z" />
<glyph unicode="&#xd5;" horiz-adv-x="744" d="M45 345Q45 429 70 495T141 607T245 677T372 702Q440 702 499 678T603 607T673 495T699 345Q699 261 674 195T603 83T499 13T373 -12Q305 -12 246 12T141 83T71 195T45 345ZM208 345Q208 291 220 251T255 184T307
144T372 131Q407 131 437 144T489 184T523 251T536 345Q536 399 524 439T489 506T437 546T372 559Q337 559 307 546T255 506T221 439T208 345ZM216 750Q219 817 245 853T315 890Q335 890 351 884T380 868T405 853T428 846Q439 846 447 854T458 885H528Q525 818
499 782T429 745Q409 745 393 751T364 767T339 782T316 789Q306 789 298 781T286 750H216Z" />
<glyph unicode="&#xd6;" horiz-adv-x="744" d="M45 345Q45 429 70 495T141 607T245 677T372 702Q440 702 499 678T603 607T673 495T699 345Q699 261 674 195T603 83T499 13T373 -12Q305 -12 246 12T141 83T71 195T45 345ZM208 345Q208 291 220 251T255 184T307
144T372 131Q407 131 437 144T489 184T523 251T536 345Q536 399 524 439T489 506T437 546T372 559Q337 559 307 546T255 506T221 439T208 345ZM191 815Q191 849 212 869T268 890Q303 890 324 870T345 815Q345 781 324 761T268 740Q234 740 213 760T191 815ZM399
815Q399 849 420 869T476 890Q511 890 532 870T553 815Q553 781 532 761T476 740Q442 740 421 760T399 815Z" />
<glyph unicode="&#xd7;" horiz-adv-x="600" d="M63 428L162 527L537 152L438 53L63 428ZM63 148L442 527L537 432L158 53L63 148Z" />
<glyph unicode="&#xd8;" horiz-adv-x="744" d="M25 70L634 702L719 620L110 -12L25 70ZM45 345Q45 429 70 495T141 607T245 677T372 702Q440 702 499 678T603 607T673 495T699 345Q699 261 674 195T603 83T499 13T373 -12Q305 -12 246 12T141 83T71 195T45 345ZM208
345Q208 291 220 251T255 184T307 144T372 131Q407 131 437 144T489 184T523 251T536 345Q536 399 524 439T489 506T437 546T372 559Q337 559 307 546T255 506T221 439T208 345Z" />
<glyph unicode="&#xd9;" horiz-adv-x="724" d="M75 275V690H235V295Q235 238 252 202T298 149T364 131Q401 131 430 148T476 202T493 295V690H649V275Q649 183 611 119T508 22T362 -12Q282 -12 217 21T113 119T75 275ZM180 900H351L440 750H319L180 900Z" />
<glyph unicode="&#xda;" horiz-adv-x="724" d="M75 275V690H235V295Q235 238 252 202T298 149T364 131Q401 131 430 148T476 202T493 295V690H649V275Q649 183 611 119T508 22T362 -12Q282 -12 217 21T113 119T75 275ZM298 750L387 900H558L419 750H298Z" />
<glyph unicode="&#xdb;" horiz-adv-x="724" d="M75 275V690H235V295Q235 238 252 202T298 149T364 131Q401 131 430 148T476 202T493 295V690H649V275Q649 183 611 119T508 22T362 -12Q282 -12 217 21T113 119T75 275ZM189 750L291 900H435L310 750H189ZM293 900H437L539
750H418L293 900Z" />
<glyph unicode="&#xdc;" horiz-adv-x="724" d="M75 275V690H235V295Q235 238 252 202T298 149T364 131Q401 131 430 148T476 202T493 295V690H649V275Q649 183 611 119T508 22T362 -12Q282 -12 217 21T113 119T75 275ZM183 815Q183 849 204 869T260 890Q295 890
316 870T337 815Q337 781 316 761T260 740Q226 740 205 760T183 815ZM391 815Q391 849 412 869T468 890Q503 890 524 870T545 815Q545 781 524 761T468 740Q434 740 413 760T391 815Z" />
<glyph unicode="&#xdd;" horiz-adv-x="656" d="M0 690H184L347 397L343 260H261L0 690ZM248 0V290H408V0H248ZM313 397L476 690H656L395 260H321L313 397ZM263 750L352 900H523L384 750H263Z" />
<glyph unicode="&#xde;" horiz-adv-x="654" d="M85 0V690H245V0H85ZM159 100V240H332Q385 240 418 266T451 345Q451 398 418 424T332 450H159V590H347Q422 590 482 561T578 477T614 345Q614 268 579 213T483 129T347 100H159Z" />
<glyph unicode="&#xdf;" horiz-adv-x="615" d="M75 0V502Q75 579 102 630T178 706T295 732Q358 732 405 709T478 643T505 540Q505 500 491 467T455 407T410 360L455 335Q526 295 553 254T580 160Q580 110 556 71T488 10T390 -12Q345 -12 309 1T250 30L295 136Q314
124 333 116T375 108Q393 108 405 114T423 133T430 160Q430 183 415 202T365 240L270 290V400Q300 425 320 447T350 492T360 540Q360 570 343 586T295 602Q265 602 245 578T225 500V0H75Z" />
<glyph unicode="&#xe0;" horiz-adv-x="557" d="M35 138Q35 187 61 225T142 286T280 312L370 315V230L290 226Q245 224 219 214T182 188T170 155Q170 129 187 115T230 100Q265 100 296 117T352 163V78Q328 38 286 13T190 -12Q148 -12 113 7T57 59T35 138ZM52 493Q90
510 144 523T259 537Q327 537 378 513T458 442T487 326V125Q487 104 488 88T494 49L502 0H356L337 100V318Q337 362 313 387T236 412Q194 412 158 401T92 375L52 493ZM80 735H251L340 585H219L80 735Z" />
<glyph unicode="&#xe1;" horiz-adv-x="557" d="M35 138Q35 187 61 225T142 286T280 312L370 315V230L290 226Q245 224 219 214T182 188T170 155Q170 129 187 115T230 100Q265 100 296 117T352 163V78Q328 38 286 13T190 -12Q148 -12 113 7T57 59T35 138ZM52 493Q90
510 144 523T259 537Q327 537 378 513T458 442T487 326V125Q487 104 488 88T494 49L502 0H356L337 100V318Q337 362 313 387T236 412Q194 412 158 401T92 375L52 493ZM198 585L287 735H458L319 585H198Z" />
<glyph unicode="&#xe2;" horiz-adv-x="557" d="M35 138Q35 187 61 225T142 286T280 312L370 315V230L290 226Q245 224 219 214T182 188T170 155Q170 129 187 115T230 100Q265 100 296 117T352 163V78Q328 38 286 13T190 -12Q148 -12 113 7T57 59T35 138ZM52 493Q90
510 144 523T259 537Q327 537 378 513T458 442T487 326V125Q487 104 488 88T494 49L502 0H356L337 100V318Q337 362 313 387T236 412Q194 412 158 401T92 375L52 493ZM89 585L191 735H335L210 585H89ZM193 735H337L439 585H318L193 735Z" />
<glyph unicode="&#xe3;" horiz-adv-x="557" d="M35 138Q35 187 61 225T142 286T280 312L370 315V230L290 226Q245 224 219 214T182 188T170 155Q170 129 187 115T230 100Q265 100 296 117T352 163V78Q328 38 286 13T190 -12Q148 -12 113 7T57 59T35 138ZM52 493Q90
510 144 523T259 537Q327 537 378 513T458 442T487 326V125Q487 104 488 88T494 49L502 0H356L337 100V318Q337 362 313 387T236 412Q194 412 158 401T92 375L52 493ZM108 585Q111 652 137 688T207 725Q227 725 243 719T272 703T297 688T320 681Q331 681 339 689T350
720H420Q417 653 391 617T321 580Q301 580 285 586T256 602T231 617T208 624Q198 624 190 616T178 585H108Z" />
<glyph unicode="&#xe4;" horiz-adv-x="557" d="M35 138Q35 187 61 225T142 286T280 312L370 315V230L290 226Q245 224 219 214T182 188T170 155Q170 129 187 115T230 100Q265 100 296 117T352 163V78Q328 38 286 13T190 -12Q148 -12 113 7T57 59T35 138ZM52 493Q90
510 144 523T259 537Q327 537 378 513T458 442T487 326V125Q487 104 488 88T494 49L502 0H356L337 100V318Q337 362 313 387T236 412Q194 412 158 401T92 375L52 493ZM83 650Q83 684 104 704T160 725Q195 725 216 705T237 650Q237 616 216 596T160 575Q126 575
105 595T83 650ZM291 650Q291 684 312 704T368 725Q403 725 424 705T445 650Q445 616 424 596T368 575Q334 575 313 595T291 650Z" />
<glyph unicode="&#xe5;" horiz-adv-x="557" d="M35 138Q35 187 61 225T142 286T280 312L370 315V230L290 226Q245 224 219 214T182 188T170 155Q170 129 187 115T230 100Q265 100 296 117T352 163V78Q328 38 286 13T190 -12Q148 -12 113 7T57 59T35 138ZM52 493Q90
510 144 523T259 537Q327 537 378 513T458 442T487 326V125Q487 104 488 88T494 49L502 0H356L337 100V318Q337 362 313 387T236 412Q194 412 158 401T92 375L52 493ZM155 687Q155 733 186 764T264 796Q310 796 342 765T374 687Q374 640 342 608T264 575Q218 575
187 607T155 687ZM226 686Q226 667 236 655T264 643Q282 643 292 655T302 686Q302 705 292 716T264 728Q247 728 237 717T226 686Z" />
<glyph unicode="&#xe6;" horiz-adv-x="856" d="M35 138Q35 187 61 225T142 286T280 312L370 315V230L290 226Q245 224 219 214T182 188T170 155Q170 129 187 115T230 100Q265 100 296 117T352 163L420 100Q380 54 326 21T200 -12Q153 -12 116 7T57 59T35 138ZM52
493Q90 510 144 523T259 537Q327 537 375 513T450 442T477 326V280H338V318Q338 362 313 386T236 411Q209 411 184 405T136 391T93 372L52 493ZM338 252Q338 338 368 402T455 501T587 537Q659 537 711 505T792 415T821 274Q821 257 820 242T816 218H437V313H708L677
272Q677 349 653 384T584 420Q538 420 507 383T475 262Q475 210 493 177T545 127T626 110Q656 110 688 118T746 140L787 28Q751 12 707 0T609 -12Q519 -12 459 21T368 113T338 252Z" />
<glyph unicode="&#xe7;" horiz-adv-x="497" d="M38 252Q38 339 73 403T169 502T311 537Q357 537 396 525T468 495L414 376Q395 390 369 398T315 407Q280 407 252 391T207 342T190 257Q190 212 207 182T253 136T321 120Q347 120 373 128T418 149L472 30Q439 12
396 0T299 -12Q221 -12 162 20T71 112T38 252ZM209 -228L223 -168Q269 -168 283 -157T297 -129Q297 -115 287 -106T251 -95L231 -93L253 15L327 9L316 -50Q360 -57 378 -78T397 -127Q397 -155 382 -178T334 -214T245 -228H209Z" />
<glyph unicode="&#xe8;" horiz-adv-x="564" d="M38 252Q38 338 71 402T162 501T295 537Q367 537 419 505T500 415T529 274Q529 257 528 242T524 218H145V313H416L385 272Q385 349 361 384T292 420Q261 420 237 404T198 353T184 262Q184 209 203 176T255 126T334
110Q364 110 396 118T454 140L495 28Q459 12 415 0T317 -12Q229 -12 167 21T71 113T38 252ZM111 735H282L371 585H250L111 735Z" />
<glyph unicode="&#xe9;" horiz-adv-x="564" d="M38 252Q38 338 71 402T162 501T295 537Q367 537 419 505T500 415T529 274Q529 257 528 242T524 218H145V313H416L385 272Q385 349 361 384T292 420Q261 420 237 404T198 353T184 262Q184 209 203 176T255 126T334
110Q364 110 396 118T454 140L495 28Q459 12 415 0T317 -12Q229 -12 167 21T71 113T38 252ZM229 585L318 735H489L350 585H229Z" />
<glyph unicode="&#xea;" horiz-adv-x="564" d="M38 252Q38 338 71 402T162 501T295 537Q367 537 419 505T500 415T529 274Q529 257 528 242T524 218H145V313H416L385 272Q385 349 361 384T292 420Q261 420 237 404T198 353T184 262Q184 209 203 176T255 126T334
110Q364 110 396 118T454 140L495 28Q459 12 415 0T317 -12Q229 -12 167 21T71 113T38 252ZM120 585L222 735H366L241 585H120ZM224 735H368L470 585H349L224 735Z" />
<glyph unicode="&#xeb;" horiz-adv-x="564" d="M38 252Q38 338 71 402T162 501T295 537Q367 537 419 505T500 415T529 274Q529 257 528 242T524 218H145V313H416L385 272Q385 349 361 384T292 420Q261 420 237 404T198 353T184 262Q184 209 203 176T255 126T334
110Q364 110 396 118T454 140L495 28Q459 12 415 0T317 -12Q229 -12 167 21T71 113T38 252ZM114 650Q114 684 135 704T191 725Q226 725 247 705T268 650Q268 616 247 596T191 575Q157 575 136 595T114 650ZM322 650Q322 684 343 704T399 725Q434 725 455 705T476
650Q476 616 455 596T399 575Q365 575 344 595T322 650Z" />
<glyph unicode="&#xec;" horiz-adv-x="300" d="M75 0V525H225V0H75ZM-34 735H137L226 585H105L-34 735Z" />
<glyph unicode="&#xed;" horiz-adv-x="300" d="M75 0V525H225V0H75ZM84 585L173 735H344L205 585H84Z" />
<glyph unicode="&#xee;" horiz-adv-x="300" d="M75 0V525H225V0H75ZM-25 585L77 735H221L96 585H-25ZM79 735H223L325 585H204L79 735Z" />
<glyph unicode="&#xef;" horiz-adv-x="300" d="M75 0V525H225V0H75ZM-31 650Q-31 684 -10 704T46 725Q81 725 102 705T123 650Q123 616 102 596T46 575Q12 575 -9 595T-31 650ZM177 650Q177 684 198 704T254 725Q289 725 310 705T331 650Q331 616 310 596T254
575Q220 575 199 595T177 650Z" />
<glyph unicode="&#xf0;" horiz-adv-x="580" d="M45 235Q45 315 77 370T158 453T260 482Q300 482 330 467T383 429T420 380L400 280Q381 319 352 339T286 360Q260 360 238 346T203 303T190 235Q190 175 218 143T286 110Q314 110 335 128T368 185T380 280Q380 340
359 399T300 515T211 623T100 720H280Q325 690 369 643T450 538T508 414T530 280Q530 183 497 118T409 21T286 -12Q221 -12 166 16T78 100T45 235ZM166 523L130 605L430 732L466 650L166 523Z" />
<glyph unicode="&#xf1;" horiz-adv-x="634" d="M60 525H206L225 425V0H75V400Q75 421 74 437T68 476L60 525ZM210 343V442Q241 484 283 510T380 537Q427 537 469 514T537 444T564 326V0H414V303Q414 336 403 357T371 389T325 399Q295 399 264 385T210 343ZM169
585Q172 652 198 688T268 725Q288 725 304 719T333 703T358 688T381 681Q392 681 400 689T411 720H481Q478 653 452 617T382 580Q362 580 346 586T317 602T292 617T269 624Q259 624 251 616T239 585H169Z" />
<glyph unicode="&#xf2;" horiz-adv-x="592" d="M38 262Q38 347 71 408T162 503T296 537Q372 537 430 504T521 409T554 262Q554 178 521 117T430 22T296 -12Q221 -12 163 21T71 116T38 262ZM190 262Q190 209 203 175T240 125T296 109Q328 109 352 125T389 175T402
262Q402 315 389 349T352 399T296 416Q264 416 240 400T203 349T190 262ZM112 735H283L372 585H251L112 735Z" />
<glyph unicode="&#xf3;" horiz-adv-x="592" d="M38 262Q38 347 71 408T162 503T296 537Q372 537 430 504T521 409T554 262Q554 178 521 117T430 22T296 -12Q221 -12 163 21T71 116T38 262ZM190 262Q190 209 203 175T240 125T296 109Q328 109 352 125T389 175T402
262Q402 315 389 349T352 399T296 416Q264 416 240 400T203 349T190 262ZM230 585L319 735H490L351 585H230Z" />
<glyph unicode="&#xf4;" horiz-adv-x="592" d="M38 262Q38 347 71 408T162 503T296 537Q372 537 430 504T521 409T554 262Q554 178 521 117T430 22T296 -12Q221 -12 163 21T71 116T38 262ZM190 262Q190 209 203 175T240 125T296 109Q328 109 352 125T389 175T402
262Q402 315 389 349T352 399T296 416Q264 416 240 400T203 349T190 262ZM121 585L223 735H367L242 585H121ZM225 735H369L471 585H350L225 735Z" />
<glyph unicode="&#xf5;" horiz-adv-x="592" d="M38 262Q38 347 71 408T162 503T296 537Q372 537 430 504T521 409T554 262Q554 178 521 117T430 22T296 -12Q221 -12 163 21T71 116T38 262ZM190 262Q190 209 203 175T240 125T296 109Q328 109 352 125T389 175T402
262Q402 315 389 349T352 399T296 416Q264 416 240 400T203 349T190 262ZM140 585Q143 652 169 688T239 725Q259 725 275 719T304 703T329 688T352 681Q363 681 371 689T382 720H452Q449 653 423 617T353 580Q333 580 317 586T288 602T263 617T240 624Q230 624
222 616T210 585H140Z" />
<glyph unicode="&#xf6;" horiz-adv-x="592" d="M38 262Q38 347 71 408T162 503T296 537Q372 537 430 504T521 409T554 262Q554 178 521 117T430 22T296 -12Q221 -12 163 21T71 116T38 262ZM190 262Q190 209 203 175T240 125T296 109Q328 109 352 125T389 175T402
262Q402 315 389 349T352 399T296 416Q264 416 240 400T203 349T190 262ZM115 650Q115 684 136 704T192 725Q227 725 248 705T269 650Q269 616 248 596T192 575Q158 575 137 595T115 650ZM323 650Q323 684 344 704T400 725Q435 725 456 705T477 650Q477 616 456
596T400 575Q366 575 345 595T323 650Z" />
<glyph unicode="&#xf7;" horiz-adv-x="600" d="M62 223V357H538V223H62ZM208 92Q208 130 234 156T300 183Q341 183 366 157T392 92Q392 55 367 28T300 1Q260 1 234 28T208 92ZM208 488Q208 526 234 552T300 579Q341 579 366 553T392 488Q392 451 367 424T300 397Q260
397 234 424T208 488Z" />
<glyph unicode="&#xf8;" horiz-adv-x="592" d="M38 262Q38 347 71 408T162 503T296 537Q372 537 430 504T521 409T554 262Q554 178 521 117T430 22T296 -12Q221 -12 163 21T71 116T38 262ZM186 262Q186 180 216 142T296 104Q346 104 376 142T406 262Q406 345 376
382T296 420Q246 420 216 383T186 262ZM35 60L482 537L557 465L110 -12L35 60Z" />
<glyph unicode="&#xf9;" horiz-adv-x="628" d="M70 199V525H220V222Q220 173 243 150T306 126Q336 126 365 140T418 182V83Q387 41 346 15T251 -12Q205 -12 164 11T96 82T70 199ZM422 0L403 100V525H553V125Q553 104 554 88T560 49L568 0H422ZM128 735H299L388
585H267L128 735Z" />
<glyph unicode="&#xfa;" horiz-adv-x="628" d="M70 199V525H220V222Q220 173 243 150T306 126Q336 126 365 140T418 182V83Q387 41 346 15T251 -12Q205 -12 164 11T96 82T70 199ZM422 0L403 100V525H553V125Q553 104 554 88T560 49L568 0H422ZM246 585L335 735H506L367
585H246Z" />
<glyph unicode="&#xfb;" horiz-adv-x="628" d="M70 199V525H220V222Q220 173 243 150T306 126Q336 126 365 140T418 182V83Q387 41 346 15T251 -12Q205 -12 164 11T96 82T70 199ZM422 0L403 100V525H553V125Q553 104 554 88T560 49L568 0H422ZM137 585L239 735H383L258
585H137ZM241 735H385L487 585H366L241 735Z" />
<glyph unicode="&#xfc;" horiz-adv-x="628" d="M70 199V525H220V222Q220 173 243 150T306 126Q336 126 365 140T418 182V83Q387 41 346 15T251 -12Q205 -12 164 11T96 82T70 199ZM422 0L403 100V525H553V125Q553 104 554 88T560 49L568 0H422ZM131 650Q131 684
152 704T208 725Q243 725 264 705T285 650Q285 616 264 596T208 575Q174 575 153 595T131 650ZM339 650Q339 684 360 704T416 725Q451 725 472 705T493 650Q493 616 472 596T416 575Q382 575 361 595T339 650Z" />
<glyph unicode="&#xfd;" horiz-adv-x="530" d="M0 525H164L296 110L297 0H204L0 525ZM19 -181L35 -60Q49 -64 62 -66T88 -69Q112 -69 131 -61T167 -28T204 47L240 110L370 525H530L326 0Q301 -64 273 -108T205 -174T106 -197Q85 -197 62 -193T19 -181ZM202 585L291
735H462L323 585H202Z" />
<glyph unicode="&#xfe;" horiz-adv-x="610" d="M75 -200V715L225 735V-180L75 -200ZM173 222L225 227Q225 186 235 159T265 119T311 106Q359 106 390 144T422 253Q422 303 410 336T376 385T325 401Q295 401 264 386T210 343V442Q240 484 281 510T375 537Q428 537
473 503T545 408T572 261Q572 173 543 112T464 20T351 -12Q299 -12 259 17T196 98T173 222Z" />
<glyph unicode="&#xff;" horiz-adv-x="530" d="M0 525H164L296 110L297 0H204L0 525ZM19 -181L35 -60Q49 -64 62 -66T88 -69Q112 -69 131 -61T167 -28T204 47L240 110L370 525H530L326 0Q301 -64 273 -108T205 -174T106 -197Q85 -197 62 -193T19 -181ZM87 650Q87
684 108 704T164 725Q199 725 220 705T241 650Q241 616 220 596T164 575Q130 575 109 595T87 650ZM295 650Q295 684 316 704T372 725Q407 725 428 705T449 650Q449 616 428 596T372 575Q338 575 317 595T295 650Z" />
<glyph unicode="&#x2013;" horiz-adv-x="634" d="M55 220V340H579V220H55Z" />
<glyph unicode="&#x2014;" horiz-adv-x="935" d="M55 220V340H880V220H55Z" />
<glyph unicode="&#x2018;" horiz-adv-x="278" d="M218 720L172 542Q198 534 215 512T233 455Q233 415 207 389T139 363Q98 363 72 389T45 458Q45 489 53 516T77 584L130 720H218Z" />
<glyph unicode="&#x2019;" horiz-adv-x="278" d="M60 375L106 553Q81 561 63 583T45 640Q45 680 71 706T139 732Q180 732 206 706T233 637Q233 606 225 579T201 511L148 375H60Z" />
<glyph unicode="&#x201a;" horiz-adv-x="278" d="M60 -185L106 -7Q81 1 63 23T45 80Q45 120 71 146T139 172Q180 172 206 146T233 77Q233 46 225 19T201 -49L148 -185H60Z" />
<glyph unicode="&#x201c;" horiz-adv-x="508" d="M218 720L172 542Q198 534 215 512T233 455Q233 415 207 389T139 363Q98 363 72 389T45 458Q45 489 53 516T77 584L130 720H218ZM448 720L402 542Q428 534 445 512T463 455Q463 415 437 389T369 363Q328 363 302
389T275 458Q275 489 283 516T307 584L360 720H448Z" />
<glyph unicode="&#x201d;" horiz-adv-x="508" d="M60 375L106 553Q81 561 63 583T45 640Q45 680 71 706T139 732Q180 732 206 706T233 637Q233 606 225 579T201 511L148 375H60ZM290 375L336 553Q311 561 293 583T275 640Q275 680 301 706T369 732Q410 732 436
706T463 637Q463 606 455 579T431 511L378 375H290Z" />
<glyph unicode="&#x201e;" horiz-adv-x="508" d="M60 -185L106 -7Q81 1 63 23T45 80Q45 120 71 146T139 172Q180 172 206 146T233 77Q233 46 225 19T201 -49L148 -185H60ZM290 -185L336 -7Q311 1 293 23T275 80Q275 120 301 146T369 172Q410 172 436 146T463 77Q463
46 455 19T431 -49L378 -185H290Z" />
<glyph unicode="&#x2022;" horiz-adv-x="400" d="M80 290Q80 343 114 376T200 410Q253 410 286 377T320 290Q320 238 287 204T200 170Q148 170 114 204T80 290Z" />
<glyph unicode="&#x2039;" horiz-adv-x="314" d="M35 239V310L155 298L294 88H132L35 239ZM35 241V312L132 463H294L155 253L35 241Z" />
<glyph unicode="&#x203a;" horiz-adv-x="314" d="M20 88L159 298L279 310V239L182 88H20ZM20 463H182L279 312V241L159 253L20 463Z" />
</font>
</defs>
</svg>
