<?xml version="1.0" standalone="no"?>
<!DOCTYPE svg PUBLIC "-//W3C//DTD SVG 1.1//EN" "http://www.w3.org/Graphics/SVG/1.1/DTD/svg11.dtd">
<svg xmlns="http://www.w3.org/2000/svg">
<defs >
<font id="RadioCanada" horiz-adv-x="577" ><font-face
    font-family="Radio Canada"
    units-per-em="1000"
    panose-1="0 0 0 0 0 0 0 0 0 0"
    ascent="945"
    descent="-255"
    alphabetic="0" />
<glyph unicode=" " horiz-adv-x="250" />
<glyph unicode="!" horiz-adv-x="322" d="M100 52Q100 79 117 97T161 115Q189 115 205 97T222 52Q222 26 206 8T161 -10Q135 -10 118 8T100 52ZM126 210L110 515V690H212V515L196 210H126Z" />
<glyph unicode="&quot;" horiz-adv-x="402" d="M65 720H167L150 470H82L65 720ZM235 720H337L320 470H252L235 720Z" />
<glyph unicode="#" horiz-adv-x="738" d="M65 202V278H621V202H65ZM117 0L285 690H371L203 0H117ZM117 412V488H673V412H117ZM367 0L535 690H621L453 0H367Z" />
<glyph unicode="$" horiz-adv-x="600" d="M308 -10Q258 -10 208 3T113 40T38 94L94 163Q138 122 193 100T316 77Q363 77 394 90T442 124T458 171Q458 198 444 221T393 265T290 307Q204 333 156 364T88 432T68 512Q68 564 97 606T180 674T302 700Q361 700 423 677T533
613L478 541Q441 577 395 597T295 617Q228 617 195 589T161 522Q161 500 174 480T222 441T318 403Q407 377 459 343T534 268T557 183Q557 130 528 86T444 16T308 -10ZM273 -100V790H349V-100H273Z" />
<glyph unicode="%" horiz-adv-x="943" d="M75 518Q75 572 98 613T160 677T246 700Q293 700 332 677T394 613T417 518Q417 465 394 424T332 360T246 337Q199 337 160 360T98 424T75 518ZM162 518Q162 468 186 439T246 410Q281 410 305 439T330 518Q330 568 306
597T246 627Q211 627 187 598T162 518ZM198 0L648 690H745L295 0H198ZM526 171Q526 225 549 266T611 330T697 353Q744 353 783 330T845 266T868 171Q868 118 845 77T783 13T697 -10Q650 -10 611 13T549 77T526 171ZM613 171Q613 121 637 92T697 63Q732 63 756 92T781
171Q781 221 757 250T697 280Q662 280 638 251T613 171Z" />
<glyph unicode="&amp;" horiz-adv-x="660" d="M48 170Q48 230 84 278T184 360L330 440Q364 459 382 479T400 530Q400 568 376 594T310 620Q269 620 245 594T220 530Q220 493 240 466T295 400L650 0H530L220 350Q186 388 158 433T130 530Q130 575 152 614T214 676T310
700Q365 700 405 677T466 617T488 540Q488 505 473 477T432 424T370 380L230 300Q185 275 164 242T142 170Q142 125 175 98T260 70Q325 70 374 103T459 193T520 320L600 290Q578 234 546 181T470 84T373 16T250 -10Q190 -10 145 12T74 74T48 170Z" />
<glyph unicode="&apos;" horiz-adv-x="232" d="M65 720H167L150 470H82L65 720Z" />
<glyph unicode="(" horiz-adv-x="332" d="M75 268Q75 379 107 472T198 640T333 773L367 730Q305 676 258 602T184 443T157 268Q157 179 183 93T257 -66T367 -195L333 -238Q257 -180 199 -105T108 64T75 268Z" />
<glyph unicode=")" horiz-adv-x="332" d="M-35 -195Q28 -140 75 -67T148 93T175 268Q175 358 149 443T75 602T-35 730L-1 773Q76 715 134 640T224 472T257 268Q257 157 225 64T134 -104T-1 -238L-35 -195Z" />
<glyph unicode="*" horiz-adv-x="598" d="M65 517L93 602L267 531L254 720H344L331 531L505 602L533 517L346 470L468 325L395 272L299 426L203 272L130 325L252 470L65 517Z" />
<glyph unicode="+" horiz-adv-x="600" d="M73 250V330H527V250H73ZM259 65V515H341V65H259Z" />
<glyph unicode="," horiz-adv-x="222" d="M57 -145L92 -7Q74 -2 61 13T48 53Q48 80 66 97T111 115Q139 115 156 97T174 44Q174 28 170 12T158 -25L113 -145H57Z" />
<glyph unicode="-" horiz-adv-x="368" d="M60 235V315H308V235H60Z" />
<glyph unicode="." horiz-adv-x="222" d="M50 52Q50 79 67 97T111 115Q139 115 155 97T172 52Q172 26 156 8T111 -10Q85 -10 68 8T50 52Z" />
<glyph unicode="/" horiz-adv-x="336" d="M0 -30L250 720H336L86 -30H0Z" />
<glyph unicode="0" horiz-adv-x="600" d="M37 345Q37 467 73 545T168 662T300 700Q372 700 432 662T527 546T563 345Q563 224 528 145T432 28T300 -10Q228 -10 169 28T73 145T37 345ZM136 345Q136 252 157 193T216 107T300 79Q347 79 384 106T442 193T464 345Q464
439 443 497T384 583T300 611Q253 611 216 584T158 498T136 345Z" />
<glyph unicode="1" horiz-adv-x="600" d="M82 0V81H518V0H82ZM82 599L283 690L311 609L116 521L82 599ZM257 0V637L283 690H353V0H257Z" />
<glyph unicode="2" horiz-adv-x="600" d="M53 588Q85 624 120 649T197 687T287 700Q351 700 403 673T485 599T516 488Q516 454 504 419T461 343T375 250L113 0L62 66L311 316Q354 359 376 387T408 438T417 488Q417 520 402 547T358 592T284 609Q248 609 220 599T167
570T118 523L53 588ZM62 0V66L108 86H526V0H62Z" />
<glyph unicode="3" horiz-adv-x="600" d="M43 84L108 152Q141 115 183 98T279 81Q344 81 388 112T433 205Q433 244 411 272T351 314T264 329H181V390L234 408H293Q362 408 416 386T501 318T532 205Q532 136 498 88T406 15T279 -10Q207 -10 149 13T43 84ZM65 599V690H509V624L460
599H65ZM181 390L460 690L509 624L286 390H181Z" />
<glyph unicode="4" horiz-adv-x="600" d="M37 206L350 690H442L86 140L37 206ZM37 140V206L83 226H555V140H37ZM368 0V690H464V0H368Z" />
<glyph unicode="5" horiz-adv-x="600" d="M53 84L118 152Q151 115 193 98T289 81Q358 81 400 116T443 210Q443 267 401 304T289 342Q246 342 211 329T140 288L153 358Q185 390 228 408T322 426Q385 426 434 400T513 325T542 210Q542 145 510 96T420 18T289 -10Q217
-10 159 13T53 84ZM94 321L112 690H201L183 350L140 288L94 321ZM112 690H497V597H162L112 690Z" />
<glyph unicode="6" horiz-adv-x="600" d="M52 320Q52 415 77 486T146 604T244 676T355 700Q399 700 439 688T515 649L466 569Q440 589 413 600T345 611Q300 611 255 582T181 488T151 320Q151 240 171 186T228 104T311 76Q348 76 378 95T427 147T446 222Q446 261
429 290T381 334T313 350Q279 350 249 341T193 313T146 270V344Q166 374 194 396T258 430T329 442Q391 442 440 416T517 340T545 225Q545 156 513 103T426 20T306 -10Q233 -10 176 29T85 141T52 320Z" />
<glyph unicode="7" horiz-adv-x="600" d="M60 599V690H514V624L465 599H60ZM166 0L449 690L514 624L272 0H166Z" />
<glyph unicode="8" horiz-adv-x="600" d="M54 173Q54 220 77 258T144 322T249 357L294 321Q248 312 216 290T166 239T148 179Q148 147 166 124T218 87T298 74Q349 74 382 87T431 122T447 169Q447 189 440 207T417 244T373 278T300 310Q216 338 168 369T99 435T78
514Q78 566 105 608T183 675T299 700Q365 700 414 677T491 613T519 522Q519 479 498 445T434 388T330 357L285 393Q331 401 362 419T409 461T425 515Q425 544 411 567T368 605T299 619Q254 619 226 606T185 571T171 524Q171 502 184 481T225 442T300 409Q396 378
449 342T524 265T546 181Q546 128 518 85T434 16T298 -10Q223 -10 168 13T84 77T54 173Z" />
<glyph unicode="9" horiz-adv-x="600" d="M55 465Q55 534 87 587T174 670T294 700Q367 700 424 662T515 549T548 370Q548 275 523 204T454 85T356 14T245 -10Q202 -10 161 3T85 41L134 121Q160 102 187 91T255 79Q289 79 323 95T386 146T432 236T449 370Q449 450
429 504T372 586T289 614Q253 614 222 595T173 543T154 468Q154 429 171 401T219 356T287 340Q338 340 380 361T454 420V346Q435 316 406 294T343 260T271 248Q209 248 160 275T83 350T55 465Z" />
<glyph unicode=":" horiz-adv-x="222" d="M50 52Q50 79 67 97T111 115Q139 115 155 97T172 52Q172 26 156 8T111 -10Q85 -10 68 8T50 52ZM50 462Q50 489 67 507T111 525Q139 525 155 507T172 462Q172 436 156 418T111 400Q85 400 68 418T50 462Z" />
<glyph unicode=";" horiz-adv-x="222" d="M57 -145L92 -7Q74 -2 61 13T48 53Q48 80 66 97T111 115Q139 115 156 97T174 44Q174 28 170 12T158 -25L113 -145H57ZM50 462Q50 489 67 507T111 525Q139 525 155 507T172 462Q172 436 156 418T111 400Q85 400 68 418T50 462Z" />
<glyph unicode="&lt;" horiz-adv-x="600" d="M72 254V307L154 305L497 148V55L72 254ZM72 281V326L497 525V435L154 280L72 281Z" />
<glyph unicode="=" horiz-adv-x="600" d="M73 130V210H527V130H73ZM73 370V450H527V370H73Z" />
<glyph unicode="&gt;" horiz-adv-x="600" d="M103 55V145L446 300L528 299V254L103 55ZM103 432V525L528 326V273L446 275L103 432Z" />
<glyph unicode="?" horiz-adv-x="508" d="M182 52Q182 79 199 97T243 115Q271 115 287 97T304 52Q304 26 288 8T243 -10Q217 -10 200 8T182 52ZM25 588Q69 641 122 670T246 700Q302 700 347 677T420 611T448 510Q448 475 434 444T395 388T336 343Q317 332 306
321T291 296T285 260L282 210H203L197 273Q193 314 209 342T257 392Q287 412 307 430T338 467T349 510Q349 539 336 561T298 596T243 609Q192 609 156 587T88 522L25 588Z" />
<glyph unicode="@" horiz-adv-x="982" d="M65 252Q65 351 97 433T188 575T327 667T502 700Q598 700 675 667T806 575T888 435T917 259Q917 183 901 131T859 48T801 4T735 -10Q703 -10 673 2T622 42T593 115L592 152V395L613 495H699L691 451Q687 429 686 412T684
373V133Q684 98 700 82T739 66Q766 66 788 85T822 147T835 259Q835 337 814 403T750 519T645 596T502 624Q423 624 358 598T246 522T173 403T147 249Q147 169 170 102T240 -15T352 -92T506 -119Q567 -119 620 -105T727 -66L758 -138Q711 -163 644 -179T506 -195Q401
-195 320 -163T181 -72T95 70T65 252ZM263 253Q263 332 288 388T359 475T466 505Q507 505 545 482T607 408T632 273L592 263Q592 321 576 357T534 410T481 428Q423 428 390 380T357 256Q357 204 372 168T412 114T470 95Q494 95 517 104T564 132T607 174V105Q587
77 561 56T506 22T445 10Q395 10 354 39T288 122T263 253Z" />
<glyph unicode="A" horiz-adv-x="656" d="M20 0L286 690H335L343 600L120 0H20ZM150 194V280H506V194H150ZM309 600L313 690H370L636 0H532L309 600Z" />
<glyph unicode="B" horiz-adv-x="647" d="M100 0V690H196V0H100ZM150 0V84H353Q410 84 449 114T488 200Q488 255 450 284T353 314H150V380H358Q421 380 473 359T556 297T587 195Q587 132 556 89T473 23T358 0H150ZM150 335V396H335Q388 396 424 423T460 500Q460
550 425 578T335 606H150V690H340Q401 690 450 669T529 607T559 505Q559 450 530 412T451 355T340 335H150Z" />
<glyph unicode="C" horiz-adv-x="644" d="M60 345Q60 431 84 497T152 608T252 676T373 700Q433 700 487 676T586 608L518 543Q487 575 451 592T373 609Q312 609 264 579T187 490T159 345Q159 259 187 200T263 111T373 81Q420 81 459 98T529 149L594 84Q549 38
494 14T373 -10Q309 -10 253 13T153 81T85 193T60 345Z" />
<glyph unicode="D" horiz-adv-x="701" d="M100 0V690H196V0H100ZM150 0V86H318Q382 86 432 116T512 204T542 345Q542 428 513 486T433 574T318 604H150V690H323Q412 690 484 650T598 533T641 345Q641 234 599 157T484 40T323 0H150Z" />
<glyph unicode="E" horiz-adv-x="621" d="M100 0V690H196V0H100ZM150 0V86H551V0H150ZM150 307V393H496V307H150ZM150 604V690H546V604H150Z" />
<glyph unicode="F" horiz-adv-x="571" d="M100 0V690H196V0H100ZM150 284V370H492V284H150ZM150 604V690H531V604H150Z" />
<glyph unicode="G" horiz-adv-x="701" d="M60 345Q60 431 85 497T155 608T258 677T383 700Q445 700 499 679T600 614L538 543Q505 575 466 592T383 609Q319 609 268 579T188 491T159 345Q159 259 189 199T271 107T389 76Q432 76 469 88T542 126L621 82Q575 42
512 16T378 -10Q311 -10 254 13T153 81T85 193T60 345ZM375 257V343H571V257H375ZM525 70V343H621V82L525 70Z" />
<glyph unicode="H" horiz-adv-x="736" d="M100 0V690H196V0H100ZM150 307V393H586V307H150ZM540 0V690H636V0H540Z" />
<glyph unicode="I" horiz-adv-x="456" d="M80 0V81H376V0H80ZM80 609V690H376V609H80ZM180 0V690H276V0H180Z" />
<glyph unicode="J" horiz-adv-x="573" d="M45 107L116 163Q134 130 169 104T254 78Q316 78 352 118T389 246V690H483V236Q483 156 453 101T371 18T255 -10Q190 -10 133 23T45 107ZM207 609V690H443V609H207Z" />
<glyph unicode="K" horiz-adv-x="641" d="M100 0V690H196V0H100ZM180 207V331L489 690H606L307 351L300 343L180 207ZM270 333L331 402L626 0H507L270 333Z" />
<glyph unicode="L" horiz-adv-x="556" d="M100 0V690H196V0H100ZM150 0V86H516V0H150Z" />
<glyph unicode="M" horiz-adv-x="836" d="M100 0V690H196V0H100ZM143 690H241L436 250L430 155H388L143 690ZM406 155L400 250L595 690H693L448 155H406ZM640 0V690H736V0H640Z" />
<glyph unicode="N" horiz-adv-x="746" d="M100 0V690H196V0H100ZM144 690H246L602 0H500L144 690ZM550 0V690H646V0H550Z" />
<glyph unicode="O" horiz-adv-x="726" d="M60 345Q60 432 83 498T149 610T246 677T363 700Q425 700 480 678T577 610T642 499T666 345Q666 258 643 192T577 80T480 13T363 -10Q301 -10 246 12T149 80T84 191T60 345ZM159 345Q159 279 174 229T217 146T282 96T363
79Q407 79 444 95T508 145T551 229T567 345Q567 411 552 461T509 544T444 594T363 611Q319 611 282 595T218 545T175 461T159 345Z" />
<glyph unicode="P" horiz-adv-x="632" d="M100 0V690H196V0H100ZM150 230V316H323Q391 316 437 353T483 460Q483 530 438 567T323 604H150V690H328Q399 690 456 664T548 586T582 460Q582 386 548 335T457 257T328 230H150Z" />
<glyph unicode="Q" horiz-adv-x="726" d="M420 9L496 36Q516 -24 555 -47T656 -71V-165Q554 -162 497 -121T420 9ZM60 345Q60 462 101 541T211 660T363 700Q446 700 515 660T625 541T666 345Q666 228 625 149T515 30T363 -10Q280 -10 211 30T101 149T60 345ZM159
345Q159 257 185 198T258 109T363 79Q422 79 468 108T540 197T567 345Q567 434 541 493T468 581T363 611Q305 611 259 582T186 493T159 345Z" />
<glyph unicode="R" horiz-adv-x="650" d="M100 0V690H196V0H100ZM150 260V343H328Q392 343 435 377T478 475Q478 537 436 570T328 604H150V690H333Q401 690 456 665T544 593T577 475Q577 405 544 357T456 285T333 260H150ZM301 290H406L595 0H481L301 290Z" />
<glyph unicode="S" horiz-adv-x="624" d="M50 94L106 163Q150 122 205 100T328 77Q375 77 406 90T454 124T470 171Q470 198 456 220T405 264T302 307Q217 336 169 366T100 433T80 512Q80 564 109 606T192 674T314 700Q373 700 435 677T545 613L490 541Q453 577
407 597T307 617Q240 617 207 589T173 522Q173 500 186 480T234 442T330 403Q419 375 471 341T546 267T569 183Q569 130 540 86T456 16T320 -10Q270 -10 220 3T125 40T50 94Z" />
<glyph unicode="T" horiz-adv-x="576" d="M30 604V690H546V604H30ZM240 0V690H336V0H240Z" />
<glyph unicode="U" horiz-adv-x="706" d="M90 250V690H186V260Q186 202 207 162T265 100T354 79Q405 79 443 100T501 161T522 260V690H616V250Q616 167 582 109T488 20T353 -10Q279 -10 219 20T125 108T90 250Z" />
<glyph unicode="V" horiz-adv-x="636" d="M20 690H124L337 90V0H276L20 690ZM303 90L516 690H616L360 0H303V90Z" />
<glyph unicode="W" horiz-adv-x="961" d="M20 690H122L297 96L293 0H238L20 690ZM263 96L442 690H494V562L318 0H271L263 96ZM468 562V690H523L703 96L699 0H644L468 562ZM669 96L843 690H941L724 0H677L669 96Z" />
<glyph unicode="X" horiz-adv-x="644" d="M30 0L282 374L311 409L494 690H604L362 331L333 296L140 0H30ZM40 690H156L353 394L614 0H498L292 310L40 690Z" />
<glyph unicode="Y" horiz-adv-x="616" d="M15 690H125L329 341V270H268L15 690ZM260 0V320H356V0H260ZM291 341L495 690H601L348 270H291V341Z" />
<glyph unicode="Z" horiz-adv-x="614" d="M60 66L480 690L544 624L124 0L60 66ZM60 0V66L106 86H554V0H60ZM70 604V690H544V624L495 604H70Z" />
<glyph unicode="[" horiz-adv-x="320" d="M100 -245V780H182V-245H100ZM100 -245V-175H345V-245H100ZM100 710V780H345V710H100Z" />
<glyph unicode="\" horiz-adv-x="336" d="M0 720H86L336 -30H250L0 720Z" />
<glyph unicode="]" horiz-adv-x="320" d="M-25 -245V-175H220V-245H-25ZM-25 710V780H220V710H-25ZM138 -245V780H220V-245H138Z" />
<glyph unicode="^" horiz-adv-x="600" d="M65 265L264 690H309L310 608L155 265H65ZM283 690H336L535 265H442L285 608L283 690Z" />
<glyph unicode="_" horiz-adv-x="428" d="M0 -80V0H428V-80H0Z" />
<glyph unicode="`" horiz-adv-x="0" d="M-141 735H-30L45 585H-31L-141 735Z" />
<glyph unicode="a" horiz-adv-x="543" d="M60 132Q60 177 84 215T163 278T311 306L374 308V243L315 237Q250 231 215 216T167 182T154 140Q154 109 172 92T222 74Q265 74 305 96T381 157V85Q352 45 305 18T202 -10Q165 -10 133 7T80 56T60 132ZM75 472Q110 494
161 509T258 525Q315 525 360 503T431 437T458 325V122Q458 101 459 84T465 44L473 0H387L366 100V314Q366 380 335 408T249 437Q209 437 175 425T107 394L75 472Z" />
<glyph unicode="b" horiz-adv-x="586" d="M75 0L83 44Q87 66 88 83T90 122V715L182 735V100L161 0H75ZM142 222L182 232Q182 175 200 139T245 85T303 67Q365 67 401 120T437 259Q437 318 421 358T377 419T314 440Q277 440 239 419T167 361V430Q200 472 245 498T339
525Q392 525 435 494T505 403T531 262Q531 177 505 116T431 23T318 -10Q275 -10 235 13T168 87T142 222Z" />
<glyph unicode="c" horiz-adv-x="504" d="M55 252Q55 337 88 398T179 492T306 525Q350 525 393 509T467 460L411 393Q392 415 365 428T302 441Q261 441 226 419T170 355T149 252Q149 192 169 153T224 94T297 74Q336 74 366 87T416 122L469 55Q439 24 394 7T301
-10Q231 -10 176 19T88 106T55 252Z" />
<glyph unicode="d" horiz-adv-x="586" d="M55 253Q55 338 81 399T155 492T267 525Q311 525 351 502T418 428T444 293L404 283Q404 341 387 377T341 430T283 448Q221 448 185 395T149 256Q149 198 165 158T209 96T272 75Q312 75 349 97T419 157V85Q386 43 342 17T247
-10Q195 -10 151 21T81 112T55 253ZM425 0L404 100V715L496 735V122Q496 101 497 84T503 44L511 0H425Z" />
<glyph unicode="e" horiz-adv-x="553" d="M55 252Q55 342 86 403T169 494T285 525Q344 525 392 497T469 411T498 267Q498 258 498 249T496 230H134V304H426L408 267Q408 363 372 403T284 444Q244 444 214 423T166 359T149 252Q149 193 170 154T228 94T309 74Q345
74 375 86T428 116L471 43Q437 15 395 3T306 -10Q234 -10 178 19T88 106T55 252Z" />
<glyph unicode="f" horiz-adv-x="361" d="M20 435V515H354V435H20ZM110 0V557Q110 612 132 650T191 709T272 730Q303 730 330 724T381 707L363 633Q342 642 323 646T285 651Q243 651 223 625T202 554V0H110Z" />
<glyph unicode="g" horiz-adv-x="586" d="M55 263Q55 345 81 403T156 493T268 525Q311 525 351 502T418 428T444 293L404 283Q404 341 387 377T341 430T283 448Q221 448 185 397T149 266Q149 211 165 173T209 115T272 95Q310 95 348 115T419 169V100Q386 60 342
35T247 10Q195 10 151 40T81 127T55 263ZM79 -145L112 -64Q147 -83 181 -96T261 -109Q325 -109 364 -71T404 49V415L425 515H511L503 471Q499 449 498 432T496 393V46Q496 -31 466 -85T384 -167T265 -195Q216 -195 165 -180T79 -145Z" />
<glyph unicode="h" horiz-adv-x="604" d="M90 0V715L182 735V0H90ZM167 361V430Q200 472 245 498T340 525Q391 525 431 502T495 433T519 316V0H427V304Q427 374 396 406T316 438Q276 438 238 418T167 361Z" />
<glyph unicode="i" horiz-adv-x="272" d="M90 0V515H182V0H90ZM75 667Q75 694 92 712T136 730Q164 730 180 712T197 667Q197 641 181 623T136 605Q110 605 93 623T75 667Z" />
<glyph unicode="j" horiz-adv-x="272" d="M-51 -181L-35 -105Q-23 -109 -10 -111T18 -114Q53 -114 71 -94T90 -30V515H182V-34Q182 -109 137 -152T24 -195Q4 -195 -15 -191T-51 -181ZM75 667Q75 694 92 712T136 730Q164 730 180 712T197 667Q197 641 181 623T136
605Q110 605 93 623T75 667Z" />
<glyph unicode="k" horiz-adv-x="533" d="M90 0V715L182 735V0H90ZM176 166V282L386 515H503L176 166ZM235 263L298 324L518 0H406L235 263Z" />
<glyph unicode="l" horiz-adv-x="272" d="M90 0V715L182 735V0H90Z" />
<glyph unicode="m" horiz-adv-x="881" d="M75 515H161L182 415V0H90V393Q90 414 89 431T83 471L75 515ZM167 358V430Q197 472 239 498T331 525Q375 525 410 504T467 438T489 325V0H397V313Q397 381 369 409T299 438Q264 438 231 417T167 358ZM465 428Q486 457
512 478T571 512T638 525Q682 525 717 504T774 438T796 325V0H704V313Q704 381 676 409T606 438Q571 438 538 417T474 358L465 428Z" />
<glyph unicode="n" horiz-adv-x="604" d="M75 515H161L182 415V0H90V393Q90 414 89 431T83 471L75 515ZM167 358V430Q200 472 245 498T340 525Q391 525 431 502T495 433T519 316V0H427V304Q427 351 413 380T373 424T316 438Q276 438 238 417T167 358Z" />
<glyph unicode="o" horiz-adv-x="572" d="M55 257Q55 344 85 403T167 494T286 525Q353 525 405 494T487 404T517 257Q517 171 487 111T405 21T286 -10Q219 -10 167 20T85 111T55 257ZM149 257Q149 197 165 156T212 93T286 71Q329 71 359 92T406 155T423 257Q423
317 407 358T360 422T286 444Q243 444 213 422T166 359T149 257Z" />
<glyph unicode="p" horiz-adv-x="586" d="M75 515H161L182 415V-180L90 -200V393Q90 414 89 431T83 471L75 515ZM142 222L182 232Q182 175 200 139T245 85T303 67Q365 67 401 120T437 259Q437 318 421 358T377 419T314 440Q274 440 237 418T167 358V430Q200 472
245 498T339 525Q392 525 435 494T505 403T531 262Q531 177 505 116T431 23T318 -10Q275 -10 235 13T168 87T142 222Z" />
<glyph unicode="q" horiz-adv-x="586" d="M55 253Q55 338 81 399T156 492T268 525Q311 525 351 502T418 428T444 293L404 283Q404 341 387 377T341 430T283 448Q221 448 185 395T149 256Q149 198 165 158T209 96T272 75Q310 75 348 96T419 154V85Q386 43 342 17T247
-10Q195 -10 151 21T81 112T55 253ZM404 -200V415L425 515H511L503 471Q499 449 498 432T496 393V-180L404 -200Z" />
<glyph unicode="r" horiz-adv-x="370" d="M75 515H161L182 415V0H90V393Q90 414 89 431T83 471L75 515ZM167 344V415Q195 465 241 495T345 525V426Q284 423 240 403T167 344Z" />
<glyph unicode="s" horiz-adv-x="501" d="M50 61L104 123Q131 101 167 84T253 67Q304 67 329 84T354 129Q354 147 344 162T307 192T232 221Q144 248 106 287T68 380Q68 422 92 454T160 506T258 525Q301 525 346 511T427 467L376 401Q352 421 320 434T249 448Q203
448 180 431T156 390Q156 371 166 358T203 332T277 306Q343 287 379 262T431 206T446 140Q446 97 421 63T351 10T245 -10Q187 -10 136 10T50 61Z" />
<glyph unicode="t" horiz-adv-x="394" d="M20 435V515H354V435H20ZM110 152V634L202 654V156Q202 116 221 95T280 73Q297 73 314 77T353 90L369 11Q345 2 318 -4T264 -10Q222 -10 187 9T131 64T110 152Z" />
<glyph unicode="u" horiz-adv-x="600" d="M85 199V515H177V211Q177 141 207 109T286 77Q326 77 363 98T433 157V85Q400 43 356 17T262 -10Q211 -10 171 13T108 82T85 199ZM439 0L418 100V515H510V122Q510 101 511 84T517 44L525 0H439Z" />
<glyph unicode="v" horiz-adv-x="496" d="M10 515H109L264 90L265 0H212L10 515ZM238 90L391 515H486L284 0H239L238 90Z" />
<glyph unicode="w" horiz-adv-x="749" d="M10 515H108L234 94L235 0H182L10 515ZM208 94L339 515H390V409L254 0H209L208 94ZM359 409V515H414L547 94L548 0H495L359 409ZM521 94L645 515H739L567 0H522L521 94Z" />
<glyph unicode="x" horiz-adv-x="519" d="M20 0L215 283L245 317L376 515H479L293 246L262 210L123 0H20ZM30 515H138L283 302L285 299L489 0H381L228 225L226 228L30 515Z" />
<glyph unicode="y" horiz-adv-x="496" d="M10 515H109L264 90L265 0H212L10 515ZM24 -183L37 -108Q50 -112 59 -113T82 -115Q106 -115 127 -104T168 -63T211 23L238 90L391 515H486L274 -26Q250 -88 219 -125T154 -179T83 -195Q67 -195 53 -192T24 -183Z" />
<glyph unicode="z" horiz-adv-x="504" d="M50 60L384 515L444 455L110 0L50 60ZM50 0V60L96 80H454V0H50ZM60 435V515H444V455L395 435H60Z" />
<glyph unicode="{" horiz-adv-x="348" d="M70 236V300Q115 313 142 328T183 361T196 399Q196 427 184 451T155 500T126 553T113 616Q113 680 161 725T307 787L318 730Q268 716 242 698T205 660T195 617Q195 589 207 564T234 514T261 463T273 405Q273 357 243 323T146
268Q213 249 243 214T273 131Q273 100 261 74T234 22T207 -29T195 -82Q195 -104 205 -124T241 -162T318 -195L307 -252Q210 -236 162 -191T113 -81Q113 -46 125 -18T154 35T183 84T196 137Q196 157 183 174T143 207T70 236Z" />
<glyph unicode="|" horiz-adv-x="282" d="M100 -215V720H182V-215H100Z" />
<glyph unicode="}" horiz-adv-x="348" d="M30 -195Q80 -180 106 -163T143 -125T153 -82Q153 -54 141 -29T114 21T87 72T75 130Q75 178 105 213T202 267Q135 287 105 321T75 404Q75 435 87 461T114 513T141 564T153 617Q153 640 143 660T107 698T30 730L41 787Q138
771 186 726T235 616Q235 581 223 553T194 500T165 451T152 398Q152 378 165 361T206 328T278 299V235Q234 222 206 207T165 174T152 136Q152 108 164 84T193 35T222 -18T235 -81Q235 -145 187 -190T41 -252L30 -195Z" />
<glyph unicode="~" horiz-adv-x="600" d="M83 301Q91 377 125 419T214 461Q247 461 271 448T315 417T354 387T395 373Q418 373 432 391T454 456H517Q509 380 475 338T386 296Q354 296 330 309T286 340T247 370T205 384Q183 384 168 366T146 301H83Z" />
<glyph unicode="&#xa0;" horiz-adv-x="250" />
<glyph unicode="&#xa1;" horiz-adv-x="322" d="M110 -185V0L126 305H196L212 0V-185H110ZM100 463Q100 489 116 507T161 525Q187 525 204 507T222 463Q222 436 205 418T161 400Q133 400 117 418T100 463Z" />
<glyph unicode="&#xa2;" horiz-adv-x="600" d="M300 -100V695H376V-100H300ZM54 297Q54 377 92 437T200 531T362 565Q415 565 465 548T560 497L506 429Q475 454 439 467T362 481Q262 481 208 432T153 298Q153 213 207 164T362 114Q409 114 447 128T517 167L568
99Q523 65 472 48T362 30Q269 30 200 63T93 157T54 297Z" />
<glyph unicode="&#xa3;" horiz-adv-x="600" d="M71 0V86H561V0H71ZM71 40V93Q111 112 134 139T166 198T176 260Q176 294 170 318T156 366T142 415T136 479Q136 546 166 595T249 672T365 700Q429 700 481 675T571 597L504 534Q481 572 445 592T369 612Q304 612
268 575T232 479Q232 430 241 396T260 331T270 260Q270 205 245 159T176 81T71 40ZM71 293V373H451V293H71Z" />
<glyph unicode="&#xa4;" horiz-adv-x="600" d="M80 345Q80 420 108 472T186 552T300 580Q364 580 413 553T491 473T520 345Q520 271 492 218T414 138T300 110Q236 110 187 137T109 218T80 345ZM174 345Q174 297 189 263T232 210T300 192Q340 192 368 210T411 262T426
345Q426 394 411 428T368 480T300 498Q261 498 233 480T189 428T174 345ZM34 136L119 221L176 164L91 79L34 136ZM424 164L481 221L566 136L509 79L424 164ZM34 554L91 611L176 526L119 469L34 554ZM424 526L509 611L566 554L481 469L424 526Z" />
<glyph unicode="&#xa5;" horiz-adv-x="600" d="M7 690H117L321 346V275H260L7 690ZM252 0V320H348V0H252ZM283 346L487 690H593L340 275H283V346ZM70 97V177H530V97H70ZM70 277V357H530V277H70Z" />
<glyph unicode="&#xa6;" horiz-adv-x="282" d="M100 -215V150H182V-215H100ZM100 355V720H182V355H100Z" />
<glyph unicode="&#xa7;" horiz-adv-x="620" d="M64 -109L119 -37Q144 -61 173 -78T234 -104T302 -113Q347 -113 376 -101T421 -70T436 -28Q436 -7 423 10T375 44T279 81Q191 110 139 142T63 212T40 291Q40 345 73 389T169 455L281 387Q235 387 203 376T155 345T139
303Q139 279 154 259T205 219T307 177Q392 149 440 120T509 57T529 -18Q529 -67 500 -107T418 -172T295 -196Q256 -196 215 -186T135 -156T64 -109ZM91 522Q91 571 120 611T203 676T325 700Q384 700 446 677T556 613L501 541Q464 577 418 597T318 617Q251 617 218
592T184 532Q184 512 197 495T245 460T341 423Q429 395 481 362T557 292T580 213Q580 177 565 146T522 89T451 49L339 117Q409 117 445 142T481 201Q481 226 466 246T415 285T313 327Q228 356 180 385T111 447T91 522Z" />
<glyph unicode="&#xa8;" horiz-adv-x="0" d="M-155 637Q-155 661 -139 678T-98 695Q-71 695 -56 678T-41 637Q-41 614 -56 597T-98 580Q-123 580 -139 597T-155 637ZM41 637Q41 661 57 678T98 695Q125 695 140 678T155 637Q155 614 140 597T98 580Q73 580 57 597T41 637Z" />
<glyph unicode="&#xa9;" horiz-adv-x="810" d="M405 -10Q330 -10 266 17T153 92T77 205T50 345Q50 420 77 484T152 597T265 673T405 700Q480 700 544 673T657 598T733 485T760 345Q760 270 733 206T658 93T545 17T405 -10ZM405 60Q465 60 516 82T606 142T666 233T688
345Q688 405 667 457T607 547T517 608T405 630Q345 630 294 608T204 548T144 457T122 345Q122 285 143 233T203 143T293 82T405 60ZM216 345Q216 413 242 459T311 530T405 555Q441 555 473 541T532 500L485 450Q451 485 406 485Q357 485 324 449T290 345Q290 277
323 241T406 205Q432 205 453 214T490 241L537 191Q510 164 477 150T405 135Q354 135 311 159T242 231T216 345Z" />
<glyph unicode="&#xaa;" horiz-adv-x="440" d="M54 394Q54 429 72 458T134 507T251 529L300 531V476L254 471Q206 466 180 455T144 430T134 400Q134 376 149 363T189 350Q221 350 250 367T306 413V353Q284 322 247 301T166 280Q122 280 88 310T54 394ZM63 656Q92
673 132 686T210 700Q277 700 322 662T368 544V386Q368 370 369 356T373 325L380 290H305L288 370V535Q288 584 266 605T203 626Q172 626 145 616T90 590L63 656Z" />
<glyph unicode="&#xab;" horiz-adv-x="500" d="M40 247V292L100 293L259 83H160L40 247ZM40 249V294L160 458H259L100 248L40 249ZM261 247V292L321 293L480 83H381L261 247ZM261 249V294L381 458H480L321 248L261 249Z" />
<glyph unicode="&#xac;" horiz-adv-x="600" d="M73 250V330H527V250H73ZM445 65V330H527V65H445Z" />
<glyph unicode="&#xad;" horiz-adv-x="0" />
<glyph unicode="&#xae;" horiz-adv-x="810" d="M405 -10Q330 -10 266 17T153 92T77 205T50 345Q50 420 77 484T152 597T265 673T405 700Q480 700 544 673T657 598T733 485T760 345Q760 270 733 206T658 93T545 17T405 -10ZM405 60Q465 60 516 82T606 142T666 233T688
345Q688 405 667 457T607 547T517 608T405 630Q345 630 294 608T204 548T144 457T122 345Q122 285 143 233T203 143T293 82T405 60ZM268 138V552H338V138H268ZM300 294V352H405Q440 352 462 370T484 423Q484 457 462 474T405 492H300V552H409Q450 552 483 537T536
494T556 423Q556 381 536 353T483 309T409 294H300ZM386 312H462L568 138H486L386 312Z" />
<glyph unicode="&#xaf;" horiz-adv-x="0" d="M-148 585V655H148V585H-148Z" />
<glyph unicode="&#xb0;" horiz-adv-x="384" d="M50 560Q50 600 69 631T120 681T192 700Q232 700 264 682T315 632T334 560Q334 521 315 489T264 439T192 420Q152 420 120 438T69 489T50 560ZM122 560Q122 528 142 507T192 486Q222 486 242 507T262 560Q262 592
242 613T192 634Q162 634 142 613T122 560Z" />
<glyph unicode="&#xb1;" horiz-adv-x="600" d="M73 65V140H527V65H73ZM73 280V360H527V280H73ZM258 65V545H342V65H258Z" />
<glyph unicode="&#xb2;" horiz-adv-x="440" d="M76 290V346L136 358H360V290H76ZM76 346L210 476Q238 502 254 525T270 572Q270 597 253 612T208 628Q183 628 160 614T118 577L66 628Q98 664 132 682T210 700Q269 700 309 666T350 572Q350 540 328 502T264 426L116
290L76 346Z" />
<glyph unicode="&#xb3;" horiz-adv-x="440" d="M58 340L110 394Q130 372 153 361T204 350Q226 350 243 356T271 376T282 408Q282 437 259 452T194 468H145V514L176 525H211Q276 525 318 497T360 408Q360 367 339 339T283 295T204 280Q161 280 126 294T58 340ZM76
622V690H338V636L298 622H76ZM145 514L300 690L338 636L230 514H145Z" />
<glyph unicode="&#xb4;" horiz-adv-x="0" d="M-45 585L30 735H141L31 585H-45Z" />
<glyph unicode="&#xb5;" horiz-adv-x="600" d="M85 -185V515H177V211Q177 141 207 109T286 77Q326 77 363 98T433 157V85Q401 44 360 17T272 -10Q217 -10 181 22T145 120H167L177 -185H85ZM418 132V515H510V100Q510 84 517 78T535 71Q541 71 545 72T556 75V0Q546
-4 533 -7T508 -10Q476 -10 452 11T424 79L418 132Z" />
<glyph unicode="&#xb6;" horiz-adv-x="711" d="M70 442Q70 522 105 577T203 661T346 690H451V-185H369V195H346Q266 195 204 223T106 307T70 442ZM529 -185V690H611V-185H529Z" />
<glyph unicode="&#xb7;" horiz-adv-x="222" d="M50 278Q50 305 67 323T111 341Q139 341 155 323T172 278Q172 252 156 234T111 216Q85 216 68 234T50 278Z" />
<glyph unicode="&#xb8;" horiz-adv-x="600" d="M222 -240L234 -185Q287 -184 303 -171T320 -140Q320 -125 311 -116T282 -105L252 -103L270 15L328 9L316 -65Q360 -69 380 -89T400 -141Q400 -163 387 -186T341 -224T252 -240H222Z" />
<glyph unicode="&#xb9;" horiz-adv-x="440" d="M82 290V356H380V290H82ZM66 620L220 690L242 627L94 560L66 620ZM194 290V637L220 690H274V290H194Z" />
<glyph unicode="&#xba;" horiz-adv-x="480" d="M60 490Q60 561 84 607T150 677T240 700Q290 700 330 677T395 608T420 490Q420 419 396 373T331 303T240 280Q191 280 150 303T85 372T60 490ZM140 490Q140 417 169 383T240 348Q282 348 311 382T340 490Q340 564
311 598T240 632Q198 632 169 598T140 490Z" />
<glyph unicode="&#xbb;" horiz-adv-x="500" d="M20 83L179 293L239 292V247L119 83H20ZM20 458H119L239 294V249L179 248L20 458ZM241 83L400 293L460 292V247L340 83H241ZM241 458H340L460 294V249L400 248L241 458Z" />
<glyph unicode="&#xbc;" horiz-adv-x="741" d="M421 126L583 399H654L459 75L421 126ZM421 75V126L456 142H731V75H421ZM597 0V399H671V0H597ZM26 290V356H324V290H26ZM10 620L164 690L186 627L38 560L10 620ZM138 290V637L164 690H218V290H138ZM188 0L608 690H688L268
0H188Z" />
<glyph unicode="&#xbd;" horiz-adv-x="794" d="M282 290V356H580V290H282ZM266 620L420 690L442 627L294 560L266 620ZM394 290V637L420 690H474V290H394ZM174 0L594 690H674L254 0H174ZM500 0V56L560 68H784V0H500ZM500 56L634 186Q662 212 678 235T694 282Q694
307 677 322T632 338Q607 338 584 324T542 287L490 338Q522 374 556 392T634 410Q693 410 733 376T774 282Q774 250 752 212T688 136L540 0L500 56Z" />
<glyph unicode="&#xbe;" horiz-adv-x="711" d="M391 126L553 399H624L429 75L391 126ZM391 75V126L426 142H701V75H391ZM567 0V399H641V0H567ZM10 340L62 394Q82 372 105 361T156 350Q178 350 195 356T223 376T234 408Q234 437 211 452T146 468H97V514L128 525H163Q228
525 270 497T312 408Q312 367 291 339T235 295T156 280Q113 280 78 294T10 340ZM28 622V690H290V636L250 622H28ZM97 514L252 690L290 636L182 514H97ZM150 0L570 690H650L230 0H150Z" />
<glyph unicode="&#xbf;" horiz-adv-x="508" d="M60 -5Q60 31 74 61T113 117T172 162Q192 174 202 184T217 209T223 245L226 305H305L311 232Q315 191 299 163T251 113Q222 93 201 75T170 38T159 -5Q159 -33 172 -55T210 -91T265 -104Q316 -104 352 -82T420 -17L483
-83Q439 -136 386 -165T262 -195Q207 -195 161 -172T88 -106T60 -5ZM204 463Q204 489 220 507T265 525Q291 525 308 507T326 463Q326 436 309 418T265 400Q237 400 221 418T204 463Z" />
<glyph unicode="&#xc0;" horiz-adv-x="656" d="M20 0L286 690H335L343 600L120 0H20ZM150 194V280H506V194H150ZM309 600L313 690H370L636 0H532L309 600ZM187 910H298L373 760H297L187 910Z" />
<glyph unicode="&#xc1;" horiz-adv-x="656" d="M20 0L286 690H335L343 600L120 0H20ZM150 194V280H506V194H150ZM309 600L313 690H370L636 0H532L309 600ZM283 760L358 910H469L359 760H283Z" />
<glyph unicode="&#xc2;" horiz-adv-x="656" d="M20 0L286 690H335L343 600L120 0H20ZM150 194V280H506V194H150ZM309 600L313 690H370L636 0H532L309 600ZM190 760L277 910H373L267 760H190ZM283 910H379L466 760H389L283 910Z" />
<glyph unicode="&#xc3;" horiz-adv-x="656" d="M20 0L286 690H335L343 600L120 0H20ZM150 194V280H506V194H150ZM309 600L313 690H370L636 0H532L309 600ZM182 760Q187 817 209 848T271 880Q291 880 307 873T336 856T361 839T384 831Q395 831 403 840T414 875H474Q470
818 447 787T385 755Q365 755 349 762T320 779T295 796T272 804Q262 804 254 795T242 760H182Z" />
<glyph unicode="&#xc4;" horiz-adv-x="656" d="M20 0L286 690H335L343 600L120 0H20ZM150 194V280H506V194H150ZM309 600L313 690H370L636 0H532L309 600ZM173 812Q173 836 189 853T230 870Q257 870 272 853T287 812Q287 789 272 772T230 755Q205 755 189 772T173
812ZM369 812Q369 836 385 853T426 870Q453 870 468 853T483 812Q483 789 468 772T426 755Q401 755 385 772T369 812Z" />
<glyph unicode="&#xc5;" horiz-adv-x="656" d="M20 0L286 690H335L343 600L120 0H20ZM150 194V280H506V194H150ZM309 600L313 690H370L636 0H532L309 600ZM212 774Q212 825 245 856T328 888Q377 888 411 857T445 774Q445 723 411 692T328 660Q279 660 246 691T212
774ZM278 774Q278 746 292 731T328 715Q351 715 365 730T379 774Q379 802 365 817T328 833Q306 833 292 818T278 774Z" />
<glyph unicode="&#xc6;" horiz-adv-x="961" d="M10 0L308 690H355L370 620L110 0H10ZM150 194V280H506V194H150ZM440 0V690H536V0H440ZM490 0V86H891V0H490ZM490 307V393H836V307H490ZM320 604V690H886V604H320Z" />
<glyph unicode="&#xc7;" horiz-adv-x="644" d="M60 345Q60 431 84 497T152 608T252 676T373 700Q433 700 487 676T586 608L518 543Q487 575 451 592T373 609Q312 609 264 579T187 490T159 345Q159 259 187 200T263 111T373 81Q420 81 459 98T529 149L594 84Q549
38 494 14T373 -10Q309 -10 253 13T153 81T85 193T60 345ZM285 -240L297 -185Q350 -184 366 -171T383 -140Q383 -125 374 -116T345 -105L315 -103L333 15L391 9L379 -65Q423 -69 443 -89T463 -141Q463 -163 450 -186T404 -224T315 -240H285Z" />
<glyph unicode="&#xc8;" horiz-adv-x="621" d="M100 0V690H196V0H100ZM150 0V86H551V0H150ZM150 307V393H496V307H150ZM150 604V690H546V604H150ZM182 910H293L368 760H292L182 910Z" />
<glyph unicode="&#xc9;" horiz-adv-x="621" d="M100 0V690H196V0H100ZM150 0V86H551V0H150ZM150 307V393H496V307H150ZM150 604V690H546V604H150ZM278 760L353 910H464L354 760H278Z" />
<glyph unicode="&#xca;" horiz-adv-x="621" d="M100 0V690H196V0H100ZM150 0V86H551V0H150ZM150 307V393H496V307H150ZM150 604V690H546V604H150ZM185 760L272 910H368L262 760H185ZM278 910H374L461 760H384L278 910Z" />
<glyph unicode="&#xcb;" horiz-adv-x="621" d="M100 0V690H196V0H100ZM150 0V86H551V0H150ZM150 307V393H496V307H150ZM150 604V690H546V604H150ZM168 812Q168 836 184 853T225 870Q252 870 267 853T282 812Q282 789 267 772T225 755Q200 755 184 772T168 812ZM364
812Q364 836 380 853T421 870Q448 870 463 853T478 812Q478 789 463 772T421 755Q396 755 380 772T364 812Z" />
<glyph unicode="&#xcc;" horiz-adv-x="456" d="M80 0V81H376V0H80ZM80 609V690H376V609H80ZM180 0V690H276V0H180ZM87 910H198L273 760H197L87 910Z" />
<glyph unicode="&#xcd;" horiz-adv-x="456" d="M80 0V81H376V0H80ZM80 609V690H376V609H80ZM180 0V690H276V0H180ZM183 760L258 910H369L259 760H183Z" />
<glyph unicode="&#xce;" horiz-adv-x="456" d="M80 0V81H376V0H80ZM80 609V690H376V609H80ZM180 0V690H276V0H180ZM90 760L177 910H273L167 760H90ZM183 910H279L366 760H289L183 910Z" />
<glyph unicode="&#xcf;" horiz-adv-x="456" d="M80 0V81H376V0H80ZM80 609V690H376V609H80ZM180 0V690H276V0H180ZM73 812Q73 836 89 853T130 870Q157 870 172 853T187 812Q187 789 172 772T130 755Q105 755 89 772T73 812ZM269 812Q269 836 285 853T326 870Q353
870 368 853T383 812Q383 789 368 772T326 755Q301 755 285 772T269 812Z" />
<glyph unicode="&#xd0;" horiz-adv-x="711" d="M35 305V385H356V305H35ZM110 0V690H206V0H110ZM160 0V86H328Q392 86 442 116T522 204T552 345Q552 428 523 486T443 574T328 604H160V690H333Q422 690 494 650T608 533T651 345Q651 234 609 157T494 40T333 0H160Z" />
<glyph unicode="&#xd1;" horiz-adv-x="746" d="M100 0V690H196V0H100ZM144 690H246L602 0H500L144 690ZM550 0V690H646V0H550ZM243 760Q248 817 270 848T332 880Q352 880 368 873T397 856T422 839T445 831Q456 831 464 840T475 875H535Q531 818 508 787T446 755Q426
755 410 762T381 779T356 796T333 804Q323 804 315 795T303 760H243Z" />
<glyph unicode="&#xd2;" horiz-adv-x="726" d="M60 345Q60 432 83 498T149 610T246 677T363 700Q425 700 480 678T577 610T642 499T666 345Q666 258 643 192T577 80T480 13T363 -10Q301 -10 246 12T149 80T84 191T60 345ZM159 345Q159 279 174 229T217 146T282
96T363 79Q407 79 444 95T508 145T551 229T567 345Q567 411 552 461T509 544T444 594T363 611Q319 611 282 595T218 545T175 461T159 345ZM222 910H333L408 760H332L222 910Z" />
<glyph unicode="&#xd3;" horiz-adv-x="726" d="M60 345Q60 432 83 498T149 610T246 677T363 700Q425 700 480 678T577 610T642 499T666 345Q666 258 643 192T577 80T480 13T363 -10Q301 -10 246 12T149 80T84 191T60 345ZM159 345Q159 279 174 229T217 146T282
96T363 79Q407 79 444 95T508 145T551 229T567 345Q567 411 552 461T509 544T444 594T363 611Q319 611 282 595T218 545T175 461T159 345ZM318 760L393 910H504L394 760H318Z" />
<glyph unicode="&#xd4;" horiz-adv-x="726" d="M60 345Q60 432 83 498T149 610T246 677T363 700Q425 700 480 678T577 610T642 499T666 345Q666 258 643 192T577 80T480 13T363 -10Q301 -10 246 12T149 80T84 191T60 345ZM159 345Q159 279 174 229T217 146T282
96T363 79Q407 79 444 95T508 145T551 229T567 345Q567 411 552 461T509 544T444 594T363 611Q319 611 282 595T218 545T175 461T159 345ZM225 760L312 910H408L302 760H225ZM318 910H414L501 760H424L318 910Z" />
<glyph unicode="&#xd5;" horiz-adv-x="726" d="M60 345Q60 432 83 498T149 610T246 677T363 700Q425 700 480 678T577 610T642 499T666 345Q666 258 643 192T577 80T480 13T363 -10Q301 -10 246 12T149 80T84 191T60 345ZM159 345Q159 279 174 229T217 146T282
96T363 79Q407 79 444 95T508 145T551 229T567 345Q567 411 552 461T509 544T444 594T363 611Q319 611 282 595T218 545T175 461T159 345ZM217 760Q222 817 244 848T306 880Q326 880 342 873T371 856T396 839T419 831Q430 831 438 840T449 875H509Q505 818 482
787T420 755Q400 755 384 762T355 779T330 796T307 804Q297 804 289 795T277 760H217Z" />
<glyph unicode="&#xd6;" horiz-adv-x="726" d="M60 345Q60 432 83 498T149 610T246 677T363 700Q425 700 480 678T577 610T642 499T666 345Q666 258 643 192T577 80T480 13T363 -10Q301 -10 246 12T149 80T84 191T60 345ZM159 345Q159 279 174 229T217 146T282
96T363 79Q407 79 444 95T508 145T551 229T567 345Q567 411 552 461T509 544T444 594T363 611Q319 611 282 595T218 545T175 461T159 345ZM208 812Q208 836 224 853T265 870Q292 870 307 853T322 812Q322 789 307 772T265 755Q240 755 224 772T208 812ZM404 812Q404
836 420 853T461 870Q488 870 503 853T518 812Q518 789 503 772T461 755Q436 755 420 772T404 812Z" />
<glyph unicode="&#xd7;" horiz-adv-x="600" d="M84 448L141 505L516 130L459 73L84 448ZM84 130L459 505L516 448L141 73L84 130Z" />
<glyph unicode="&#xd8;" horiz-adv-x="726" d="M40 41L630 700L686 649L96 -10L40 41ZM60 345Q60 432 83 498T149 610T246 677T363 700Q425 700 480 678T577 610T642 499T666 345Q666 258 643 192T577 80T480 13T363 -10Q301 -10 246 12T149 80T84 191T60 345ZM159
345Q159 279 174 229T217 146T282 96T363 79Q407 79 444 95T508 145T551 229T567 345Q567 411 552 461T509 544T444 594T363 611Q319 611 282 595T218 545T175 461T159 345Z" />
<glyph unicode="&#xd9;" horiz-adv-x="706" d="M90 250V690H186V260Q186 202 207 162T265 100T354 79Q405 79 443 100T501 161T522 260V690H616V250Q616 167 582 109T488 20T353 -10Q279 -10 219 20T125 108T90 250ZM212 910H323L398 760H322L212 910Z" />
<glyph unicode="&#xda;" horiz-adv-x="706" d="M90 250V690H186V260Q186 202 207 162T265 100T354 79Q405 79 443 100T501 161T522 260V690H616V250Q616 167 582 109T488 20T353 -10Q279 -10 219 20T125 108T90 250ZM308 760L383 910H494L384 760H308Z" />
<glyph unicode="&#xdb;" horiz-adv-x="706" d="M90 250V690H186V260Q186 202 207 162T265 100T354 79Q405 79 443 100T501 161T522 260V690H616V250Q616 167 582 109T488 20T353 -10Q279 -10 219 20T125 108T90 250ZM215 760L302 910H398L292 760H215ZM308 910H404L491
760H414L308 910Z" />
<glyph unicode="&#xdc;" horiz-adv-x="706" d="M90 250V690H186V260Q186 202 207 162T265 100T354 79Q405 79 443 100T501 161T522 260V690H616V250Q616 167 582 109T488 20T353 -10Q279 -10 219 20T125 108T90 250ZM198 812Q198 836 214 853T255 870Q282 870
297 853T312 812Q312 789 297 772T255 755Q230 755 214 772T198 812ZM394 812Q394 836 410 853T451 870Q478 870 493 853T508 812Q508 789 493 772T451 755Q426 755 410 772T394 812Z" />
<glyph unicode="&#xdd;" horiz-adv-x="616" d="M15 690H125L329 341V270H268L15 690ZM260 0V320H356V0H260ZM291 341L495 690H601L348 270H291V341ZM265 760L340 910H451L341 760H265Z" />
<glyph unicode="&#xde;" horiz-adv-x="632" d="M100 0V690H196V0H100ZM150 135V221H338Q400 221 441 253T483 345Q483 405 442 437T338 469H150V555H343Q409 555 463 531T550 460T582 345Q582 277 550 230T464 159T343 135H150Z" />
<glyph unicode="&#xdf;" horiz-adv-x="602" d="M90 0V536Q90 601 115 644T185 708T290 730Q350 730 394 711T463 656T488 570Q488 524 467 488T415 423T354 366L440 315Q509 274 535 233T562 140Q562 97 540 63T479 10T388 -10Q343 -10 305 4T246 30L280 106Q303
91 330 79T392 67Q417 67 434 77T459 103T468 138Q468 165 451 187T386 238L265 310V400Q306 432 335 458T380 509T396 560Q396 604 367 627T290 651Q242 651 212 622T182 534V0H90Z" />
<glyph unicode="&#xe0;" horiz-adv-x="543" d="M60 132Q60 177 84 215T163 278T311 306L374 308V243L315 237Q250 231 215 216T167 182T154 140Q154 109 172 92T222 74Q265 74 305 96T381 157V85Q352 45 305 18T202 -10Q165 -10 133 7T80 56T60 132ZM75 472Q110
494 161 509T258 525Q315 525 360 503T431 437T458 325V122Q458 101 459 84T465 44L473 0H387L366 100V314Q366 380 335 408T249 437Q209 437 175 425T107 394L75 472ZM124 735H235L310 585H234L124 735Z" />
<glyph unicode="&#xe1;" horiz-adv-x="543" d="M60 132Q60 177 84 215T163 278T311 306L374 308V243L315 237Q250 231 215 216T167 182T154 140Q154 109 172 92T222 74Q265 74 305 96T381 157V85Q352 45 305 18T202 -10Q165 -10 133 7T80 56T60 132ZM75 472Q110
494 161 509T258 525Q315 525 360 503T431 437T458 325V122Q458 101 459 84T465 44L473 0H387L366 100V314Q366 380 335 408T249 437Q209 437 175 425T107 394L75 472ZM220 585L295 735H406L296 585H220Z" />
<glyph unicode="&#xe2;" horiz-adv-x="543" d="M60 132Q60 177 84 215T163 278T311 306L374 308V243L315 237Q250 231 215 216T167 182T154 140Q154 109 172 92T222 74Q265 74 305 96T381 157V85Q352 45 305 18T202 -10Q165 -10 133 7T80 56T60 132ZM75 472Q110
494 161 509T258 525Q315 525 360 503T431 437T458 325V122Q458 101 459 84T465 44L473 0H387L366 100V314Q366 380 335 408T249 437Q209 437 175 425T107 394L75 472ZM127 585L214 735H310L204 585H127ZM220 735H316L403 585H326L220 735Z" />
<glyph unicode="&#xe3;" horiz-adv-x="543" d="M60 132Q60 177 84 215T163 278T311 306L374 308V243L315 237Q250 231 215 216T167 182T154 140Q154 109 172 92T222 74Q265 74 305 96T381 157V85Q352 45 305 18T202 -10Q165 -10 133 7T80 56T60 132ZM75 472Q110
494 161 509T258 525Q315 525 360 503T431 437T458 325V122Q458 101 459 84T465 44L473 0H387L366 100V314Q366 380 335 408T249 437Q209 437 175 425T107 394L75 472ZM119 585Q124 642 146 673T208 705Q228 705 244 698T273 681T298 664T321 656Q332 656 340 665T351
700H411Q407 643 384 612T322 580Q302 580 286 587T257 604T232 621T209 629Q199 629 191 620T179 585H119Z" />
<glyph unicode="&#xe4;" horiz-adv-x="543" d="M60 132Q60 177 84 215T163 278T311 306L374 308V243L315 237Q250 231 215 216T167 182T154 140Q154 109 172 92T222 74Q265 74 305 96T381 157V85Q352 45 305 18T202 -10Q165 -10 133 7T80 56T60 132ZM75 472Q110
494 161 509T258 525Q315 525 360 503T431 437T458 325V122Q458 101 459 84T465 44L473 0H387L366 100V314Q366 380 335 408T249 437Q209 437 175 425T107 394L75 472ZM110 637Q110 661 126 678T167 695Q194 695 209 678T224 637Q224 614 209 597T167 580Q142 580
126 597T110 637ZM306 637Q306 661 322 678T363 695Q390 695 405 678T420 637Q420 614 405 597T363 580Q338 580 322 597T306 637Z" />
<glyph unicode="&#xe5;" horiz-adv-x="543" d="M60 132Q60 177 84 215T163 278T311 306L374 308V243L315 237Q250 231 215 216T167 182T154 140Q154 109 172 92T222 74Q265 74 305 96T381 157V85Q352 45 305 18T202 -10Q165 -10 133 7T80 56T60 132ZM75 472Q110
494 161 509T258 525Q315 525 360 503T431 437T458 325V122Q458 101 459 84T465 44L473 0H387L366 100V314Q366 380 335 408T249 437Q209 437 175 425T107 394L75 472ZM149 694Q149 745 182 776T265 808Q314 808 348 777T382 694Q382 643 348 612T265 580Q216 580
183 611T149 694ZM215 694Q215 666 229 651T265 635Q288 635 302 650T316 694Q316 722 302 737T265 753Q243 753 229 738T215 694Z" />
<glyph unicode="&#xe6;" horiz-adv-x="853" d="M60 132Q60 177 84 215T163 278T311 306L374 308V243L315 237Q250 231 215 216T167 182T154 140Q154 109 175 92T232 74Q276 74 314 95T382 156L434 120Q397 63 342 27T218 -10Q177 -10 141 7T82 56T60 132ZM75 472Q110
494 161 509T258 525Q313 525 357 503T428 437T454 325V260H366V314Q366 380 335 408T249 437Q223 437 199 432T153 417T107 394L75 472ZM366 252Q366 342 395 403T474 494T585 525Q644 525 692 497T769 411T798 267Q798 258 798 249T796 230H434V304H726L708 267Q708
363 672 403T584 444Q526 444 490 396T454 252Q454 193 474 154T530 94T609 74Q645 74 675 86T728 116L771 43Q737 15 695 3T606 -10Q537 -10 483 19T398 106T366 252Z" />
<glyph unicode="&#xe7;" horiz-adv-x="504" d="M55 252Q55 337 88 398T179 492T306 525Q350 525 393 509T467 460L411 393Q392 415 365 428T302 441Q261 441 226 419T170 355T149 252Q149 192 169 153T224 94T297 74Q336 74 366 87T416 122L469 55Q439 24 394
7T301 -10Q231 -10 176 19T88 106T55 252ZM208 -240L220 -185Q273 -184 289 -171T306 -140Q306 -125 297 -116T268 -105L238 -103L256 15L314 9L302 -65Q346 -69 366 -89T386 -141Q386 -163 373 -186T327 -224T238 -240H208Z" />
<glyph unicode="&#xe8;" horiz-adv-x="553" d="M55 252Q55 342 86 403T169 494T285 525Q344 525 392 497T469 411T498 267Q498 258 498 249T496 230H134V304H426L408 267Q408 363 372 403T284 444Q244 444 214 423T166 359T149 252Q149 193 170 154T228 94T309
74Q345 74 375 86T428 116L471 43Q437 15 395 3T306 -10Q234 -10 178 19T88 106T55 252ZM144 735H255L330 585H254L144 735Z" />
<glyph unicode="&#xe9;" horiz-adv-x="553" d="M55 252Q55 342 86 403T169 494T285 525Q344 525 392 497T469 411T498 267Q498 258 498 249T496 230H134V304H426L408 267Q408 363 372 403T284 444Q244 444 214 423T166 359T149 252Q149 193 170 154T228 94T309
74Q345 74 375 86T428 116L471 43Q437 15 395 3T306 -10Q234 -10 178 19T88 106T55 252ZM240 585L315 735H426L316 585H240Z" />
<glyph unicode="&#xea;" horiz-adv-x="553" d="M55 252Q55 342 86 403T169 494T285 525Q344 525 392 497T469 411T498 267Q498 258 498 249T496 230H134V304H426L408 267Q408 363 372 403T284 444Q244 444 214 423T166 359T149 252Q149 193 170 154T228 94T309
74Q345 74 375 86T428 116L471 43Q437 15 395 3T306 -10Q234 -10 178 19T88 106T55 252ZM147 585L234 735H330L224 585H147ZM240 735H336L423 585H346L240 735Z" />
<glyph unicode="&#xeb;" horiz-adv-x="553" d="M55 252Q55 342 86 403T169 494T285 525Q344 525 392 497T469 411T498 267Q498 258 498 249T496 230H134V304H426L408 267Q408 363 372 403T284 444Q244 444 214 423T166 359T149 252Q149 193 170 154T228 94T309
74Q345 74 375 86T428 116L471 43Q437 15 395 3T306 -10Q234 -10 178 19T88 106T55 252ZM130 637Q130 661 146 678T187 695Q214 695 229 678T244 637Q244 614 229 597T187 580Q162 580 146 597T130 637ZM326 637Q326 661 342 678T383 695Q410 695 425 678T440 637Q440
614 425 597T383 580Q358 580 342 597T326 637Z" />
<glyph unicode="&#xec;" horiz-adv-x="272" d="M90 0V515H182V0H90ZM-5 735H106L181 585H105L-5 735Z" />
<glyph unicode="&#xed;" horiz-adv-x="272" d="M90 0V515H182V0H90ZM91 585L166 735H277L167 585H91Z" />
<glyph unicode="&#xee;" horiz-adv-x="272" d="M90 0V515H182V0H90ZM-2 585L85 735H181L75 585H-2ZM91 735H187L274 585H197L91 735Z" />
<glyph unicode="&#xef;" horiz-adv-x="272" d="M90 0V515H182V0H90ZM-19 637Q-19 661 -3 678T38 695Q65 695 80 678T95 637Q95 614 80 597T38 580Q13 580 -3 597T-19 637ZM177 637Q177 661 193 678T234 695Q261 695 276 678T291 637Q291 614 276 597T234 580Q209
580 193 597T177 637Z" />
<glyph unicode="&#xf0;" horiz-adv-x="575" d="M55 235Q55 315 86 369T165 452T266 480Q309 480 340 466T393 428T430 380V310Q409 351 370 375T286 399Q248 399 217 381T168 326T149 235Q149 155 189 113T286 71Q324 71 355 93T404 157T423 260Q423 328 404 392T349
515T265 625T160 720H280Q324 689 365 641T441 534T495 405T515 260Q515 173 484 113T400 21T286 -10Q224 -10 172 18T87 100T55 235ZM199 538L170 590L420 730L449 678L199 538Z" />
<glyph unicode="&#xf1;" horiz-adv-x="604" d="M75 515H161L182 415V0H90V393Q90 414 89 431T83 471L75 515ZM167 358V430Q200 472 245 498T340 525Q391 525 431 502T495 433T519 316V0H427V304Q427 351 413 380T373 424T316 438Q276 438 238 417T167 358ZM168
585Q173 642 195 673T257 705Q277 705 293 698T322 681T347 664T370 656Q381 656 389 665T400 700H460Q456 643 433 612T371 580Q351 580 335 587T306 604T281 621T258 629Q248 629 240 620T228 585H168Z" />
<glyph unicode="&#xf2;" horiz-adv-x="572" d="M55 257Q55 344 85 403T167 494T286 525Q353 525 405 494T487 404T517 257Q517 171 487 111T405 21T286 -10Q219 -10 167 20T85 111T55 257ZM149 257Q149 197 165 156T212 93T286 71Q329 71 359 92T406 155T423 257Q423
317 407 358T360 422T286 444Q243 444 213 422T166 359T149 257ZM145 735H256L331 585H255L145 735Z" />
<glyph unicode="&#xf3;" horiz-adv-x="572" d="M55 257Q55 344 85 403T167 494T286 525Q353 525 405 494T487 404T517 257Q517 171 487 111T405 21T286 -10Q219 -10 167 20T85 111T55 257ZM149 257Q149 197 165 156T212 93T286 71Q329 71 359 92T406 155T423 257Q423
317 407 358T360 422T286 444Q243 444 213 422T166 359T149 257ZM241 585L316 735H427L317 585H241Z" />
<glyph unicode="&#xf4;" horiz-adv-x="572" d="M55 257Q55 344 85 403T167 494T286 525Q353 525 405 494T487 404T517 257Q517 171 487 111T405 21T286 -10Q219 -10 167 20T85 111T55 257ZM149 257Q149 197 165 156T212 93T286 71Q329 71 359 92T406 155T423 257Q423
317 407 358T360 422T286 444Q243 444 213 422T166 359T149 257ZM148 585L235 735H331L225 585H148ZM241 735H337L424 585H347L241 735Z" />
<glyph unicode="&#xf5;" horiz-adv-x="572" d="M55 257Q55 344 85 403T167 494T286 525Q353 525 405 494T487 404T517 257Q517 171 487 111T405 21T286 -10Q219 -10 167 20T85 111T55 257ZM149 257Q149 197 165 156T212 93T286 71Q329 71 359 92T406 155T423 257Q423
317 407 358T360 422T286 444Q243 444 213 422T166 359T149 257ZM140 585Q145 642 167 673T229 705Q249 705 265 698T294 681T319 664T342 656Q353 656 361 665T372 700H432Q428 643 405 612T343 580Q323 580 307 587T278 604T253 621T230 629Q220 629 212 620T200
585H140Z" />
<glyph unicode="&#xf6;" horiz-adv-x="572" d="M55 257Q55 344 85 403T167 494T286 525Q353 525 405 494T487 404T517 257Q517 171 487 111T405 21T286 -10Q219 -10 167 20T85 111T55 257ZM149 257Q149 197 165 156T212 93T286 71Q329 71 359 92T406 155T423 257Q423
317 407 358T360 422T286 444Q243 444 213 422T166 359T149 257ZM131 637Q131 661 147 678T188 695Q215 695 230 678T245 637Q245 614 230 597T188 580Q163 580 147 597T131 637ZM327 637Q327 661 343 678T384 695Q411 695 426 678T441 637Q441 614 426 597T384
580Q359 580 343 597T327 637Z" />
<glyph unicode="&#xf7;" horiz-adv-x="600" d="M73 250V330H527V250H73ZM239 118Q239 144 256 162T300 180Q328 180 344 162T361 118Q361 91 345 73T300 55Q274 55 257 73T239 118ZM239 462Q239 489 256 507T300 525Q328 525 344 507T361 462Q361 436 345 418T300
400Q274 400 257 418T239 462Z" />
<glyph unicode="&#xf8;" horiz-adv-x="572" d="M55 257Q55 344 85 403T167 494T286 525Q353 525 405 494T487 404T517 257Q517 171 487 111T405 21T286 -10Q219 -10 167 20T85 111T55 257ZM147 257Q147 166 184 118T286 70Q351 70 388 118T425 257Q425 348 388
396T286 445Q221 445 184 397T147 257ZM35 41L481 525L537 474L91 -10L35 41Z" />
<glyph unicode="&#xf9;" horiz-adv-x="600" d="M85 199V515H177V211Q177 141 207 109T286 77Q326 77 363 98T433 157V85Q400 43 356 17T262 -10Q211 -10 171 13T108 82T85 199ZM439 0L418 100V515H510V122Q510 101 511 84T517 44L525 0H439ZM157 735H268L343 585H267L157
735Z" />
<glyph unicode="&#xfa;" horiz-adv-x="600" d="M85 199V515H177V211Q177 141 207 109T286 77Q326 77 363 98T433 157V85Q400 43 356 17T262 -10Q211 -10 171 13T108 82T85 199ZM439 0L418 100V515H510V122Q510 101 511 84T517 44L525 0H439ZM253 585L328 735H439L329
585H253Z" />
<glyph unicode="&#xfb;" horiz-adv-x="600" d="M85 199V515H177V211Q177 141 207 109T286 77Q326 77 363 98T433 157V85Q400 43 356 17T262 -10Q211 -10 171 13T108 82T85 199ZM439 0L418 100V515H510V122Q510 101 511 84T517 44L525 0H439ZM160 585L247 735H343L237
585H160ZM253 735H349L436 585H359L253 735Z" />
<glyph unicode="&#xfc;" horiz-adv-x="600" d="M85 199V515H177V211Q177 141 207 109T286 77Q326 77 363 98T433 157V85Q400 43 356 17T262 -10Q211 -10 171 13T108 82T85 199ZM439 0L418 100V515H510V122Q510 101 511 84T517 44L525 0H439ZM143 637Q143 661 159
678T200 695Q227 695 242 678T257 637Q257 614 242 597T200 580Q175 580 159 597T143 637ZM339 637Q339 661 355 678T396 695Q423 695 438 678T453 637Q453 614 438 597T396 580Q371 580 355 597T339 637Z" />
<glyph unicode="&#xfd;" horiz-adv-x="496" d="M10 515H109L264 90L265 0H212L10 515ZM24 -183L37 -108Q50 -112 59 -113T82 -115Q106 -115 127 -104T168 -63T211 23L238 90L391 515H486L274 -26Q250 -88 219 -125T154 -179T83 -195Q67 -195 53 -192T24 -183ZM205
585L280 735H391L281 585H205Z" />
<glyph unicode="&#xfe;" horiz-adv-x="586" d="M90 -200V715L182 735V-180L90 -200ZM142 222L182 232Q182 175 200 139T245 85T303 67Q365 67 401 120T437 259Q437 318 421 358T377 419T314 440Q274 440 237 418T167 358V430Q200 472 245 498T339 525Q392 525
435 494T505 403T531 262Q531 177 505 116T431 23T318 -10Q275 -10 235 13T168 87T142 222Z" />
<glyph unicode="&#xff;" horiz-adv-x="496" d="M10 515H109L264 90L265 0H212L10 515ZM24 -183L37 -108Q50 -112 59 -113T82 -115Q106 -115 127 -104T168 -63T211 23L238 90L391 515H486L274 -26Q250 -88 219 -125T154 -179T83 -195Q67 -195 53 -192T24 -183ZM95
637Q95 661 111 678T152 695Q179 695 194 678T209 637Q209 614 194 597T152 580Q127 580 111 597T95 637ZM291 637Q291 661 307 678T348 695Q375 695 390 678T405 637Q405 614 390 597T348 580Q323 580 307 597T291 637Z" />
<glyph unicode="&#x2013;" horiz-adv-x="604" d="M60 240V310H544V240H60Z" />
<glyph unicode="&#x2014;" horiz-adv-x="881" d="M60 240V310H821V240H60Z" />
<glyph unicode="&#x2018;" horiz-adv-x="222" d="M165 720L130 582Q148 577 161 562T174 522Q174 495 156 478T111 460Q83 460 66 478T48 531Q48 548 52 564T64 600L109 720H165Z" />
<glyph unicode="&#x2019;" horiz-adv-x="182" d="M57 470L92 608Q74 613 61 628T48 668Q48 695 66 712T111 730Q139 730 156 712T174 659Q174 643 170 627T158 590L113 470H57Z" />
<glyph unicode="&#x201a;" horiz-adv-x="222" d="M57 -145L92 -7Q74 -2 61 13T48 53Q48 80 66 97T111 115Q139 115 156 97T174 44Q174 28 170 12T158 -25L113 -145H57Z" />
<glyph unicode="&#x201c;" horiz-adv-x="397" d="M165 720L130 582Q148 577 161 562T174 522Q174 495 156 478T111 460Q83 460 66 478T48 531Q48 548 52 564T64 600L109 720H165ZM340 720L305 582Q323 577 336 562T349 522Q349 495 331 478T286 460Q258 460 241
478T223 531Q223 548 227 564T239 600L284 720H340Z" />
<glyph unicode="&#x201d;" horiz-adv-x="397" d="M57 470L92 608Q74 613 61 628T48 668Q48 695 66 712T111 730Q139 730 156 712T174 659Q174 643 170 627T158 590L113 470H57ZM232 470L267 608Q249 613 236 628T223 668Q223 695 241 712T286 730Q314 730 331
712T349 659Q349 643 345 627T333 590L288 470H232Z" />
<glyph unicode="&#x201e;" horiz-adv-x="397" d="M57 -145L92 -7Q74 -2 61 13T48 53Q48 80 66 97T111 115Q139 115 156 97T174 44Q174 28 170 12T158 -25L113 -145H57ZM232 -145L267 -7Q249 -2 236 13T223 53Q223 80 241 97T286 115Q314 115 331 97T349 44Q349
28 345 12T333 -25L288 -145H232Z" />
<glyph unicode="&#x2022;" horiz-adv-x="400" d="M80 290Q80 343 114 376T200 410Q253 410 286 377T320 290Q320 238 287 204T200 170Q148 170 114 204T80 290Z" />
<glyph unicode="&#x2039;" horiz-adv-x="299" d="M45 247V292L105 293L264 83H165L45 247ZM45 249V294L165 458H264L105 248L45 249Z" />
<glyph unicode="&#x203a;" horiz-adv-x="299" d="M35 83L194 293L254 292V247L134 83H35ZM35 458H134L254 294V249L194 248L35 458Z" />
</font>
</defs>
</svg>
