<?xml version="1.0" standalone="no"?>
<!DOCTYPE svg PUBLIC "-//W3C//DTD SVG 1.1//EN" "http://www.w3.org/Graphics/SVG/1.1/DTD/svg11.dtd">
<svg xmlns="http://www.w3.org/2000/svg">
<defs >
<font id="LibreCaslonText" horiz-adv-x="634" ><font-face
    font-family="Libre Caslon Text"
    units-per-em="1000"
    panose-1="0 0 8 0 0 0 0 0 0 0"
    ascent="970"
    descent="-260"
    alphabetic="0" />
<glyph unicode=" " glyph-name="space" horiz-adv-x="253" />
<glyph unicode="!" glyph-name="exclam" horiz-adv-x="327" d="M133 334T101 489Q86 565 80 611T73 691Q73 730 97 755T164 780Q209 780 231 756T254 694Q254 656 248 611T225 486Q194 339 194 230H133Q133 334 101 489ZM76 106T99 130T162 155Q202 155 226 131T251
72Q251 39 228 15T162 -10Q122 -10 99 14T76 72Q76 106 99 130Z" />
<glyph unicode="&quot;" glyph-name="quotedbl" horiz-adv-x="374" d="M84 550T78 590T60 683Q47 742 47 760Q47 792 64 811T110 830Q140 830 156 812T173 764Q173 744 160 681Q149 627 143 589T135 505H85Q84 550 78 590ZM238 550T232 590T214 683Q201 742 201
760Q201 792 218 811T264 830Q294 830 310 812T327 764Q327 744 314 681Q303 627 297 589T289 505H239Q238 550 232 590Z" />
<glyph unicode="#" glyph-name="numbersign" horiz-adv-x="667" d="M482 463L460 323H594L580 256H450L424 92H357L383 256H244L218 92H150L176 256H36L50 323H186L208 463H74L86 530H219L245 696H313L287 530H426L452 696H519L493 530H630L618 463H482ZM415 463H276L254
323H393L415 463Z" />
<glyph unicode="$" glyph-name="dollar" horiz-adv-x="565" d="M527 135T470 74T319 -4V-102H259V-9H257Q199 -9 150 11T72 64T43 138Q43 167 60 184T107 202Q160 202 178 129Q194 57 259 50V318L234 332Q172 365 134 392T69 463T42 568Q42 622 69 666T146 740T259
777V888H319V780Q373 778 417 758T486 704T511 632Q511 605 495 589T452 573Q424 573 407 589T381 641Q366 703 319 717V469L340 458Q401 426 438 399T501 328T527 218Q527 135 470 74ZM187 591T206 561T259 506V718Q226 710 207 688T187 633Q187 591 206 561ZM355
64T375 88T395 149Q395 191 375 222T319 280V54Q355 64 375 88Z" />
<glyph unicode="%" glyph-name="percent" horiz-adv-x="1014" d="M295 783T342 751T416 664T444 543Q444 478 417 424T343 338T239 307Q182 307 136 338T62 423T35 543Q35 609 62 664T136 751T239 783Q295 783 342 751ZM686 770H791L326 0H222L686 770ZM222 742T213
726T200 666T195 543Q195 463 199 422T213 365T239 349Q256 349 265 364T279 421T284 543Q284 624 280 666T266 725T239 742Q222 742 213 726ZM830 466T877 434T951 347T979 226Q979 161 952 107T878 21T774 -10Q717 -10 671 21T597 106T570 226Q570 292 597 347T671
434T774 466Q830 466 877 434ZM757 425T748 409T735 349T730 226Q730 146 734 105T748 48T774 32Q791 32 800 47T814 104T819 226Q819 307 815 349T801 408T774 425Q757 425 748 409Z" />
<glyph unicode="&amp;" glyph-name="ampersand" horiz-adv-x="825" d="M833 36V0H604L534 85Q480 31 422 11T298 -10Q177 -10 117 41T57 181Q57 228 76 264T135 336T256 428L250 435Q172 530 172 608Q172 660 201 699T278 759T374 780Q440 780 484 745T529 653Q529
565 405 474L591 244Q623 315 623 388Q623 409 618 417T596 431T538 441V483H793V441Q754 437 736 430T710 412T696 377Q687 342 668 296T623 205L737 64L833 36ZM339 736T322 716T305 658Q305 625 320 593T372 514Q401 541 412 569T424 634Q424 688 407 712T363
736Q339 736 322 716ZM390 64T429 79T502 125L286 391Q248 360 225 322T202 233Q202 190 220 151T272 88T353 64Q390 64 429 79Z" />
<glyph unicode="&apos;" glyph-name="quotesingle" horiz-adv-x="220" d="M84 550T78 590T60 683Q47 742 47 760Q47 792 64 811T110 830Q139 830 156 812T173 764Q173 744 160 681Q149 627 143 589T135 505H85Q84 550 78 590Z" />
<glyph unicode="(" glyph-name="parenleft" horiz-adv-x="316" d="M169 32T169 304Q169 402 188 503T234 685T284 810L258 830Q206 787 155 706T71 519T37 305Q37 9 241 -200L272 -177Q169 32 169 304Z" />
<glyph unicode=")" glyph-name="parenright" horiz-adv-x="316" d="M279 9T279 305Q279 413 246 518T161 705T58 830L32 810Q55 767 82 686T128 503T147 304Q147 32 44 -177L75 -200Q279 9 279 305Z" />
<glyph unicode="*" glyph-name="asterisk" horiz-adv-x="483" d="M308 554T326 532Q341 513 353 504T383 495Q401 495 414 509T427 542Q427 569 409 579T355 596Q330 599 315 606L280 622L318 639Q330 644 354 648Q390 654 409 664T429 702Q429 720 416 734T384
749Q366 749 356 741T330 714Q309 689 293 678L261 656L263 694Q264 715 277 743Q287 767 287 779Q287 804 274 817T241 830Q222 830 209 817T195 779Q195 767 205 741Q216 714 218 696L222 656L190 678Q171 691 154 714Q138 732 127 740T98 749Q79 749 67 735T54
702Q54 675 72 665T126 649Q156 643 165 639L203 622L168 606Q158 601 130 597Q94 591 75 581T56 542Q56 523 69 509T100 495Q118 495 129 503T155 530Q173 555 189 566L222 591L220 551Q219 537 215 524T206 500Q196 478 196 466Q196 440 209 427T241 414Q261
414 274 427T288 465Q288 478 278 502Q266 528 265 548L262 591L294 566Q308 554 326 532Z" />
<glyph unicode="+" glyph-name="plus" horiz-adv-x="491" d="M451 307H280V134H213V307H41V372H213V544H280V372H451V307Z" />
<glyph unicode="," glyph-name="comma" horiz-adv-x="277" d="M102 -102T123 -74T145 -25Q145 -11 136 -3T105 18Q78 33 65 47T51 87Q51 121 75 143T136 165Q177 165 201 134T225 47Q225 -17 190 -71T93 -159L69 -126Q102 -102 123 -74Z" />
<glyph unicode="-" glyph-name="hyphen" horiz-adv-x="445" d="M63 305H382V199H63V305Z" />
<glyph unicode="." glyph-name="period" horiz-adv-x="280" d="M50 114T74 139T138 164Q178 164 204 139T230 76Q230 38 205 14T139 -10Q99 -10 75 14T50 76Q50 114 74 139Z" />
<glyph unicode="/" glyph-name="slash" horiz-adv-x="378" d="M240 819H340L139 -169H40L240 819Z" />
<glyph unicode="0" glyph-name="zero" horiz-adv-x="644" d="M396 780T458 727T557 583T594 381Q594 272 558 183T460 42T321 -10Q246 -10 184 41T86 182T50 381Q50 491 86 582T184 727T321 780Q396 780 458 727ZM288 720T269 691T242 589T233 382Q233 247 241
176T268 78T321 50Q355 50 374 77T402 176T411 382Q411 516 402 588T374 690T321 720Q288 720 269 691Z" />
<glyph unicode="1" glyph-name="one" horiz-adv-x="455" d="M319 62L445 36V0H41V36L164 62V615H41V658Q108 670 162 699T273 780L319 772V62Z" />
<glyph unicode="2" glyph-name="two" horiz-adv-x="597" d="M31 58Q155 177 228 263T334 416T367 543Q367 607 335 645T251 684Q205 684 160 652T88 568L47 589Q81 678 149 729T304 780Q369 780 422 752T506 674T537 563Q537 500 506 438T402 303T203 131H440Q470
161 510 233L555 225L472 -33H440L419 0H40L31 58Z" />
<glyph unicode="3" glyph-name="three" horiz-adv-x="571" d="M229 439T276 491T323 600Q323 640 301 663T240 686Q199 686 161 660T102 591L66 605Q83 684 145 732T294 780Q377 780 428 737T479 624Q479 567 438 523T338 463V459Q423 451 474 396T526 255Q526
183 488 122T384 26T239 -10Q182 -10 135 8T61 58T34 128Q34 161 53 181T105 202Q135 202 149 185T179 131Q195 93 212 74T264 54Q310 54 337 92T364 196Q364 276 325 322T219 369Q188 369 165 364L149 408Q229 439 276 491Z" />
<glyph unicode="4" glyph-name="four" horiz-adv-x="599" d="M27 192L9 250L382 780L462 770V290H555V192H462V60L551 37V0H187V37L307 60V192H27ZM303 556L116 294L117 290H307V556H303Z" />
<glyph unicode="5" glyph-name="five" horiz-adv-x="558" d="M196 497T214 498T258 500Q335 500 393 472T484 391T516 269Q516 190 478 127T374 27T225 -10Q169 -10 124 7T53 53T27 120Q27 152 47 173T98 194Q127 194 140 178T166 129Q180 93 197 74T254 54Q310
54 346 96T382 205Q382 272 340 314T231 357Q174 357 131 328H90L149 757H421Q431 769 452 807L488 790L444 620H196L179 490Q196 497 214 498Z" />
<glyph unicode="6" glyph-name="six" horiz-adv-x="604" d="M186 -10T116 65T46 272Q46 381 95 481T234 658T443 777L466 737Q411 708 359 654T272 536T229 420Q247 445 279 458T353 472Q416 472 466 442T545 357T574 236Q574 164 541 108T447 21T308 -10Q186
-10 116 65ZM359 50T384 95T410 219Q410 301 383 349T309 397Q283 397 262 383T227 343Q215 298 215 237Q215 151 242 101T316 50Q359 50 384 95Z" />
<glyph unicode="7" glyph-name="seven" horiz-adv-x="527" d="M525 729Q427 512 388 414T260 58Q236 -10 181 -10Q147 -10 128 6T108 51Q108 89 148 164L391 620H112Q81 589 55 538L17 555L105 803L142 795Q142 771 148 757H509L525 729Z" />
<glyph unicode="8" glyph-name="eight" horiz-adv-x="622" d="M497 394T536 342T575 223Q575 156 541 103T445 20T305 -10Q225 -10 167 16T79 89T48 196Q48 255 84 299T195 378Q135 419 106 467T77 577Q77 638 106 684T189 755T314 780Q381 780 432 759T511 698T540
607Q540 554 507 512T410 442Q497 394 536 342ZM415 529T415 607Q415 660 386 690T307 720Q260 720 233 694T206 623Q206 578 240 542T350 469Q415 529 415 607ZM220 329T204 292T188 206Q188 132 222 91T317 50Q372 50 405 82T439 166Q439 220 394 263T249 349Q220
329 204 292Z" />
<glyph unicode="9" glyph-name="nine" horiz-adv-x="603" d="M417 777T487 702T557 495Q557 386 508 286T369 109T160 -10L137 30Q191 60 243 116T331 238T374 357Q356 332 324 319T250 305Q187 305 137 334T58 415T29 531Q29 603 62 659T156 746T295 777Q417
777 487 702ZM244 717T219 672T193 548Q193 471 220 426T294 380Q320 380 341 394T376 434Q388 475 388 530Q388 616 361 666T287 717Q244 717 219 672Z" />
<glyph unicode=":" glyph-name="colon" horiz-adv-x="300" d="M63 423T86 447T148 471Q188 471 212 447T237 388Q237 355 214 331T148 306Q108 306 86 330T63 388Q63 423 86 447ZM63 107T86 131T148 155Q188 155 212 131T237 72Q237 39 214 15T148 -10Q108 -10
86 14T63 72Q63 107 86 131Z" />
<glyph unicode=";" glyph-name="semicolon" horiz-adv-x="301" d="M63 423T86 447T148 471Q188 471 212 447T237 388Q237 355 214 331T148 306Q108 306 86 330T63 388Q63 423 86 447ZM114 -112T135 -84T157 -35Q157 -21 148 -13T117 8Q90 23 77 37T63 77Q63 111
87 133T148 155Q189 155 213 124T237 37Q237 -27 202 -81T105 -169L81 -136Q114 -112 135 -84Z" />
<glyph unicode="&lt;" glyph-name="less" horiz-adv-x="508" d="M33 361L442 556V475L125 341V337L442 201V116L33 310V361Z" />
<glyph unicode="=" glyph-name="equal" horiz-adv-x="546" d="M68 455H478V392H68V455ZM68 294H478V231H68V294Z" />
<glyph unicode="&gt;" glyph-name="greater" horiz-adv-x="509" d="M67 201L384 337V341L67 475V561L476 366V315L67 121V201Z" />
<glyph unicode="?" glyph-name="question" horiz-adv-x="421" d="M163 324L193 325Q284 328 334 381T384 529Q384 605 353 662T268 749T145 780Q77 780 77 721Q77 694 105 670T204 620Q260 599 287 585T323 560T332 531Q332 498 286 480T150 461H94V230H163V324ZM41
106T64 130T127 155Q167 155 191 131T216 72Q216 39 193 15T127 -10Q87 -10 64 14T41 72Q41 106 64 130Z" />
<glyph unicode="@" glyph-name="at" horiz-adv-x="920" d="M518 -159T579 -144T683 -99L665 -56Q622 -81 575 -93T468 -106Q354 -106 275 -68T156 40T116 206Q116 314 167 401T307 539T508 589Q637 589 713 522T789 331Q789 266 768 213T714 131T646 101Q610 101
610 141Q610 157 617 181L698 461H581L572 420H568Q555 440 537 450T484 461Q412 461 352 417T257 306T222 173Q222 101 260 73T344 45Q421 45 496 120H500Q507 72 530 52Q556 29 606 29Q677 29 737 73T831 188T866 336Q866 419 825 491T704 606T519 650Q397 650
288 593T112 433T45 201Q45 90 95 9T237 -116T447 -159Q518 -159 579 -144ZM371 99T363 112T355 154Q355 206 377 265T434 366T503 407Q520 407 526 396T533 361Q533 325 522 285T497 212Q472 155 443 127T388 99Q371 99 363 112Z" />
<glyph unicode="A" glyph-name="A" horiz-adv-x="781" d="M707 74T718 62T748 45T805 37V0H393V37Q449 39 470 46T491 74Q491 90 482 114L442 222H217L188 146Q177 116 177 99Q177 74 202 60T290 37V0H-20V37Q29 45 52 55T88 84T119 148L308 630L262 733L411 790L697
98Q707 74 718 62ZM421 279L334 516H330L239 279H421Z" />
<glyph unicode="B" glyph-name="B" horiz-adv-x="751" d="M454 770T504 760T589 729Q628 704 649 666T671 583Q671 522 623 480T485 422V418Q586 408 647 350T709 204Q709 159 690 119T635 52Q597 24 542 12T397 0H42V37L127 59V712L42 733V770H379Q454 770 504
760ZM310 437Q344 437 363 440Q423 446 455 482T488 579Q488 648 446 682Q403 716 317 716H299V437H310ZM299 113Q299 78 315 66T376 53Q450 53 485 92T521 213Q521 301 476 342T336 383H299V113Z" />
<glyph unicode="C" glyph-name="C" horiz-adv-x="813" d="M45 496T95 587T235 729T439 780Q502 780 564 764T675 719H679L723 770H753V525H705Q683 583 661 616Q626 670 578 695T467 721Q351 721 293 638T234 390Q234 224 292 137T463 50Q524 50 574 76T658 152Q695
207 708 277H753V0H716L675 66Q617 26 560 8T436 -10Q321 -10 233 39T95 176T45 380Q45 496 95 587Z" />
<glyph unicode="D" glyph-name="D" horiz-adv-x="878" d="M41 38L127 57V714L41 733V770H314Q446 770 529 754T672 697Q747 647 789 567T832 386Q832 282 787 195T664 59Q615 28 556 14T412 0H41V38ZM518 54T575 121Q640 198 640 386Q640 478 625 540T575 642Q516
714 389 714H299V114Q299 82 323 68T401 54Q518 54 575 121Z" />
<glyph unicode="E" glyph-name="E" horiz-adv-x="731" d="M691 234L649 0H42V37L127 56V714L42 733V770H654L673 550H631Q598 646 554 713H299V434H425Q454 483 468 547H510V267H468Q455 327 425 380H299V57H548Q577 96 596 135T639 234H691Z" />
<glyph unicode="F" glyph-name="F" horiz-adv-x="684" d="M671 550H632Q602 646 560 713H298V434H433Q459 485 470 547H509V267H470Q459 326 433 381H298V56L412 37V0H42V37L127 56V714L42 733V770H654L671 550Z" />
<glyph unicode="G" glyph-name="G" horiz-adv-x="855" d="M702 42T612 16T434 -10Q318 -10 230 37T94 172T45 373Q45 491 96 583T238 728T446 780Q513 780 571 764T667 719H671L715 770H747V525H702Q650 632 597 676T464 720Q350 720 294 635T237 377Q237 205
284 127T434 48Q477 48 512 63T566 105Q573 115 575 126T577 161V330L487 349V386H838V349L749 330V81Q702 42 612 16Z" />
<glyph unicode="H" glyph-name="H" horiz-adv-x="923" d="M797 713V58L881 37V0H540V37L625 58V378H299V58L383 37V0H42V37L127 58V713L42 733V770H383V733L299 713V435H625V713L540 733V770H881V733L797 713Z" />
<glyph unicode="I" glyph-name="I" horiz-adv-x="425" d="M42 733V770H383V733L299 713V58L383 37V0H42V37L127 58V713L42 733Z" />
<glyph unicode="J" glyph-name="J" horiz-adv-x="409" d="M291 53T289 3T279 -75T257 -131Q218 -192 153 -226T15 -260Q-65 -260 -109 -231T-154 -153Q-154 -117 -134 -97T-82 -77Q-53 -77 -37 -93T-9 -139Q2 -173 15 -188T47 -203Q79 -203 99 -162T119 -43V713L34
733V770H375V733L291 713V155Q291 53 289 3Z" />
<glyph unicode="K" glyph-name="K" horiz-adv-x="807" d="M127 58V713L42 733V770H383V733L299 713V416L539 674Q553 688 553 705Q553 719 534 725T476 734V770H763V733Q694 722 667 711T615 671L439 479L743 56L834 37V0H567L321 351L299 328V58L383 37V0H42V37L127 58Z" />
<glyph unicode="L" glyph-name="L" horiz-adv-x="699" d="M299 57H548Q577 96 596 135T639 234H691L649 0H42V37L127 56V714L42 733V770H393V733L299 713V57Z" />
<glyph unicode="M" glyph-name="M" horiz-adv-x="1073" d="M40 733V770H343L551 254H557L774 770H1031V733L947 713V58L1031 37V0H690V37L775 58V594H771L520 -10H472L201 621H197V56L285 37V0H39V37L128 56V714L40 733Z" />
<glyph unicode="N" glyph-name="N" horiz-adv-x="878" d="M689 -10L197 610V56L285 37V0H39V37L128 56V714L40 733V770H311L689 295V714L601 733V770H847V733L758 714V-10H689Z" />
<glyph unicode="O" glyph-name="O" horiz-adv-x="869" d="M556 780T644 728T778 585T824 385Q824 275 778 185T644 43T434 -10Q313 -10 225 42T91 185T45 385Q45 495 91 585T225 727T434 780Q556 780 644 728ZM242 250T284 149T434 48Q543 48 585 149T627 385Q627
520 586 620T434 720Q326 720 284 620T242 385Q242 250 284 149Z" />
<glyph unicode="P" glyph-name="P" horiz-adv-x="694" d="M375 770Q464 770 530 742T633 663T669 542Q669 436 588 378T359 320H299V59L424 37V0H42V37L127 59V712L42 733V770H375ZM306 374Q397 374 441 415Q464 437 475 469T486 551Q486 642 448 680Q429 699
400 707T324 716H299V374H306Z" />
<glyph unicode="Q" glyph-name="Q" horiz-adv-x="869" d="M556 780T644 728T778 585T824 385Q824 289 788 208T683 72T517 -1V-5Q534 -10 546 -15T568 -23Q611 -40 643 -48T710 -57Q742 -57 767 -47T815 -14L845 -34Q813 -111 761 -152T652 -194Q608 -194 578
-173T508 -107Q471 -65 441 -44T369 -22Q343 -22 327 -33T310 -64Q310 -75 319 -91Q329 -109 329 -126Q329 -155 309 -175T257 -195Q226 -195 207 -173T187 -118Q187 -78 216 -46T300 7V11Q180 50 113 151T45 385Q45 495 91 585T225 727T434 780Q556 780 644 728ZM242
245T284 142T434 38Q543 38 585 142T627 385Q627 520 586 620T435 720Q326 720 284 620T242 383Q242 245 284 142Z" />
<glyph unicode="R" glyph-name="R" horiz-adv-x="778" d="M127 59V712L42 733V770H403Q524 770 597 713T670 551Q670 479 634 430T530 356L723 56L814 37V0H541L340 335H299V59L413 37V0H42V37L127 59ZM365 389T399 403T455 443Q495 489 495 561Q495 613 472 650T408
703Q375 716 320 716H299V389H313Q365 389 399 403Z" />
<glyph unicode="S" glyph-name="S" horiz-adv-x="647" d="M428 780T502 718L526 771H559L569 550H525Q475 721 332 721Q280 721 251 696T222 626Q222 596 241 573T288 532T367 490Q439 454 484 424T563 343T596 218Q596 154 560 103T462 21T324 -9Q277 -9 233
3T139 41L104 0H73L53 256L95 263Q127 150 180 100T322 49Q386 49 423 79T461 163Q461 193 442 216T392 256T309 299Q234 334 186 365T104 446T70 569Q70 629 103 677T195 752T326 780Q428 780 502 718Z" />
<glyph unicode="T" glyph-name="T" horiz-adv-x="778" d="M305 59V715H142Q89 647 50 540H11L48 770H730L767 540H728Q709 592 689 635T639 715H476V59L595 37V0H185V37L305 59Z" />
<glyph unicode="U" glyph-name="U" horiz-adv-x="821" d="M285 165T330 109T459 52Q551 52 597 115Q620 147 630 200T641 340V714L553 733V770H799V733L710 714V283Q710 168 664 96Q595 -10 423 -10Q332 -10 263 17T154 97Q131 126 121 165T111 267V714L26 733V770H373V733L285
714V267Q285 165 330 109Z" />
<glyph unicode="V" glyph-name="V" horiz-adv-x="781" d="M88 672Q78 695 67 707T36 724T-20 733V770H392V733Q336 729 315 721T294 694Q294 683 300 666L449 254H455L597 624Q607 650 607 669Q607 696 582 710T496 733V770H805V733Q758 726 735 716T697 686T665
622L418 -10H370L88 672Z" />
<glyph unicode="W" glyph-name="W" horiz-adv-x="1212" d="M92 672Q83 695 72 707T41 724T-16 733V770H396V733Q354 731 333 727T305 715T298 695Q298 683 304 666L438 254H444L571 585L537 672Q528 695 517 707T486 724T429 733V770H841V733Q785 730 764 722T743
695Q743 683 749 666L883 254H889L1031 624Q1042 653 1042 671Q1042 697 1017 711T930 733V770H1239V733Q1194 726 1170 716T1131 685T1099 622L852 -10H804L605 497L407 -10H359L92 672Z" />
<glyph unicode="X" glyph-name="X" horiz-adv-x="840" d="M56 45T88 60T144 108L339 370L125 690Q115 704 105 711T73 723T10 733V770H427V733Q374 731 356 727T338 712Q338 700 351 679L474 494L598 661Q614 683 614 697Q614 724 530 733V770H811V733Q768 725
744 717T706 698T674 664L508 443L751 80Q766 58 788 50T859 37V0H444V37Q503 41 522 45T542 57Q542 67 526 91L374 317L220 109Q203 86 203 70Q203 57 223 50T287 37V0H-7V37Q56 45 88 60Z" />
<glyph unicode="Y" glyph-name="Y" horiz-adv-x="745" d="M288 58V335L97 672Q83 698 70 709T39 725T-18 733V770H395V733Q338 729 316 717T294 685Q294 673 303 656L431 405H435L550 624Q569 661 569 684Q569 708 544 720T458 733V770H760V733Q716 729 696 722T659
694T615 622L460 334V58L544 37V0H203V37L288 58Z" />
<glyph unicode="Z" glyph-name="Z" horiz-adv-x="730" d="M679 733L259 55H548L560 73Q614 155 657 262H699L636 0H27V38L445 715H172L160 693Q108 599 89 541H48L99 770H679V733Z" />
<glyph unicode="[" glyph-name="bracketleft" horiz-adv-x="337" d="M317 -138H209V770H317V820H92V-187H317V-138Z" />
<glyph unicode="\" glyph-name="backslash" horiz-adv-x="378" d="M38 819H138L338 -169H239L38 819Z" />
<glyph unicode="]" glyph-name="bracketright" horiz-adv-x="337" d="M245 820H20V770H128V-138H20V-187H245V820Z" />
<glyph unicode="^" glyph-name="asciicircum" horiz-adv-x="485" d="M240 609H244L383 332H445L261 711H225L40 332H103L240 609Z" />
<glyph unicode="_" glyph-name="underscore" horiz-adv-x="676" d="M63 -30H613V-93H63V-30Z" />
<glyph unicode="`" glyph-name="grave" horiz-adv-x="181" d="M130 793Q112 859 55 859Q35 859 23 847T10 814Q10 779 43 742L140 631L171 642L130 793Z" />
<glyph unicode="a" glyph-name="a" horiz-adv-x="585" d="M108 -10T73 21T38 108Q38 183 109 228T331 294V367Q331 414 326 438T308 472T270 482Q232 482 211 464T189 414Q189 407 191 391Q193 377 193 370Q193 342 173 323T124 303Q95 303 77 322T58 371Q58 403
79 434T137 490Q214 540 326 540Q430 540 463 490Q475 471 480 441T486 356V150Q486 106 495 86T524 66Q547 66 568 90L591 57Q559 23 524 7T445 -10Q397 -10 372 9T338 69H334Q261 -10 170 -10Q108 -10 73 21ZM304 84T331 113V247Q282 237 255 225T217 196T205
149Q205 116 219 100T262 84Q304 84 331 113Z" />
<glyph unicode="b" glyph-name="b" horiz-adv-x="658" d="M266 -10T200 36H194L108 0H79V731L-5 758V781L212 830H234V469Q269 503 311 521T400 540Q465 540 515 508T593 419T621 287Q621 204 586 136T488 29T350 -10Q266 -10 200 36ZM385 44T418 103T452 259Q452
355 421 408T331 462Q273 462 234 404V170Q234 113 260 79T330 44Q385 44 418 103Z" />
<glyph unicode="c" glyph-name="c" horiz-adv-x="571" d="M228 -10T167 24T71 120T36 258Q36 339 74 403T179 504T332 540Q392 540 440 523T515 475T543 407Q543 376 525 358T476 340Q442 340 428 358T410 405Q405 446 390 467T337 488Q274 488 239 436T204 289Q204
193 241 143T353 93Q444 93 501 159L508 167L536 145L531 133Q501 62 444 26T305 -10Q228 -10 167 24Z" />
<glyph unicode="d" glyph-name="d" horiz-adv-x="674" d="M202 -10T150 24T67 120T37 256Q37 339 71 403T168 504T310 540Q370 540 426 515V730L341 758V781L559 830H581V98L660 73V52L452 -10H434V51L429 53Q398 23 356 7T265 -10Q202 -10 150 24ZM387 62T426
114V362Q426 418 400 452T330 486Q275 486 242 428T208 273Q208 175 240 119T329 62Q387 62 426 114Z" />
<glyph unicode="e" glyph-name="e" horiz-adv-x="604" d="M566 290H202Q203 190 242 142T359 93Q405 93 449 110T522 159L529 167L557 143L552 131Q525 65 460 28T311 -10Q229 -10 167 23T70 117T36 257Q36 340 74 404T180 504T336 540Q450 540 510 478T574 296L566
290ZM412 357T412 383Q412 435 389 462T323 489Q272 489 242 450T204 338L408 345Q412 357 412 383Z" />
<glyph unicode="f" glyph-name="f" horiz-adv-x="422" d="M447 830T495 803T543 732Q543 703 524 685T474 666Q448 666 430 682T404 727Q396 756 384 767T349 779Q326 779 309 768T283 733Q275 712 273 678T271 585V530H406L392 483H271V55L394 35V0H31V35L116
55V483H14L28 530H116Q116 610 119 644T133 703Q157 761 221 795T368 830Q447 830 495 803Z" />
<glyph unicode="g" glyph-name="g" horiz-adv-x="584" d="M129 -259T63 -224Q-3 -189 -3 -129Q-3 -91 26 -61T121 -2Q90 12 74 32T57 84Q57 112 71 131T118 168T211 205Q142 221 98 264T54 368Q54 417 83 456T164 517T280 540Q351 540 409 511Q430 556 461 586T535
616Q566 616 586 600T607 557Q607 534 592 517T551 499Q539 499 531 502T514 513Q506 519 500 522T486 525Q458 525 443 490Q475 467 493 436T511 370Q511 327 483 290T403 227T285 195Q230 189 202 175T174 142Q174 119 216 106T336 79L400 67Q489 47 520 9T551
-77Q551 -117 536 -146T488 -197Q443 -229 376 -244T239 -259Q129 -259 63 -224ZM319 239T336 279T353 372Q353 420 338 458T286 497Q247 497 230 454T213 360Q213 313 228 276T281 239Q319 239 336 279ZM214 -31T168 -20Q143 -37 130 -62T116 -115Q116 -162 163
-186Q205 -208 267 -208Q296 -208 327 -203T384 -187Q437 -164 437 -126Q437 -98 407 -83T302 -51Q214 -31 168 -20Z" />
<glyph unicode="h" glyph-name="h" horiz-adv-x="681" d="M663 35V0H363V35L433 55V279Q433 336 431 360T423 399Q398 454 334 454Q284 454 249 419V55L319 35V0H19V35L94 55V730L18 758V781L227 830H249V479Q284 507 334 523T431 540Q534 540 573 460Q582 441
585 414T588 318V55L663 35Z" />
<glyph unicode="i" glyph-name="i" horiz-adv-x="360" d="M99 731T122 755T185 780Q225 780 249 756T274 697Q274 664 251 640T185 615Q145 615 122 639T99 697Q99 731 122 755ZM344 0H24V35L109 55V441L24 468V492L243 540H264V55L344 35V0Z" />
<glyph unicode="j" glyph-name="j" horiz-adv-x="330" d="M86 731T109 755T172 780Q212 780 236 756T261 697Q261 664 238 640T172 615Q132 615 109 639T86 697Q86 731 109 755ZM11 468V492L230 540H251V69Q251 -13 242 -59T209 -146Q175 -205 125 -232T1 -260Q-78
-260 -127 -232T-176 -158Q-176 -130 -158 -113T-109 -96Q-86 -96 -71 -106T-43 -144Q-26 -180 -12 -194T24 -208Q96 -208 96 -48V441L11 468Z" />
<glyph unicode="k" glyph-name="k" horiz-adv-x="668" d="M682 35V0H450L308 245L255 192V55L342 35V0H15V35L100 55V731L15 758V781L233 830H255V264L418 435Q443 462 443 471Q443 480 426 485T357 495V530H632V495Q588 489 565 482T529 466T496 438L411 351L600
55L682 35Z" />
<glyph unicode="l" glyph-name="l" horiz-adv-x="356" d="M337 0H17V35L102 55V731L17 758V782L236 830H257V55L337 35V0Z" />
<glyph unicode="m" glyph-name="m" horiz-adv-x="1008" d="M986 35V0H691V35L761 55V279Q761 333 759 358T751 399Q731 451 662 451Q616 451 583 416Q586 385 586 318V55L656 35V0H361V35L431 55V279Q431 333 429 358T421 399Q401 452 332 452Q288 452 256 421V55L326
35V0H26V35L101 55V440L28 468V491L212 540H252V475Q288 505 336 522T429 540Q530 540 569 463Q605 498 657 519T759 540Q862 540 901 460Q910 441 913 414T916 318V55L986 35Z" />
<glyph unicode="n" glyph-name="n" horiz-adv-x="684" d="M666 35V0H366V35L436 55V279Q436 338 434 362T426 399Q416 424 393 437T338 450Q312 450 293 441T257 412V55L327 35V0H27V35L102 55V440L26 468V491L230 540H252V466Q287 500 337 520T436 540Q485 540
521 519T576 460Q585 440 588 412T591 318V55L666 35Z" />
<glyph unicode="o" glyph-name="o" horiz-adv-x="642" d="M410 540T474 504T572 405T606 265Q606 188 573 126T475 27T321 -10Q232 -10 168 26T70 125T36 265Q36 342 69 404T167 503T321 540Q410 540 474 504ZM204 174T229 108T321 41Q386 41 412 108T438 265Q438
355 413 421T321 488Q255 488 230 422T204 265Q204 174 229 108Z" />
<glyph unicode="p" glyph-name="p" horiz-adv-x="677" d="M386 -226V-250H10V-226L97 -200V441L13 468V492L220 540H243V466H248Q276 500 320 520T415 540Q480 540 531 507T610 413T639 277Q639 191 603 126T501 26T347 -10Q297 -10 252 5V-200L386 -226ZM385
44T412 71T455 148T470 260Q470 353 438 407T352 462Q321 462 293 445T252 403V154Q252 108 280 76T349 44Q385 44 412 71Z" />
<glyph unicode="q" glyph-name="q" horiz-adv-x="663" d="M430 58Q362 -10 264 -10Q198 -10 147 22T67 111T38 243Q38 333 72 400T169 504T314 540Q355 540 395 528T468 494H474L556 528H584V-200L671 -226V-250H295V-226L430 -200V58ZM276 486T244 431T211 271Q211
172 241 117T328 62Q389 62 430 114V360Q430 417 403 451T334 486Q276 486 244 431Z" />
<glyph unicode="r" glyph-name="r" horiz-adv-x="494" d="M439 541T464 520T489 467Q489 437 471 417T427 396Q400 396 378 415Q363 428 352 433T328 439Q300 439 281 414Q266 395 263 388T258 377T257 370V55L388 35V0H27V35L102 55V440L26 468V492L231 540H252V450Q290
494 328 517T402 541Q439 541 464 520Z" />
<glyph unicode="s" glyph-name="s" horiz-adv-x="469" d="M309 540T345 536T403 523V384H364Q350 490 264 490Q230 490 209 474T188 430Q188 401 210 383T281 341Q328 318 357 299T408 245T429 161Q429 80 372 35T212 -10Q173 -10 130 -5T56 11L50 174H93Q97 109
127 75T209 40Q247 40 270 60T294 112Q294 144 271 163T196 210Q150 233 121 252T72 305T51 386Q51 462 106 501T271 540Q309 540 345 536Z" />
<glyph unicode="t" glyph-name="t" horiz-adv-x="406" d="M207 -10T179 -3T132 18Q111 34 103 61T94 132V480H23L17 511L218 664L249 659V530H404L389 480H249V166Q249 129 251 114T259 90Q276 62 312 62Q350 62 374 90L397 57Q371 24 330 7T237 -10Q207 -10 179 -3Z" />
<glyph unicode="u" glyph-name="u" horiz-adv-x="664" d="M643 62V39L439 -10H417V53L414 56Q378 26 333 8T245 -10Q197 -10 162 10T108 70Q99 89 96 116T93 212V475L18 495V530H248V256Q248 202 250 177T258 136Q278 81 342 81Q383 81 412 110V475L342 495V530H567V90L643
62Z" />
<glyph unicode="v" glyph-name="v" horiz-adv-x="631" d="M73 452Q62 476 48 484T-5 495V530H332V495Q288 491 271 484T254 462Q254 454 259 441L371 171H375L473 419Q483 446 483 458Q483 474 468 481T411 495V530H646V495Q606 489 587 482T556 462T532 418L361
-10H281L73 452Z" />
<glyph unicode="w" glyph-name="w" horiz-adv-x="978" d="M996 530V495Q953 489 933 481T903 460T882 418L721 -10H641L494 361L337 -10H260L77 452Q67 476 53 484T-1 495V530H336V495Q296 493 278 484T260 456Q260 449 263 441L350 171H354L467 430L458 452Q448
476 434 484T380 495V530H717V495Q677 493 659 484T641 456Q641 449 644 441L731 171H735L823 419Q833 446 833 458Q833 473 818 481T761 495V530H996Z" />
<glyph unicode="x" glyph-name="x" horiz-adv-x="656" d="M599 57T614 48T662 35V0H333V35Q374 38 388 42T402 55Q402 60 399 67T383 89L297 198L209 107Q189 86 189 68Q189 55 207 48T263 35V0H2V35Q54 42 84 58T144 106L265 238L97 452Q81 472 65 480T10 495V530H341V495Q309
493 295 488T280 473Q280 463 297 441L368 350L440 423Q460 445 460 460Q460 474 444 482T394 495V530H638V495Q589 486 567 473T511 427L398 312L582 78Q599 57 614 48Z" />
<glyph unicode="y" glyph-name="y" horiz-adv-x="630" d="M473 416Q482 437 482 451Q482 471 463 482T402 495V530H643V495Q605 488 586 480T556 457T533 415L302 -141Q275 -206 237 -234Q199 -260 138 -260Q86 -260 53 -238T20 -174Q20 -146 38 -129T84 -111Q107
-111 124 -124T149 -162Q156 -186 162 -193T183 -200Q200 -200 217 -182T246 -134L286 -28L72 455Q64 474 47 482T-8 495V530H318V495Q280 492 264 485T247 463Q247 453 251 445L367 171H372L473 416Z" />
<glyph unicode="z" glyph-name="z" horiz-adv-x="571" d="M528 498L231 47H425Q473 136 489 194H528L516 0H31V33L330 483H157Q102 368 92 331H53L72 530H528V498Z" />
<glyph unicode="{" glyph-name="braceleft" horiz-adv-x="340" d="M290 -142T271 -142Q236 -142 221 -124T205 -65Q205 -31 216 53Q230 157 230 202Q230 255 214 284T158 328V332Q195 346 212 378T230 464Q230 508 216 598Q205 670 205 699Q205 738 222 758T271
779Q283 779 307 774L318 815Q276 828 230 828Q163 828 128 795T92 701Q92 674 104 596Q118 506 118 463Q118 404 96 378T22 352V311Q75 311 96 285T118 194Q118 145 104 49Q92 -37 92 -70Q92 -136 123 -165T223 -194Q271 -194 318 -180L307 -136Q290 -142 271
-142Z" />
<glyph unicode="|" glyph-name="bar" horiz-adv-x="284" d="M92 819H192V-159H92V819Z" />
<glyph unicode="}" glyph-name="braceright" horiz-adv-x="340" d="M69 -194T117 -194Q186 -194 217 -165T248 -70Q248 -37 236 49Q222 145 222 194Q222 259 243 285T318 311V352Q266 352 244 378T222 463Q222 506 236 596Q248 674 248 701Q248 762 213 795T110
828Q64 828 22 815L33 774Q57 779 69 779Q101 779 118 759T135 699Q135 670 124 598Q110 508 110 464Q110 411 127 379T182 332V328Q143 313 127 284T110 202Q110 157 124 53Q135 -31 135 -65Q135 -105 120 -123T69 -142Q50 -142 33 -136L22 -180Q69 -194 117 -194Z"
/>
<glyph unicode="~" glyph-name="asciitilde" horiz-adv-x="568" d="M108 249T122 262T168 276Q193 276 218 269T276 249Q313 236 336 230T382 223Q444 223 472 266T500 359H470Q462 333 448 320T402 307Q377 307 353 313T294 333Q259 346 236 352T188 359Q126
359 98 316T70 223H100Q108 249 122 262Z" />
<glyph unicode="&#xa0;" glyph-name="uni00A0" horiz-adv-x="253" />
<glyph unicode="&#xa1;" glyph-name="exclamdown" horiz-adv-x="301" d="M238 422T213 399T149 375Q112 375 88 398T63 458Q63 494 87 517T150 540Q188 540 213 517T238 458Q238 422 213 399ZM181 242T187 191T212 44Q228 -39 234 -85T241 -159Q241 -211 220 -235T153
-260Q60 -260 60 -159Q60 -103 88 41Q107 140 113 193T120 300H181Q181 242 187 191Z" />
<glyph unicode="&#xa2;" glyph-name="cent" horiz-adv-x="537" d="M479 151L498 141L493 128Q470 69 424 34T315 -9V-130H273V-10Q206 -7 154 28T72 122T43 258Q43 333 72 393T153 492T273 538V670H315V540Q366 539 408 523T475 480T499 422Q499 396 487 381T453
365Q427 365 413 380T394 428Q388 466 369 484T315 507V63H317Q363 63 402 81T468 136L479 151ZM145 191T178 137T273 68V506Q238 499 209 469T163 390T145 278Q145 191 178 137Z" />
<glyph unicode="&#xa3;" glyph-name="sterling" horiz-adv-x="680" d="M205 229T199 201T184 155Q159 163 138 163Q92 163 62 135T31 63Q31 28 54 10T123 -9Q163 -9 201 5T270 47Q311 17 349 4T431 -10Q514 -10 559 35T605 163H555Q543 129 511 113T425 96Q351
96 301 124Q341 202 370 313H555V374H384L394 430Q416 557 428 614T450 692T473 712Q484 712 491 704T506 678Q517 653 530 640T570 626Q598 626 616 643T634 686Q634 724 596 749T501 775Q316 775 257 483L235 374H124V313H221Q205 229 199 201ZM159 48T126 48Q96
48 96 72Q96 86 106 93T136 101Q160 101 177 83Q159 48 126 48Z" />
<glyph unicode="&#xa4;" glyph-name="currency" horiz-adv-x="622" d="M240 152T311 152Q383 152 434 191L500 124L554 178L488 244Q526 299 526 368Q526 439 487 490L554 556L500 610L435 544Q379 582 311 582Q239 582 188 543L122 610L68 556L135 491Q96 438
96 368Q96 292 135 244L68 178L122 124L188 191Q240 152 311 152ZM274 221T242 241T190 295T171 368Q171 407 190 440T241 493T311 513Q348 513 380 493T432 440T451 367Q451 328 432 295T381 241T311 221Q274 221 242 241Z" />
<glyph unicode="&#xa5;" glyph-name="yen" horiz-adv-x="693" d="M663 770V733Q634 727 621 720T598 696T568 636L450 381H561V320H434V270H561V210H434V58L523 37V0H172V37L262 58V210H130V270H262V320H130V381H246L94 686Q81 712 70 721T31 733V770H357V733Q313
726 296 716T279 691Q279 682 285 670L397 431H401L517 671Q522 681 522 692Q522 710 504 719T441 733V770H663Z" />
<glyph unicode="&#xa6;" glyph-name="brokenbar" horiz-adv-x="284" d="M94 819H190V431H94V819ZM94 217H190V-171H94V217Z" />
<glyph unicode="&#xa7;" glyph-name="section" horiz-adv-x="529" d="M321 829T367 814T440 773T466 713Q466 684 448 665T400 646Q376 646 361 662T333 715Q319 753 306 766T267 780Q234 780 215 760T195 706Q195 676 211 652T250 611T315 567Q366 536 397 512T450
450T472 360Q472 303 444 262T362 200Q413 165 442 123T471 19Q471 -64 415 -110T259 -157Q201 -157 155 -142T83 -101T57 -40Q57 -11 76 8T124 27Q147 27 162 12T190 -42Q202 -80 218 -93T265 -107Q295 -107 316 -84T337 -24Q337 20 307 50T214 120Q163 152 132
176T80 238T58 324Q58 382 89 421T180 479Q123 517 91 559T59 665Q59 743 112 786T263 829Q321 829 367 814ZM338 352T316 379T250 435Q194 419 194 366Q194 328 219 301T295 243Q315 254 326 273T338 317Q338 352 316 379Z" />
<glyph unicode="&#xa8;" glyph-name="dieresis" horiz-adv-x="390" d="M10 738T30 759T85 780Q119 780 140 759T162 708Q162 680 142 659T85 637Q50 637 30 658T10 708Q10 738 30 759ZM228 738T248 759T303 780Q337 780 358 759T380 708Q380 680 360 659T303 637Q268
637 248 658T228 708Q228 738 248 759Z" />
<glyph unicode="&#xa9;" glyph-name="copyright" horiz-adv-x="886" d="M46 492T99 582T244 726T443 780Q551 780 642 727T786 583T840 385Q840 278 787 188T642 44T443 -10Q335 -10 244 43T100 187T46 385Q46 492 99 582ZM111 295T155 218T276 96T443 50Q534
50 610 95T730 218T774 385Q774 475 730 552T610 674T443 720Q353 720 277 675T156 552T111 385Q111 295 155 218ZM245 442T270 487T340 559T440 585Q503 585 552 549H556L577 583H590V446H562Q555 470 542 492Q525 520 505 532T456 545Q402 545 375 505T347 390Q347
313 375 272T454 230Q507 230 537 277Q556 306 564 345H590V192H577L554 233Q527 211 501 201T440 191Q384 191 340 215T270 284T245 384Q245 442 270 487Z" />
<glyph unicode="&#xaa;" glyph-name="ordfeminine" horiz-adv-x="420" d="M101 422T76 444T51 502Q51 547 92 576T230 627V670Q230 703 220 719T185 735Q164 735 149 724T133 695Q133 690 134 684T135 672Q135 655 123 643T96 630Q77 630 67 640T56 666Q56 690
76 716T131 760Q170 780 224 780Q256 780 280 771T314 745Q319 734 320 719T322 660V521Q322 489 327 478T346 467Q359 467 373 481L389 466Q355 422 307 422Q278 422 259 436T235 476L231 477Q194 422 137 422Q101 422 76 444ZM217 484T230 527V591Q184 579 165
563T145 524Q145 504 155 494T182 484Q217 484 230 527Z" />
<glyph unicode="&#xab;" glyph-name="guillemotleft" horiz-adv-x="489" d="M172 246L226 423L196 436L49 255V236L198 53L228 68L172 246ZM365 246L419 423L389 436L242 255V236L391 53L421 68L365 246Z" />
<glyph unicode="&#xac;" glyph-name="logicalnot" horiz-adv-x="548" d="M480 308V137H409V245H70V308H480Z" />
<glyph unicode="&#xad;" glyph-name="uni00AD" horiz-adv-x="445" d="M63 305H382V199H63V305Z" />
<glyph unicode="&#xae;" glyph-name="registered" horiz-adv-x="672" d="M58 579T95 642T197 743T336 780Q411 780 475 743T576 643T614 504Q614 429 577 366T475 265T336 227Q261 227 197 264T96 365T58 504Q58 579 95 642ZM106 440T136 386T220 301T336 269Q399
269 452 300T535 386T566 504Q566 568 536 622T452 707T336 739Q273 739 220 708T137 622T106 504Q106 440 136 386ZM338 655Q384 655 412 635T441 577Q441 530 392 511L439 401L466 394V377H380L333 503H309V401L336 394V377H232V394L252 401V636L232 643V655H338ZM338
528T359 540T381 581Q381 630 309 630V528Q338 528 359 540Z" />
<glyph unicode="&#xaf;" glyph-name="overscore" horiz-adv-x="327" d="M10 790H317V694H10V790Z" />
<glyph unicode="&#xb0;" glyph-name="degree" horiz-adv-x="322" d="M212 587T247 622T282 708Q282 758 247 794T161 830Q110 830 75 795T40 708Q40 657 75 622T161 587Q212 587 247 622ZM96 737T114 756T161 775Q190 775 208 756T226 708Q226 680 208 662T161
643Q133 643 115 661T96 708Q96 737 114 756Z" />
<glyph unicode="&#xb1;" glyph-name="plusminus" horiz-adv-x="556" d="M483 479V414H312V241H245V414H73V479H245V651H312V479H483ZM73 163H483V98H73V163Z" />
<glyph unicode="&#xb2;" glyph-name="uni00B2" horiz-adv-x="464" d="M23 462Q162 574 219 645T277 773Q277 814 254 838T190 863Q156 863 121 842T66 787L28 802Q57 861 111 894T234 928Q287 928 331 910T400 859T425 786Q425 745 402 706T323 620T170 510H340Q352
519 362 533T392 575L433 569L367 396H339L320 419H30L23 462Z" />
<glyph unicode="&#xb3;" glyph-name="uni00B3" horiz-adv-x="444" d="M168 706T205 740T243 810Q243 835 227 849T180 864Q150 864 122 848T78 805L47 815Q61 866 109 897T226 928Q294 928 335 900T377 825Q377 787 343 757T263 720V716Q331 711 372 676T413 585Q413
538 383 499T299 436T183 412Q138 412 101 424T41 457T19 503Q19 525 35 539T79 553Q104 553 115 542T139 506Q151 482 163 470T203 457Q235 457 251 480T267 546Q267 600 240 629T162 659Q133 659 121 656L106 687Q168 706 205 740Z" />
<glyph unicode="&#xb4;" glyph-name="acute" horiz-adv-x="181" d="M138 742Q171 779 171 814Q171 834 159 846T126 859Q69 859 51 793L10 642L41 631L138 742Z" />
<glyph unicode="&#xb5;" glyph-name="uni00B5" horiz-adv-x="675" d="M412 56Q370 -10 299 -10Q220 -10 195 72L192 70Q192 26 198 -6T216 -79Q225 -109 229 -129T233 -172Q233 -211 211 -235T153 -260Q115 -260 96 -230T76 -143Q76 -123 82 -39Q91 83 91 127V530H246V234Q246
185 248 161T258 123Q276 81 331 81Q378 81 410 110V530H565V90L641 62V39L438 -10H416V55L412 56Z" />
<glyph unicode="&#xb6;" glyph-name="paragraph" horiz-adv-x="635" d="M292 340H236Q174 340 127 369T55 447T29 554Q29 653 91 711T261 770H588V730L510 713V-108H435V715H366V-108H292V340Z" />
<glyph unicode="&#xb7;" glyph-name="middot" horiz-adv-x="297" d="M59 325T83 350T147 375Q187 375 213 350T239 287Q239 249 214 225T148 201Q108 201 84 225T59 287Q59 325 83 350Z" />
<glyph unicode="&#xb8;" glyph-name="cedilla" horiz-adv-x="250" d="M56 -202T83 -202Q106 -202 120 -191T135 -165Q135 -151 125 -143T97 -135Q72 -135 51 -143L37 -134L97 17H154L125 -58Q177 -58 208 -85T240 -156Q240 -200 204 -228T108 -257Q79 -257 53
-251T10 -233L29 -188Q56 -202 83 -202Z" />
<glyph unicode="&#xb9;" glyph-name="uni00B9" horiz-adv-x="400" d="M278 462L375 444V419H50V444L143 462V819H49V850Q104 857 147 875T235 928L278 923V462Z" />
<glyph unicode="&#xba;" glyph-name="ordmasculine" horiz-adv-x="424" d="M260 780T299 757T360 693T383 601Q383 550 361 509T299 445T212 422Q164 422 125 445T64 509T41 601Q41 652 63 693T125 757T212 780Q260 780 299 757ZM140 537T158 502T211 466Q245
466 264 502T284 602Q284 665 265 700T212 735Q178 735 159 700T140 601Q140 537 158 502Z" />
<glyph unicode="&#xbb;" glyph-name="guillemotright" horiz-adv-x="489" d="M247 236V255L100 436L70 423L124 246L68 68L98 53L247 236ZM440 236V255L293 436L263 423L317 246L261 68L291 53L440 236Z" />
<glyph unicode="&#xbc;" glyph-name="onequarter" horiz-adv-x="1034" d="M736 770H841L376 0H272L736 770ZM274 317L371 299V274H46V299L139 317V674H45V705Q100 712 143 730T231 783L274 778V317ZM583 123L566 166L848 509L926 503V189H998V123H926V42L995 26V0H696V26L789
42V123H583ZM785 356L653 193L654 189H789V356H785Z" />
<glyph unicode="&#xbd;" glyph-name="onehalf" horiz-adv-x="1054" d="M695 770H800L335 0H231L695 770ZM272 317L369 299V274H44V299L137 317V674H43V705Q98 712 141 730T229 783L272 778V317ZM609 43Q748 155 805 226T863 354Q863 395 840 419T776 444Q742 444
707 423T652 368L614 383Q643 442 697 475T820 509Q873 509 917 491T986 440T1011 367Q1011 326 988 287T909 201T756 91H926Q938 100 948 114T978 156L1019 150L953 -23H925L906 0H616L609 43Z" />
<glyph unicode="&#xbe;" glyph-name="threequarters" horiz-adv-x="1038" d="M739 770H844L379 0H275L739 770ZM587 123L570 166L852 509L930 503V189H1002V123H930V42L999 26V0H700V26L793 42V123H587ZM789 356L657 193L658 189H793V356H789ZM184 558T221 592T259
662Q259 687 243 701T196 716Q166 716 138 700T94 657L63 667Q77 718 125 749T242 780Q310 780 351 752T393 677Q393 639 359 609T279 572V568Q347 563 388 528T429 437Q429 390 399 351T315 288T199 264Q154 264 117 276T57 309T35 355Q35 377 51 391T95 405Q120
405 131 394T155 358Q167 334 179 322T219 309Q251 309 267 332T283 398Q283 452 256 481T178 511Q149 511 137 508L122 539Q184 558 221 592Z" />
<glyph unicode="&#xbf;" glyph-name="questiondown" horiz-adv-x="446" d="M376 414T353 390T290 365Q250 365 226 389T201 448Q201 481 224 505T290 530Q330 530 353 506T376 448Q376 414 353 390ZM254 196L224 195Q133 192 83 139T33 -9Q33 -85 64 -142T149
-229T272 -260Q340 -260 340 -201Q340 -174 312 -150T213 -100Q157 -79 130 -65T94 -40T85 -11Q85 22 131 40T267 59H323V290H254V196Z" />
<glyph unicode="&#xc0;" glyph-name="Agrave" horiz-adv-x="781" d="M707 74T718 62T748 45T805 37V0H393V37Q449 39 470 46T491 74Q491 90 482 114L442 222H217L188 146Q177 116 177 99Q177 74 202 60T290 37V0H-20V37Q29 45 52 55T88 84T119 148L308 630L262
733L411 790L697 98Q707 74 718 62ZM421 279L334 516H330L239 279H421ZM337 939Q305 963 276 963Q251 963 236 947T221 909Q221 888 235 872T280 849L445 817L462 845L337 939Z" />
<glyph unicode="&#xc1;" glyph-name="Aacute" horiz-adv-x="781" d="M707 74T718 62T748 45T805 37V0H393V37Q449 39 470 46T491 74Q491 90 482 114L442 222H217L188 146Q177 116 177 99Q177 74 202 60T290 37V0H-20V37Q29 45 52 55T88 84T119 148L308 630L262
733L411 790L697 98Q707 74 718 62ZM421 279L334 516H330L239 279H421ZM414 849Q444 855 458 871T473 909Q473 931 458 947T418 963Q389 963 357 939L232 845L249 817L414 849Z" />
<glyph unicode="&#xc2;" glyph-name="Acircumflex" horiz-adv-x="781" d="M707 74T718 62T748 45T805 37V0H393V37Q449 39 470 46T491 74Q491 90 482 114L442 222H217L188 146Q177 116 177 99Q177 74 202 60T290 37V0H-20V37Q29 45 52 55T88 84T119 148L308 630L262
733L411 790L697 98Q707 74 718 62ZM421 279L334 516H330L239 279H421ZM368 960T383 952T420 927L524 843L508 821L351 862L194 821L178 843L280 927Q302 945 317 952T352 960Q368 960 383 952Z" />
<glyph unicode="&#xc3;" glyph-name="Atilde" horiz-adv-x="781" d="M707 74T718 62T748 45T805 37V0H393V37Q449 39 470 46T491 74Q491 90 482 114L442 222H217L188 146Q177 116 177 99Q177 74 202 60T290 37V0H-20V37Q29 45 52 55T88 84T119 148L308 630L262
733L411 790L697 98Q707 74 718 62ZM421 279L334 516H330L239 279H421ZM241 839T257 849T299 859Q315 859 328 855T358 840Q376 830 390 825T424 820Q474 820 500 857T526 965H487Q482 947 467 937T427 927Q412 927 400 931T370 944Q351 954 338 958T306 963Q258
963 229 926T199 821H238Q241 839 257 849Z" />
<glyph unicode="&#xc4;" glyph-name="Adieresis" horiz-adv-x="781" d="M707 74T718 62T748 45T805 37V0H393V37Q449 39 470 46T491 74Q491 90 482 114L442 222H217L188 146Q177 116 177 99Q177 74 202 60T290 37V0H-20V37Q29 45 52 55T88 84T119 148L308 630L262
733L411 790L697 98Q707 74 718 62ZM421 279L334 516H330L239 279H421ZM186 924T205 944T257 965Q290 965 310 945T330 896Q330 870 311 850T257 829Q224 829 205 849T186 896Q186 924 205 944ZM393 924T412 944T464 965Q497 965 517 945T537 896Q537 870 518 850T464
829Q431 829 412 849T393 896Q393 924 412 944Z" />
<glyph unicode="&#xc5;" glyph-name="Aring" horiz-adv-x="781" d="M707 74T718 62T748 45T805 37V0H393V37Q449 39 470 46T491 74Q491 90 482 114L442 222H217L188 146Q177 116 177 99Q177 74 202 60T290 37V0H-20V37Q29 45 52 55T88 84T119 148L308 630L262
733L411 790L697 98Q707 74 718 62ZM421 279L334 516H330L239 279H421ZM369 830T389 850T409 900Q409 930 389 950T339 970Q309 970 289 950T269 900Q269 870 288 850T339 830Q369 830 389 850ZM319 909T324 914T339 920Q348 920 353 915T359 900Q359 891 354 886T339
880Q330 880 325 885T319 900Q319 909 324 914Z" />
<glyph unicode="&#xc6;" glyph-name="AE" horiz-adv-x="1093" d="M25 45T54 56T102 87T142 148L446 725L384 743V770H1016L1035 550H993Q968 634 916 713H661V434H787Q820 489 830 547H872V267H830Q820 325 787 380H661V57H910Q941 99 962 140T1001 234H1053L1011
0H404V37L489 56V288H288L215 146Q195 106 195 88Q195 67 213 55T272 37V0H-27V37Q25 45 54 56ZM489 667H485L316 342H489V667Z" />
<glyph unicode="&#xc7;" glyph-name="Ccedilla" horiz-adv-x="813" d="M45 496T95 587T235 729T439 780Q502 780 564 764T675 719H679L723 770H753V525H705Q683 583 661 616Q626 670 578 695T467 721Q351 721 293 638T234 390Q234 224 292 137T463 50Q524 50 574
76T658 152Q695 207 708 277H753V0H716L675 66Q617 26 560 8T436 -10Q321 -10 233 39T95 176T45 380Q45 496 95 587ZM361 -202T388 -202Q411 -202 425 -191T440 -165Q440 -151 430 -143T402 -135Q377 -135 356 -143L342 -134L402 17H459L430 -58Q482 -58 513 -85T545
-156Q545 -200 509 -228T413 -257Q384 -257 358 -251T315 -233L334 -188Q361 -202 388 -202Z" />
<glyph unicode="&#xc8;" glyph-name="Egrave" horiz-adv-x="731" d="M691 234L649 0H42V37L127 56V714L42 733V770H654L673 550H631Q598 646 554 713H299V434H425Q454 483 468 547H510V267H468Q455 327 425 380H299V57H548Q577 96 596 135T639 234H691ZM352 939Q320
963 291 963Q266 963 251 947T236 909Q236 888 250 872T295 849L460 817L477 845L352 939Z" />
<glyph unicode="&#xc9;" glyph-name="Eacute" horiz-adv-x="731" d="M691 234L649 0H42V37L127 56V714L42 733V770H654L673 550H631Q598 646 554 713H299V434H425Q454 483 468 547H510V267H468Q455 327 425 380H299V57H548Q577 96 596 135T639 234H691ZM449 849Q479
855 493 871T508 909Q508 931 493 947T453 963Q424 963 392 939L267 845L284 817L449 849Z" />
<glyph unicode="&#xca;" glyph-name="Ecircumflex" horiz-adv-x="731" d="M691 234L649 0H42V37L127 56V714L42 733V770H654L673 550H631Q598 646 554 713H299V434H425Q454 483 468 547H510V267H468Q455 327 425 380H299V57H548Q577 96 596 135T639 234H691ZM396
960T411 952T448 927L552 843L536 821L379 862L222 821L206 843L308 927Q330 945 345 952T380 960Q396 960 411 952Z" />
<glyph unicode="&#xcb;" glyph-name="Edieresis" horiz-adv-x="731" d="M691 234L649 0H42V37L127 56V714L42 733V770H654L673 550H631Q598 646 554 713H299V434H425Q454 483 468 547H510V267H468Q455 327 425 380H299V57H548Q577 96 596 135T639 234H691ZM195
925T214 945T266 966Q299 966 319 946T339 897Q339 871 320 851T266 830Q233 830 214 850T195 897Q195 925 214 945ZM402 925T421 945T473 966Q506 966 526 946T546 897Q546 871 527 851T473 830Q440 830 421 850T402 897Q402 925 421 945Z" />
<glyph unicode="&#xcc;" glyph-name="Igrave" horiz-adv-x="425" d="M42 733V770H383V733L299 713V58L383 37V0H42V37L127 58V713L42 733ZM212 939Q180 963 151 963Q126 963 111 947T96 909Q96 888 110 872T155 849L320 817L337 845L212 939Z" />
<glyph unicode="&#xcd;" glyph-name="Iacute" horiz-adv-x="425" d="M42 733V770H383V733L299 713V58L383 37V0H42V37L127 58V713L42 733ZM279 851Q309 857 323 873T338 911Q338 933 323 949T283 965Q254 965 222 941L97 847L114 819L279 851Z" />
<glyph unicode="&#xce;" glyph-name="Icircumflex" horiz-adv-x="425" d="M42 733V770H383V733L299 713V58L383 37V0H42V37L127 58V713L42 733ZM233 961T248 953T285 928L389 844L373 822L216 863L59 822L43 844L145 928Q167 946 182 953T217 961Q233 961 248 953Z" />
<glyph unicode="&#xcf;" glyph-name="Idieresis" horiz-adv-x="425" d="M42 733V770H383V733L299 713V58L383 37V0H42V37L127 58V713L42 733ZM37 924T56 944T108 965Q141 965 161 945T181 896Q181 870 162 850T108 829Q75 829 56 849T37 896Q37 924 56 944ZM244
924T263 944T315 965Q348 965 368 945T388 896Q388 870 369 850T315 829Q282 829 263 849T244 896Q244 924 263 944Z" />
<glyph unicode="&#xd0;" glyph-name="Eth" horiz-adv-x="878" d="M41 38L127 57V354H52V439H127V714L41 733V770H314Q446 770 529 754T672 697Q747 647 789 567T832 386Q832 282 787 195T664 59Q615 28 556 14T412 0H41V38ZM518 54T575 121Q640 198 640 386Q640
478 625 540T575 642Q516 714 389 714H299V439H439V354H299V114Q299 82 323 68T401 54Q518 54 575 121Z" />
<glyph unicode="&#xd1;" glyph-name="Ntilde" horiz-adv-x="878" d="M689 -10L197 610V56L285 37V0H39V37L128 56V714L40 733V770H311L689 295V714L601 733V770H847V733L758 714V-10H689ZM355 839T371 849T413 859Q429 859 442 855T472 840Q490 830 504 825T538
820Q588 820 614 857T640 965H601Q596 947 581 937T541 927Q526 927 514 931T484 944Q465 954 452 958T420 963Q372 963 343 926T313 821H352Q355 839 371 849Z" />
<glyph unicode="&#xd2;" glyph-name="Ograve" horiz-adv-x="869" d="M556 780T644 728T778 585T824 385Q824 275 778 185T644 43T434 -10Q313 -10 225 42T91 185T45 385Q45 495 91 585T225 727T434 780Q556 780 644 728ZM242 250T284 149T434 48Q543 48 585 149T627
385Q627 520 586 620T434 720Q326 720 284 620T242 385Q242 250 284 149ZM427 939Q395 963 366 963Q341 963 326 947T311 909Q311 888 325 872T370 849L535 817L552 845L427 939Z" />
<glyph unicode="&#xd3;" glyph-name="Oacute" horiz-adv-x="869" d="M556 780T644 728T778 585T824 385Q824 275 778 185T644 43T434 -10Q313 -10 225 42T91 185T45 385Q45 495 91 585T225 727T434 780Q556 780 644 728ZM242 250T284 149T434 48Q543 48 585 149T627
385Q627 520 586 620T434 720Q326 720 284 620T242 385Q242 250 284 149ZM513 849Q543 855 557 871T572 909Q572 931 557 947T517 963Q488 963 456 939L331 845L348 817L513 849Z" />
<glyph unicode="&#xd4;" glyph-name="Ocircumflex" horiz-adv-x="869" d="M556 780T644 728T778 585T824 385Q824 275 778 185T644 43T434 -10Q313 -10 225 42T91 185T45 385Q45 495 91 585T225 727T434 780Q556 780 644 728ZM242 250T284 149T434 48Q543 48 585
149T627 385Q627 520 586 620T434 720Q326 720 284 620T242 385Q242 250 284 149ZM460 960T475 952T512 927L616 843L600 821L443 862L286 821L270 843L372 927Q394 945 409 952T444 960Q460 960 475 952Z" />
<glyph unicode="&#xd5;" glyph-name="Otilde" horiz-adv-x="869" d="M556 780T644 728T778 585T824 385Q824 275 778 185T644 43T434 -10Q313 -10 225 42T91 185T45 385Q45 495 91 585T225 727T434 780Q556 780 644 728ZM242 250T284 149T434 48Q543 48 585 149T627
385Q627 520 586 620T434 720Q326 720 284 620T242 385Q242 250 284 149ZM321 839T337 849T379 859Q395 859 408 855T438 840Q456 830 470 825T504 820Q554 820 580 857T606 965H567Q562 947 547 937T507 927Q492 927 480 931T450 944Q431 954 418 958T386 963Q338
963 309 926T279 821H318Q321 839 337 849Z" />
<glyph unicode="&#xd6;" glyph-name="Odieresis" horiz-adv-x="869" d="M556 780T644 728T778 585T824 385Q824 275 778 185T644 43T434 -10Q313 -10 225 42T91 185T45 385Q45 495 91 585T225 727T434 780Q556 780 644 728ZM242 250T284 149T434 48Q543 48 585
149T627 385Q627 520 586 620T434 720Q326 720 284 620T242 385Q242 250 284 149ZM269 925T288 945T340 966Q373 966 393 946T413 897Q413 871 394 851T340 830Q307 830 288 850T269 897Q269 925 288 945ZM476 925T495 945T547 966Q580 966 600 946T620 897Q620
871 601 851T547 830Q514 830 495 850T476 897Q476 925 495 945Z" />
<glyph unicode="&#xd7;" glyph-name="multiply" horiz-adv-x="484" d="M293 339L426 205L377 156L244 290L108 154L58 205L193 340L59 474L108 523L242 389L376 523L427 473L293 339Z" />
<glyph unicode="&#xd8;" glyph-name="Oslash" horiz-adv-x="867" d="M293 -10T195 61L143 0H66L151 99Q99 153 72 226T44 385Q44 495 90 585T224 727T433 780Q572 780 673 707L727 770H805L717 668Q769 614 796 541T823 385Q823 275 777 185T643 43T433 -10Q293
-10 195 61ZM540 720T433 720Q325 720 283 620T241 385Q241 294 258 223L589 609Q540 720 433 720ZM542 48T584 149T626 385Q626 474 610 543L279 158Q327 48 433 48Q542 48 584 149Z" />
<glyph unicode="&#xd9;" glyph-name="Ugrave" horiz-adv-x="821" d="M285 165T330 109T459 52Q551 52 597 115Q620 147 630 200T641 340V714L553 733V770H799V733L710 714V283Q710 168 664 96Q595 -10 423 -10Q332 -10 263 17T154 97Q131 126 121 165T111 267V714L26
733V770H373V733L285 714V267Q285 165 330 109ZM454 939Q422 963 393 963Q368 963 353 947T338 909Q338 888 352 872T397 849L562 817L579 845L454 939Z" />
<glyph unicode="&#xda;" glyph-name="Uacute" horiz-adv-x="821" d="M285 165T330 109T459 52Q551 52 597 115Q620 147 630 200T641 340V714L553 733V770H799V733L710 714V283Q710 168 664 96Q595 -10 423 -10Q332 -10 263 17T154 97Q131 126 121 165T111 267V714L26
733V770H373V733L285 714V267Q285 165 330 109ZM530 849Q560 855 574 871T589 909Q589 931 574 947T534 963Q505 963 473 939L348 845L365 817L530 849Z" />
<glyph unicode="&#xdb;" glyph-name="Ucircumflex" horiz-adv-x="821" d="M285 165T330 109T459 52Q551 52 597 115Q620 147 630 200T641 340V714L553 733V770H799V733L710 714V283Q710 168 664 96Q595 -10 423 -10Q332 -10 263 17T154 97Q131 126 121 165T111
267V714L26 733V770H373V733L285 714V267Q285 165 330 109ZM482 960T497 952T534 927L638 843L622 821L465 862L308 821L292 843L394 927Q416 945 431 952T466 960Q482 960 497 952Z" />
<glyph unicode="&#xdc;" glyph-name="Udieresis" horiz-adv-x="821" d="M285 165T330 109T459 52Q551 52 597 115Q620 147 630 200T641 340V714L553 733V770H799V733L710 714V283Q710 168 664 96Q595 -10 423 -10Q332 -10 263 17T154 97Q131 126 121 165T111 267V714L26
733V770H373V733L285 714V267Q285 165 330 109ZM295 897T314 917T366 938Q399 938 419 918T439 869Q439 843 420 823T366 802Q333 802 314 822T295 869Q295 897 314 917ZM502 897T521 917T573 938Q606 938 626 918T646 869Q646 843 627 823T573 802Q540 802 521
822T502 869Q502 897 521 917Z" />
<glyph unicode="&#xdd;" glyph-name="Yacute" horiz-adv-x="745" d="M288 58V335L97 672Q83 698 70 709T39 725T-18 733V770H395V733Q338 729 316 717T294 685Q294 673 303 656L431 405H435L550 624Q569 661 569 684Q569 708 544 720T458 733V770H760V733Q716
729 696 722T659 694T615 622L460 334V58L544 37V0H203V37L288 58ZM495 849Q525 855 539 871T554 909Q554 931 539 947T499 963Q470 963 438 939L313 845L330 817L495 849Z" />
<glyph unicode="&#xde;" glyph-name="Thorn" horiz-adv-x="696" d="M299 613H375Q464 613 530 585T633 506T669 385Q669 279 588 221T359 163H299V59L424 37V0H42V37L127 59V711L42 733V770H424V733L299 711V613ZM306 217Q397 217 441 258Q464 280 475 312T486
394Q486 485 448 523Q429 542 400 550T324 559H299V217H306Z" />
<glyph unicode="&#xdf;" glyph-name="germandbls" horiz-adv-x="756" d="M489 417T510 401T577 363Q624 340 655 320T708 263T730 174Q730 86 677 38T524 -10Q488 -10 451 -5T387 11L381 174H424Q428 109 452 75T520 40Q553 40 574 62T595 120Q595 152 572 172T500
219Q458 243 433 261T390 308T372 377Q372 412 384 445T419 525Q444 578 456 610T468 681Q468 779 369 779Q330 779 309 761T278 702T268 585V55L341 35V0H28V35L113 55V463H23L37 510H113V516Q113 596 117 637T134 703Q160 761 230 795T390 830Q489 830 547 790T605
680Q605 639 588 607T536 531Q512 501 501 482T489 443Q489 417 510 401Z" />
<glyph unicode="&#xe0;" glyph-name="agrave" horiz-adv-x="585" d="M346 793Q328 859 271 859Q251 859 239 847T226 814Q226 779 259 742L356 631L387 642L346 793ZM108 -10T73 21T38 108Q38 183 109 228T331 294V367Q331 414 326 438T308 472T270 482Q232 482
211 464T189 414Q189 407 191 391Q193 377 193 370Q193 342 173 323T124 303Q95 303 77 322T58 371Q58 403 79 434T137 490Q214 540 326 540Q430 540 463 490Q475 471 480 441T486 356V150Q486 106 495 86T524 66Q547 66 568 90L591 57Q559 23 524 7T445 -10Q397
-10 372 9T338 69H334Q261 -10 170 -10Q108 -10 73 21ZM304 84T331 113V247Q282 237 255 225T217 196T205 149Q205 116 219 100T262 84Q304 84 331 113Z" />
<glyph unicode="&#xe1;" glyph-name="aacute" horiz-adv-x="585" d="M108 -10T73 21T38 108Q38 183 109 228T331 294V367Q331 414 326 438T308 472T270 482Q232 482 211 464T189 414Q189 407 191 391Q193 377 193 370Q193 342 173 323T124 303Q95 303 77 322T58
371Q58 403 79 434T137 490Q214 540 326 540Q430 540 463 490Q475 471 480 441T486 356V150Q486 106 495 86T524 66Q547 66 568 90L591 57Q559 23 524 7T445 -10Q397 -10 372 9T338 69H334Q261 -10 170 -10Q108 -10 73 21ZM304 84T331 113V247Q282 237 255 225T217
196T205 149Q205 116 219 100T262 84Q304 84 331 113ZM361 742Q394 779 394 814Q394 834 382 846T349 859Q292 859 274 793L233 642L264 631L361 742Z" />
<glyph unicode="&#xe2;" glyph-name="acircumflex" horiz-adv-x="585" d="M108 -10T73 21T38 108Q38 183 109 228T331 294V367Q331 414 326 438T308 472T270 482Q232 482 211 464T189 414Q189 407 191 391Q193 377 193 370Q193 342 173 323T124 303Q95 303 77
322T58 371Q58 403 79 434T137 490Q214 540 326 540Q430 540 463 490Q475 471 480 441T486 356V150Q486 106 495 86T524 66Q547 66 568 90L591 57Q559 23 524 7T445 -10Q397 -10 372 9T338 69H334Q261 -10 170 -10Q108 -10 73 21ZM304 84T331 113V247Q282 237 255
225T217 196T205 149Q205 116 219 100T262 84Q304 84 331 113ZM333 859T347 848T376 811L462 642L431 630L309 746L187 630L156 642L240 811Q253 836 269 847T310 859Q333 859 347 848Z" />
<glyph unicode="&#xe3;" glyph-name="atilde" horiz-adv-x="585" d="M108 -10T73 21T38 108Q38 183 109 228T331 294V367Q331 414 326 438T308 472T270 482Q232 482 211 464T189 414Q189 407 191 391Q193 377 193 370Q193 342 173 323T124 303Q95 303 77 322T58
371Q58 403 79 434T137 490Q214 540 326 540Q430 540 463 490Q475 471 480 441T486 356V150Q486 106 495 86T524 66Q547 66 568 90L591 57Q559 23 524 7T445 -10Q397 -10 372 9T338 69H334Q261 -10 170 -10Q108 -10 73 21ZM304 84T331 113V247Q282 237 255 225T217
196T205 149Q205 116 219 100T262 84Q304 84 331 113ZM184 681T200 691T242 701Q258 701 271 697T301 682Q319 672 333 667T367 662Q417 662 443 701T469 810H430Q425 792 410 782T370 772Q355 772 343 776T313 789Q294 799 281 803T249 808Q201 808 172 770T142
663H181Q184 681 200 691Z" />
<glyph unicode="&#xe4;" glyph-name="adieresis" horiz-adv-x="585" d="M108 -10T73 21T38 108Q38 183 109 228T331 294V367Q331 414 326 438T308 472T270 482Q232 482 211 464T189 414Q189 407 191 391Q193 377 193 370Q193 342 173 323T124 303Q95 303 77 322T58
371Q58 403 79 434T137 490Q214 540 326 540Q430 540 463 490Q475 471 480 441T486 356V150Q486 106 495 86T524 66Q547 66 568 90L591 57Q559 23 524 7T445 -10Q397 -10 372 9T338 69H334Q261 -10 170 -10Q108 -10 73 21ZM304 84T331 113V247Q282 237 255 225T217
196T205 149Q205 116 219 100T262 84Q304 84 331 113ZM119 738T139 759T194 780Q228 780 249 759T271 708Q271 680 251 659T194 637Q159 637 139 658T119 708Q119 738 139 759ZM337 738T357 759T412 780Q446 780 467 759T489 708Q489 680 469 659T412 637Q377 637
357 658T337 708Q337 738 357 759Z" />
<glyph unicode="&#xe5;" glyph-name="aring" horiz-adv-x="585" d="M108 -10T73 21T38 108Q38 183 109 228T331 294V367Q331 414 326 438T308 472T270 482Q232 482 211 464T189 414Q189 407 191 391Q193 377 193 370Q193 342 173 323T124 303Q95 303 77 322T58
371Q58 403 79 434T137 490Q214 540 326 540Q430 540 463 490Q475 471 480 441T486 356V150Q486 106 495 86T524 66Q547 66 568 90L591 57Q559 23 524 7T445 -10Q397 -10 372 9T338 69H334Q261 -10 170 -10Q108 -10 73 21ZM304 84T331 113V247Q282 237 255 225T217
196T205 149Q205 116 219 100T262 84Q304 84 331 113ZM342 651T366 675T390 734Q390 769 366 793T307 817Q272 817 248 793T224 734Q224 698 247 675T307 651Q342 651 366 675ZM274 749T283 758T307 767Q322 767 331 758T340 734Q340 719 331 710T307 701Q292 701
283 710T274 734Q274 749 283 758Z" />
<glyph unicode="&#xe6;" glyph-name="ae" horiz-adv-x="898" d="M109 -10T74 20T38 107Q38 183 108 228T331 294V367Q331 414 326 438T308 472T270 482Q232 482 211 464T189 414Q189 407 191 391Q193 377 193 370Q193 342 173 323T124 303Q95 303 77 322T58 370Q58
401 79 433T137 490Q214 540 327 540Q375 540 405 530T458 495Q530 540 630 540Q743 540 803 479T868 296L860 290H496Q497 93 653 93Q702 93 745 110T816 159L823 167L851 143L846 131Q818 65 754 28T603 -10Q532 -10 475 16T381 92H377Q323 38 276 14T174 -10Q109
-10 74 20ZM566 489T535 450T498 337L702 345Q706 365 706 385Q706 435 684 462T618 489Q566 489 535 450ZM310 84T357 130Q332 182 330 247Q266 234 236 210T205 146Q205 117 221 101T265 84Q310 84 357 130Z" />
<glyph unicode="&#xe7;" glyph-name="ccedilla" horiz-adv-x="571" d="M228 -10T167 24T71 120T36 258Q36 339 74 403T179 504T332 540Q392 540 440 523T515 475T543 407Q543 376 525 358T476 340Q442 340 428 358T410 405Q405 446 390 467T337 488Q274 488 239
436T204 289Q204 193 241 143T353 93Q444 93 501 159L508 167L536 145L531 133Q501 62 444 26T305 -10Q228 -10 167 24ZM249 -202T276 -202Q299 -202 313 -191T328 -165Q328 -151 318 -143T290 -135Q265 -135 244 -143L230 -134L290 17H347L318 -58Q370 -58 401
-85T433 -156Q433 -200 397 -228T301 -257Q272 -257 246 -251T203 -233L222 -188Q249 -202 276 -202Z" />
<glyph unicode="&#xe8;" glyph-name="egrave" horiz-adv-x="604" d="M566 290H202Q203 190 242 142T359 93Q405 93 449 110T522 159L529 167L557 143L552 131Q525 65 460 28T311 -10Q229 -10 167 23T70 117T36 257Q36 340 74 404T180 504T336 540Q450 540 510
478T574 296L566 290ZM412 357T412 383Q412 435 389 462T323 489Q272 489 242 450T204 338L408 345Q412 357 412 383ZM360 793Q342 859 285 859Q265 859 253 847T240 814Q240 779 273 742L370 631L401 642L360 793Z" />
<glyph unicode="&#xe9;" glyph-name="eacute" horiz-adv-x="604" d="M566 290H202Q203 190 242 142T359 93Q405 93 449 110T522 159L529 167L557 143L552 131Q525 65 460 28T311 -10Q229 -10 167 23T70 117T36 257Q36 340 74 404T180 504T336 540Q450 540 510
478T574 296L566 290ZM412 357T412 383Q412 435 389 462T323 489Q272 489 242 450T204 338L408 345Q412 357 412 383ZM392 742Q425 779 425 814Q425 834 413 846T380 859Q323 859 305 793L264 642L295 631L392 742Z" />
<glyph unicode="&#xea;" glyph-name="ecircumflex" horiz-adv-x="604" d="M566 290H202Q203 190 242 142T359 93Q405 93 449 110T522 159L529 167L557 143L552 131Q525 65 460 28T311 -10Q229 -10 167 23T70 117T36 257Q36 340 74 404T180 504T336 540Q450 540
510 478T574 296L566 290ZM412 357T412 383Q412 435 389 462T323 489Q272 489 242 450T204 338L408 345Q412 357 412 383ZM360 859T374 848T403 811L489 642L458 630L336 746L214 630L183 642L267 811Q280 836 296 847T337 859Q360 859 374 848Z" />
<glyph unicode="&#xeb;" glyph-name="edieresis" horiz-adv-x="604" d="M566 290H202Q203 190 242 142T359 93Q405 93 449 110T522 159L529 167L557 143L552 131Q525 65 460 28T311 -10Q229 -10 167 23T70 117T36 257Q36 340 74 404T180 504T336 540Q450 540 510
478T574 296L566 290ZM412 357T412 383Q412 435 389 462T323 489Q272 489 242 450T204 338L408 345Q412 357 412 383ZM149 738T169 759T224 780Q258 780 279 759T301 708Q301 680 281 659T224 637Q189 637 169 658T149 708Q149 738 169 759ZM367 738T387 759T442
780Q476 780 497 759T519 708Q519 680 499 659T442 637Q407 637 387 658T367 708Q367 738 387 759Z" />
<glyph unicode="&#xec;" glyph-name="igrave" horiz-adv-x="360" d="M344 0H24V35L109 55V441L24 468V492L243 540H264V55L344 35V0ZM220 793Q202 859 145 859Q125 859 113 847T100 814Q100 779 133 742L230 631L261 642L220 793Z" />
<glyph unicode="&#xed;" glyph-name="iacute" horiz-adv-x="360" d="M344 0H24V35L109 55V441L24 468V492L243 540H264V55L344 35V0ZM237 742Q270 779 270 814Q270 834 258 846T225 859Q168 859 150 793L109 642L140 631L237 742Z" />
<glyph unicode="&#xee;" glyph-name="icircumflex" horiz-adv-x="360" d="M344 0H24V35L109 55V441L24 468V492L243 540H264V55L344 35V0ZM213 859T227 848T256 811L342 642L311 630L189 746L67 630L36 642L120 811Q133 836 149 847T190 859Q213 859 227 848Z" />
<glyph unicode="&#xef;" glyph-name="idieresis" horiz-adv-x="360" d="M344 0H24V35L109 55V441L24 468V492L243 540H264V55L344 35V0ZM257 738T277 759T332 780Q366 780 387 759T409 708Q409 680 389 659T332 637Q297 637 277 658T257 708Q257 738 277 759ZM475
738T495 759T550 780Q584 780 605 759T627 708Q627 680 607 659T550 637Q515 637 495 658T475 708Q475 738 495 759Z" />
<glyph unicode="&#xf0;" glyph-name="eth" horiz-adv-x="607" d="M476 582T517 491T559 293Q559 199 523 131T424 26T287 -10Q216 -10 159 21T69 108T36 236Q36 303 64 357T143 441T257 472Q298 472 330 459T381 420Q366 514 307 589L199 513L156 575L255 645Q200
694 129 730L162 780Q258 747 333 699L439 774L483 713L396 652Q476 582 517 491ZM341 50T368 100T395 238Q395 298 383 343Q370 368 349 382T301 397Q255 397 228 349T200 219Q200 141 225 96T294 50Q341 50 368 100Z" />
<glyph unicode="&#xf1;" glyph-name="ntilde" horiz-adv-x="684" d="M666 35V0H366V35L436 55V279Q436 338 434 362T426 399Q416 424 393 437T338 450Q312 450 293 441T257 412V55L327 35V0H27V35L102 55V440L26 468V491L230 540H252V466Q287 500 337 520T436
540Q485 540 521 519T576 460Q585 440 588 412T591 318V55L666 35ZM225 681T241 691T283 701Q299 701 312 697T342 682Q360 672 374 667T408 662Q458 662 484 701T510 810H471Q466 792 451 782T411 772Q396 772 384 776T354 789Q335 799 322 803T290 808Q242 808
213 770T183 663H222Q225 681 241 691Z" />
<glyph unicode="&#xf2;" glyph-name="ograve" horiz-adv-x="642" d="M410 540T474 504T572 405T606 265Q606 188 573 126T475 27T321 -10Q232 -10 168 26T70 125T36 265Q36 342 69 404T167 503T321 540Q410 540 474 504ZM204 174T229 108T321 41Q386 41 412 108T438
265Q438 355 413 421T321 488Q255 488 230 422T204 265Q204 174 229 108ZM362 793Q344 859 287 859Q267 859 255 847T242 814Q242 779 275 742L372 631L403 642L362 793Z" />
<glyph unicode="&#xf3;" glyph-name="oacute" horiz-adv-x="642" d="M410 540T474 504T572 405T606 265Q606 188 573 126T475 27T321 -10Q232 -10 168 26T70 125T36 265Q36 342 69 404T167 503T321 540Q410 540 474 504ZM204 174T229 108T321 41Q386 41 412 108T438
265Q438 355 413 421T321 488Q255 488 230 422T204 265Q204 174 229 108ZM397 742Q430 779 430 814Q430 834 418 846T385 859Q328 859 310 793L269 642L300 631L397 742Z" />
<glyph unicode="&#xf4;" glyph-name="ocircumflex" horiz-adv-x="642" d="M410 540T474 504T572 405T606 265Q606 188 573 126T475 27T321 -10Q232 -10 168 26T70 125T36 265Q36 342 69 404T167 503T321 540Q410 540 474 504ZM204 174T229 108T321 41Q386 41 412
108T438 265Q438 355 413 421T321 488Q255 488 230 422T204 265Q204 174 229 108ZM351 859T365 848T394 811L480 642L449 630L327 746L205 630L174 642L258 811Q271 836 287 847T328 859Q351 859 365 848Z" />
<glyph unicode="&#xf5;" glyph-name="otilde" horiz-adv-x="642" d="M410 540T474 504T572 405T606 265Q606 188 573 126T475 27T321 -10Q232 -10 168 26T70 125T36 265Q36 342 69 404T167 503T321 540Q410 540 474 504ZM204 174T229 108T321 41Q386 41 412 108T438
265Q438 355 413 421T321 488Q255 488 230 422T204 265Q204 174 229 108ZM202 681T218 691T260 701Q276 701 289 697T319 682Q337 672 351 667T385 662Q435 662 461 701T487 810H448Q443 792 428 782T388 772Q373 772 361 776T331 789Q312 799 299 803T267 808Q219
808 190 770T160 663H199Q202 681 218 691Z" />
<glyph unicode="&#xf6;" glyph-name="odieresis" horiz-adv-x="642" d="M410 540T474 504T572 405T606 265Q606 188 573 126T475 27T321 -10Q232 -10 168 26T70 125T36 265Q36 342 69 404T167 503T321 540Q410 540 474 504ZM204 174T229 108T321 41Q386 41 412
108T438 265Q438 355 413 421T321 488Q255 488 230 422T204 265Q204 174 229 108ZM137 738T157 759T212 780Q246 780 267 759T289 708Q289 680 269 659T212 637Q177 637 157 658T137 708Q137 738 157 759ZM355 738T375 759T430 780Q464 780 485 759T507 708Q507
680 487 659T430 637Q395 637 375 658T355 708Q355 738 375 759Z" />
<glyph unicode="&#xf7;" glyph-name="divide" horiz-adv-x="502" d="M163 555T186 579T248 603Q288 603 312 579T337 520Q337 487 314 463T248 438Q208 438 186 462T163 520Q163 555 186 579ZM46 372H456V307H46V372ZM163 199T186 223T248 247Q288 247 312 223T337
164Q337 131 314 107T248 82Q208 82 186 106T163 164Q163 199 186 223Z" />
<glyph unicode="&#xf8;" glyph-name="oslash" horiz-adv-x="652" d="M219 -10T147 42L106 0H31L107 79Q75 116 58 163T41 265Q41 342 74 404T172 503T326 540Q431 540 505 487L547 530H623L545 450Q577 413 594 366T611 265Q611 188 578 126T480 27T326 -10Q219
-10 147 42ZM394 488T326 488Q260 488 235 422T209 265Q209 221 214 188L424 404Q394 488 326 488ZM391 41T417 108T443 265Q443 297 438 340L228 125Q256 41 326 41Q391 41 417 108Z" />
<glyph unicode="&#xf9;" glyph-name="ugrave" horiz-adv-x="664" d="M643 62V39L439 -10H417V53L414 56Q378 26 333 8T245 -10Q197 -10 162 10T108 70Q99 89 96 116T93 212V475L18 495V530H248V256Q248 202 250 177T258 136Q278 81 342 81Q383 81 412 110V475L342
495V530H567V90L643 62ZM341 793Q323 859 266 859Q246 859 234 847T221 814Q221 779 254 742L351 631L382 642L341 793Z" />
<glyph unicode="&#xfa;" glyph-name="uacute" horiz-adv-x="664" d="M643 62V39L439 -10H417V53L414 56Q378 26 333 8T245 -10Q197 -10 162 10T108 70Q99 89 96 116T93 212V475L18 495V530H248V256Q248 202 250 177T258 136Q278 81 342 81Q383 81 412 110V475L342
495V530H567V90L643 62ZM390 742Q423 779 423 814Q423 834 411 846T378 859Q321 859 303 793L262 642L293 631L390 742Z" />
<glyph unicode="&#xfb;" glyph-name="ucircumflex" horiz-adv-x="664" d="M643 62V39L439 -10H417V53L414 56Q378 26 333 8T245 -10Q197 -10 162 10T108 70Q99 89 96 116T93 212V475L18 495V530H248V256Q248 202 250 177T258 136Q278 81 342 81Q383 81 412 110V475L342
495V530H567V90L643 62ZM368 859T382 848T411 811L497 642L466 630L344 746L222 630L191 642L275 811Q288 836 304 847T345 859Q368 859 382 848Z" />
<glyph unicode="&#xfc;" glyph-name="udieresis" horiz-adv-x="664" d="M643 62V39L439 -10H417V53L414 56Q378 26 333 8T245 -10Q197 -10 162 10T108 70Q99 89 96 116T93 212V475L18 495V530H248V256Q248 202 250 177T258 136Q278 81 342 81Q383 81 412 110V475L342
495V530H567V90L643 62ZM150 738T170 759T225 780Q259 780 280 759T302 708Q302 680 282 659T225 637Q190 637 170 658T150 708Q150 738 170 759ZM368 738T388 759T443 780Q477 780 498 759T520 708Q520 680 500 659T443 637Q408 637 388 658T368 708Q368 738 388
759Z" />
<glyph unicode="&#xfd;" glyph-name="yacute" horiz-adv-x="630" d="M473 416Q482 437 482 451Q482 471 463 482T402 495V530H643V495Q605 488 586 480T556 457T533 415L302 -141Q275 -206 237 -234Q199 -260 138 -260Q86 -260 53 -238T20 -174Q20 -146 38 -129T84
-111Q107 -111 124 -124T149 -162Q156 -186 162 -193T183 -200Q200 -200 217 -182T246 -134L286 -28L72 455Q64 474 47 482T-8 495V530H318V495Q280 492 264 485T247 463Q247 453 251 445L367 171H372L473 416ZM430 742Q463 779 463 814Q463 834 451 846T418 859Q361
859 343 793L302 642L333 631L430 742Z" />
<glyph unicode="&#xfe;" glyph-name="thorn" horiz-adv-x="659" d="M417 -10T483 26T585 128T621 282Q621 358 594 416T517 507T402 540Q307 540 234 469V830H212L-5 781V758L79 731V-200L-8 -226V-250H368V-226L234 -200V5Q281 -10 329 -10Q417 -10 483 26ZM290
44T262 76T234 154V404Q253 432 277 447T331 462Q388 462 420 409T452 260Q452 162 419 103T331 44Q290 44 262 76Z" />
<glyph unicode="&#xff;" glyph-name="ydieresis" horiz-adv-x="630" d="M473 416Q482 437 482 451Q482 471 463 482T402 495V530H643V495Q605 488 586 480T556 457T533 415L302 -141Q275 -206 237 -234Q199 -260 138 -260Q86 -260 53 -238T20 -174Q20 -146 38
-129T84 -111Q107 -111 124 -124T149 -162Q156 -186 162 -193T183 -200Q200 -200 217 -182T246 -134L286 -28L72 455Q64 474 47 482T-8 495V530H318V495Q280 492 264 485T247 463Q247 453 251 445L367 171H372L473 416ZM185 738T205 759T260 780Q294 780 315 759T337
708Q337 680 317 659T260 637Q225 637 205 658T185 708Q185 738 205 759ZM403 738T423 759T478 780Q512 780 533 759T555 708Q555 680 535 659T478 637Q443 637 423 658T403 708Q403 738 423 759Z" />
<glyph unicode="&#x2013;" glyph-name="endash" horiz-adv-x="741" d="M71 290H670V213H71V290Z" />
<glyph unicode="&#x2014;" glyph-name="emdash" horiz-adv-x="1062" d="M71 290H991V213H71V290Z" />
<glyph unicode="&#x2018;" glyph-name="quoteleft" horiz-adv-x="260" d="M166 773T145 745T123 696Q123 682 132 674T163 653Q190 638 203 624T217 584Q217 550 193 528T132 506Q91 506 67 537T43 624Q43 688 78 742T175 830L199 797Q166 773 145 745Z" />
<glyph unicode="&#x2019;" glyph-name="quoteright" horiz-adv-x="258" d="M96 563T117 591T139 640Q139 654 130 662T99 683Q72 698 59 712T45 752Q45 786 69 808T130 830Q171 830 195 799T219 712Q219 648 184 594T87 506L63 539Q96 563 117 591Z" />
<glyph unicode="&#x201a;" glyph-name="quotesinglbase" horiz-adv-x="277" d="M102 -102T123 -74T145 -25Q145 -11 136 -3T105 18Q78 33 65 47T51 87Q51 121 75 143T136 165Q177 165 201 134T225 47Q225 -17 190 -71T93 -159L69 -126Q102 -102 123 -74Z" />
<glyph unicode="&#x201c;" glyph-name="quotedblleft" horiz-adv-x="482" d="M166 773T145 745T123 696Q123 682 132 674T163 653Q190 638 203 624T217 584Q217 550 193 528T132 506Q91 506 67 537T43 624Q43 688 78 742T175 830L199 797Q166 773 145 745ZM388
773T367 745T345 696Q345 682 354 674T385 653Q412 638 425 624T439 584Q439 550 415 528T354 506Q313 506 289 537T265 624Q265 688 300 742T397 830L421 797Q388 773 367 745Z" />
<glyph unicode="&#x201d;" glyph-name="quotedblright" horiz-adv-x="480" d="M96 563T117 591T139 640Q139 654 130 662T99 683Q72 698 59 712T45 752Q45 786 69 808T130 830Q171 830 195 799T219 712Q219 648 184 594T87 506L63 539Q96 563 117 591ZM318 563T339
591T361 640Q361 654 352 662T321 683Q294 698 281 712T267 752Q267 786 291 808T352 830Q393 830 417 799T441 712Q441 648 406 594T309 506L285 539Q318 563 339 591Z" />
<glyph unicode="&#x201e;" glyph-name="quotedblbase" horiz-adv-x="499" d="M102 -102T123 -74T145 -25Q145 -11 136 -3T105 18Q78 33 65 47T51 87Q51 121 75 143T136 165Q177 165 201 134T225 47Q225 -17 190 -71T93 -159L69 -126Q102 -102 123 -74ZM324 -102T345
-74T367 -25Q367 -11 358 -3T327 18Q300 33 287 47T273 87Q273 121 297 143T358 165Q399 165 423 134T447 47Q447 -17 412 -71T315 -159L291 -126Q324 -102 345 -74Z" />
<glyph unicode="&#x2022;" glyph-name="bullet" horiz-adv-x="432" d="M72 411T91 443T144 493T217 512Q256 512 289 494T341 443T361 374Q361 337 342 305T289 255T217 236Q178 236 145 254T92 305T72 374Q72 411 91 443Z" />
<glyph unicode="&#x2039;" glyph-name="guilsinglleft" horiz-adv-x="296" d="M172 246L226 423L196 436L49 255V236L198 53L228 68L172 246Z" />
<glyph unicode="&#x203a;" glyph-name="guilsinglright" horiz-adv-x="296" d="M247 236V255L100 436L70 423L124 246L68 68L98 53L247 236Z" />
</font>
</defs>
</svg>
